<?xml version="1.0" encoding="UTF-8" standalone="no"?>
<svg
   xmlns:dc="http://purl.org/dc/elements/1.1/"
   xmlns:cc="http://creativecommons.org/ns#"
   xmlns:rdf="http://www.w3.org/1999/02/22-rdf-syntax-ns#"
   xmlns:svg="http://www.w3.org/2000/svg"
   xmlns="http://www.w3.org/2000/svg"
   xmlns:sodipodi="http://sodipodi.sourceforge.net/DTD/sodipodi-0.dtd"
   xmlns:inkscape="http://www.inkscape.org/namespaces/inkscape"
   width="15.24mm"
   height="128.5mm"
   viewBox="0 0 15.24 128.5"
   version="1.1"
   id="svg8"
   inkscape:version="1.0.2-2 (e86c870879, 2021-01-15)"
   sodipodi:docname="IfStatement.svg">
  <defs
     id="defs2" />
  <sodipodi:namedview
     id="base"
     pagecolor="#ffffff"
     bordercolor="#666666"
     borderopacity="1.0"
     inkscape:pageopacity="0.0"
     inkscape:pageshadow="2"
     inkscape:zoom="1.4"
     inkscape:cx="-6.5294837"
     inkscape:cy="169.70232"
     inkscape:document-units="mm"
     inkscape:current-layer="layer1"
     inkscape:document-rotation="0"
     showgrid="false"
     inkscape:window-width="1920"
     inkscape:window-height="1017"
     inkscape:window-x="-8"
     inkscape:window-y="-8"
     inkscape:window-maximized="1"
     showguides="false" />
  <metadata
     id="metadata5">
    <rdf:RDF>
      <cc:Work
         rdf:about="">
        <dc:format>image/svg+xml</dc:format>
        <dc:type
           rdf:resource="http://purl.org/dc/dcmitype/StillImage" />
        <dc:title></dc:title>
      </cc:Work>
    </rdf:RDF>
  </metadata>
  <g
     inkscape:label="Layer 1"
     inkscape:groupmode="layer"
     id="layer1">
    <rect
       style="fill:#e6e6e6;stroke:#000000;stroke-width:0.324;stroke-linejoin:round;fill-opacity:1;stroke-miterlimit:4;stroke-dasharray:none"
       id="rect833"
       width="15.240001"
       height="128.5"
       x="0.13249896"
       y="0.13249896" />
    <g
       aria-label="JUST LIGIC"
       transform="rotate(-90,9.4808464,115.58302)"
       id="text837"
       style="font-size:4.23333px;line-height:1.25;font-family:sans-serif;letter-spacing:0px;word-spacing:0px;white-space:pre;inline-size:38.7179;stroke-width:0.264583">
      <path
         d="m 3.1858646,115.68317 v -0.25824 h 3.0056641 v 0.25824 z m 0,4.01319 v -0.27093 h 3.0056641 v 0.27093 z m 1.0371658,-1.68486 q 0.097367,0.37253 0.3386664,0.37253 0.097367,0 0.1735665,-0.0677 0.080433,-0.072 0.080433,-0.2667 v -1.59597 h 0.3809996 v 1.61713 q 0,0.2794 -0.1693331,0.46144 -0.1693332,0.1778 -0.4656663,0.1778 -0.1523999,0 -0.2624665,-0.0423 -0.1100665,-0.0466 -0.1904998,-0.12276 -0.0762,-0.0762 -0.1269999,-0.1778 -0.046567,-0.10584 -0.071967,-0.2286 z"
         style="font-style:normal;font-variant:normal;font-weight:normal;font-stretch:normal;font-size:4.23333px;font-family:'INSPECTIONXPERT GDT FRAMES';-inkscape-font-specification:'INSPECTIONXPERT GDT FRAMES';stroke-width:0.264583"
         id="path1163" />
      <path
         d="m 6.1491906,115.68317 v -0.25824 h 3.0056641 v 0.25824 z m 0,4.01319 v -0.27093 h 3.0056641 v 0.27093 z m 0.9863658,-3.24696 v 1.50706 q 0,0.2286 0.1439332,0.3302 0.1481666,0.0974 0.372533,0.0974 0.093133,0 0.1862666,-0.0169 0.097366,-0.0212 0.1693331,-0.0677 0.071967,-0.0508 0.1185333,-0.13123 0.046567,-0.0847 0.046567,-0.21167 v -1.50706 h 0.3894663 v 1.55786 q 0,0.3429 -0.2285998,0.52494 -0.2285998,0.1778 -0.6773327,0.1778 -0.4402663,0 -0.6773328,-0.1778 -0.2328331,-0.18204 -0.2328331,-0.52494 v -1.55786 z"
         style="font-style:normal;font-variant:normal;font-weight:normal;font-stretch:normal;font-size:4.23333px;font-family:'INSPECTIONXPERT GDT FRAMES';-inkscape-font-specification:'INSPECTIONXPERT GDT FRAMES';stroke-width:0.264583"
         id="path1165" />
      <path
         d="m 9.1125166,115.68317 v -0.25824 h 3.0056644 v 0.25824 z m 0,4.01319 v -0.27093 h 3.0056644 v 0.27093 z M 10.594182,118.71 q -0.1524,0 -0.2794,-0.0423 -0.127,-0.0466 -0.224366,-0.12276 -0.097367,-0.0762 -0.1651001,-0.1778 -0.0635,-0.10584 -0.0889,-0.2286 l 0.3132661,-0.127 q 0.0254,0.0931 0.07197,0.1651 0.0508,0.0677 0.110067,0.1143 0.0635,0.0466 0.131233,0.072 0.06773,0.0212 0.131233,0.0212 0.186266,0 0.283633,-0.0931 0.09737,-0.0931 0.09737,-0.23707 0,-0.10583 -0.0762,-0.17357 -0.0762,-0.0677 -0.194733,-0.12276 -0.1143,-0.055 -0.249767,-0.11007 -0.131233,-0.055 -0.249766,-0.13547 -0.1143,-0.0804 -0.1905,-0.19473 -0.0762,-0.11853 -0.0762,-0.30057 0,-0.11853 0.0508,-0.22859 0.055033,-0.11007 0.1481662,-0.19474 0.09313,-0.0847 0.220134,-0.13546 0.126999,-0.0508 0.279399,-0.0508 0.3048,0 0.4826,0.1651 0.182033,0.1651 0.232833,0.40639 l -0.313266,0.127 q -0.04657,-0.18626 -0.1651,-0.27939 -0.1143,-0.0931 -0.237067,-0.0931 -0.0635,0 -0.122766,0.0254 -0.05503,0.0212 -0.1016,0.0635 -0.04233,0.0381 -0.06773,0.0889 -0.0254,0.0508 -0.0254,0.10583 0,0.11854 0.0762,0.1905 0.0762,0.0677 0.1905,0.12277 0.118534,0.0508 0.249767,0.1016 0.135466,0.0508 0.249766,0.127 0.118533,0.0762 0.194733,0.19473 0.0762,0.1143 0.0762,0.30057 0,0.127 -0.05503,0.24553 -0.0508,0.11854 -0.1524,0.21167 -0.09737,0.0889 -0.237066,0.14393 -0.1397,0.055 -0.3175,0.055 z"
         style="font-style:normal;font-variant:normal;font-weight:normal;font-stretch:normal;font-size:4.23333px;font-family:'INSPECTIONXPERT GDT FRAMES';-inkscape-font-specification:'INSPECTIONXPERT GDT FRAMES';stroke-width:0.264583"
         id="path1167" />
      <path
         d="m 12.075843,115.68317 v -0.25824 h 3.005664 v 0.25824 z m 0,4.01319 v -0.27093 h 3.005664 v 0.27093 z m 2.412998,-3.24696 v 0.33867 h -0.719666 v 1.87959 h -0.381 v -1.87536 h -0.719666 v -0.3429 z"
         style="font-style:normal;font-variant:normal;font-weight:normal;font-stretch:normal;font-size:4.23333px;font-family:'INSPECTIONXPERT GDT FRAMES';-inkscape-font-specification:'INSPECTIONXPERT GDT FRAMES';stroke-width:0.264583"
         id="path1169" />
      <path
         d="m 17.155826,115.68317 v -0.25824 h 3.005664 v 0.25824 z m 0,4.01319 v -0.27093 h 3.005664 v 0.27093 z m 1.358899,-3.24696 v 1.88383 h 0.977899 v 0.33443 h -1.363132 v -2.21826 z"
         style="font-style:normal;font-variant:normal;font-weight:normal;font-stretch:normal;font-size:4.23333px;font-family:'INSPECTIONXPERT GDT FRAMES';-inkscape-font-specification:'INSPECTIONXPERT GDT FRAMES';stroke-width:0.264583"
         id="path1171" />
      <path
         d="m 20.119151,115.68317 v -0.25824 h 3.005664 v 0.25824 z m 0,4.01319 v -0.27093 h 3.005664 v 0.27093 z m 1.693332,-3.24696 v 2.21826 h -0.381 v -2.21826 z"
         style="font-style:normal;font-variant:normal;font-weight:normal;font-stretch:normal;font-size:4.23333px;font-family:'INSPECTIONXPERT GDT FRAMES';-inkscape-font-specification:'INSPECTIONXPERT GDT FRAMES';stroke-width:0.264583"
         id="path1173" />
      <path
         d="m 23.082477,115.68317 v -0.25824 h 3.005664 v 0.25824 z m 0,4.01319 v -0.27093 h 3.005664 v 0.27093 z m 1.583265,-3.27236 q 0.321733,0 0.529166,0.14393 0.211667,0.14394 0.321733,0.38524 l -0.334433,0.14816 q -0.08043,-0.14393 -0.203199,-0.2413 -0.118534,-0.0974 -0.313267,-0.0974 -0.364066,0 -0.550333,0.22013 -0.186266,0.2159 -0.186266,0.5588 0,0.38523 0.2032,0.6096 0.207433,0.22013 0.601132,0.22013 0.110067,0 0.194734,-0.0169 0.08467,-0.0212 0.186266,-0.0635 v -0.47837 h -0.486833 l 0.08467,-0.3429 h 0.783166 v 1.00753 q -0.1905,0.12277 -0.3683,0.17357 -0.1778,0.0466 -0.402166,0.0466 -0.550333,0 -0.8636,-0.28787 -0.313266,-0.28787 -0.313266,-0.84667 0,-0.25823 0.0762,-0.46566 0.0762,-0.21167 0.220133,-0.35983 0.148167,-0.1524 0.351366,-0.23284 0.207434,-0.0804 0.4699,-0.0804 z"
         style="font-style:normal;font-variant:normal;font-weight:normal;font-stretch:normal;font-size:4.23333px;font-family:'INSPECTIONXPERT GDT FRAMES';-inkscape-font-specification:'INSPECTIONXPERT GDT FRAMES';stroke-width:0.264583"
         id="path1175" />
      <path
         d="m 26.045804,115.68317 v -0.25824 h 3.005664 v 0.25824 z m 0,4.01319 v -0.27093 h 3.005664 v 0.27093 z m 1.693332,-3.24696 v 2.21826 h -0.381 v -2.21826 z"
         style="font-style:normal;font-variant:normal;font-weight:normal;font-stretch:normal;font-size:4.23333px;font-family:'INSPECTIONXPERT GDT FRAMES';-inkscape-font-specification:'INSPECTIONXPERT GDT FRAMES';stroke-width:0.264583"
         id="path1177" />
      <path
         d="m 29.00913,115.68317 v -0.25824 h 3.005664 v 0.25824 z m 0,4.01319 v -0.27093 h 3.005664 v 0.27093 z M 30.575462,118.71 q -0.262467,0 -0.4699,-0.0847 -0.207433,-0.0847 -0.3556,-0.23707 -0.143933,-0.1524 -0.220133,-0.36406 -0.0762,-0.2159 -0.0762,-0.47414 0,-0.25823 0.0762,-0.46566 0.0762,-0.21167 0.220133,-0.3556 0.148167,-0.14817 0.3556,-0.22437 0.207433,-0.0804 0.4699,-0.0804 0.317499,0 0.529166,0.1397 0.211666,0.1397 0.338666,0.41063 l -0.313266,0.14817 q -0.09737,-0.1778 -0.2286,-0.2667 -0.131233,-0.0931 -0.325966,-0.0931 -0.351367,0 -0.537633,0.21589 -0.182033,0.21167 -0.182033,0.55457 0,0.17357 0.04657,0.32597 0.04657,0.1524 0.135467,0.2667 0.09313,0.1143 0.2286,0.18203 0.135466,0.0635 0.309033,0.0635 0.194733,0 0.325966,-0.0889 0.131233,-0.0931 0.2286,-0.27093 l 0.313266,0.14816 q -0.127,0.27094 -0.338666,0.41064 -0.211667,0.1397 -0.529166,0.1397 z"
         style="font-style:normal;font-variant:normal;font-weight:normal;font-stretch:normal;font-size:4.23333px;font-family:'INSPECTIONXPERT GDT FRAMES';-inkscape-font-specification:'INSPECTIONXPERT GDT FRAMES';stroke-width:0.264583"
         id="path1179" />
    </g>
    <g
       aria-label="IF STATEMENT"
       transform="rotate(-90)"
       id="text841"
       style="font-size:4.93889px;line-height:1.25;font-family:sans-serif;letter-spacing:0px;word-spacing:0px;stroke-width:0.264583">
      <path
         d="m -121.23881,3.7264852 h -0.64811 V 3.4035077 h 1.68379 v 0.3229775 h -0.64811 v 2.1639495 h 0.64811 v 0.3272839 h -1.68379 V 5.8904347 h 0.64811 z"
         style="font-style:normal;font-variant:normal;font-weight:normal;font-stretch:normal;font-size:4.40972px;font-family:Consolas;-inkscape-font-specification:Consolas;stroke-width:0.264583"
         id="path1140" />
      <path
         d="m -117.80449,3.7307916 h -1.19501 v 0.9129498 h 1.13257 v 0.3208244 h -1.13257 v 1.2531528 h -0.39188 V 3.4035077 h 1.58689 z"
         style="font-style:normal;font-variant:normal;font-weight:normal;font-stretch:normal;font-size:4.40972px;font-family:Consolas;-inkscape-font-specification:Consolas;stroke-width:0.264583"
         id="path1142" />
      <path
         d="m -112.83709,5.4554916 q 0,0.2002461 -0.0818,0.3509689 -0.0818,0.1507229 -0.22824,0.2519225 -0.14642,0.099047 -0.35312,0.1485697 -0.20456,0.049523 -0.45217,0.049523 -0.11197,0 -0.22393,-0.00861 -0.10982,-0.00861 -0.21317,-0.021532 -0.1012,-0.012919 -0.19163,-0.030144 -0.0904,-0.017226 -0.16364,-0.036604 V 5.7892351 q 0.16149,0.060289 0.36173,0.09474 0.2024,0.034451 0.45863,0.034451 0.18517,0 0.31436,-0.027991 0.13135,-0.030145 0.21317,-0.086127 0.084,-0.058136 0.12058,-0.139957 0.0388,-0.081821 0.0388,-0.1873269 0,-0.1141188 -0.0646,-0.1937866 -0.0624,-0.081821 -0.1658,-0.1442633 -0.10335,-0.064596 -0.23685,-0.1162719 -0.13134,-0.05383 -0.26914,-0.1098123 -0.13781,-0.055983 -0.2713,-0.1205783 -0.13135,-0.066749 -0.2347,-0.1550292 -0.10335,-0.090434 -0.16795,-0.211012 -0.0624,-0.1205783 -0.0624,-0.2863734 0,-0.1442633 0.0603,-0.2842203 0.0603,-0.1399569 0.18732,-0.2476161 0.12704,-0.1098123 0.32513,-0.176561 0.20025,-0.066749 0.47586,-0.066749 0.071,0 0.15287,0.00646 0.084,0.00646 0.16795,0.019379 0.0861,0.010766 0.16795,0.025838 0.084,0.015072 0.15503,0.032298 v 0.3445094 q -0.1658,-0.04737 -0.33159,-0.071055 -0.1658,-0.025838 -0.32082,-0.025838 -0.32944,0 -0.48447,0.1098124 -0.15503,0.1098124 -0.15503,0.2949862 0,0.1141187 0.0624,0.1959397 0.0646,0.081821 0.16795,0.1464164 0.10335,0.064595 0.2347,0.1184251 0.13349,0.051676 0.2713,0.1076592 0.1378,0.055983 0.26915,0.1227315 0.13349,0.066749 0.23685,0.1593356 0.10335,0.090434 0.16579,0.2131651 0.0646,0.1227315 0.0646,0.2906798 z"
         style="font-style:normal;font-variant:normal;font-weight:normal;font-stretch:normal;font-size:4.40972px;font-family:Consolas;-inkscape-font-specification:Consolas;stroke-width:0.264583"
         id="path1144" />
      <path
         d="m -110.32002,3.7307916 h -0.83328 v 2.486927 h -0.38758 v -2.486927 h -0.83328 V 3.4035077 h 2.05414 z"
         style="font-style:normal;font-variant:normal;font-weight:normal;font-stretch:normal;font-size:4.40972px;font-family:Consolas;-inkscape-font-specification:Consolas;stroke-width:0.264583"
         id="path1146" />
      <path
         d="m -107.73189,6.2177186 h -0.41772 l -0.19594,-0.6136573 h -1.17133 l -0.1981,0.6136573 h -0.39834 l 0.93449,-2.8142109 h 0.52537 z m -0.72347,-0.9560135 -0.47586,-1.5050753 -0.47585,1.5050753 z"
         style="font-style:normal;font-variant:normal;font-weight:normal;font-stretch:normal;font-size:4.40972px;font-family:Consolas;-inkscape-font-specification:Consolas;stroke-width:0.264583"
         id="path1148" />
      <path
         d="m -105.47105,3.7307916 h -0.83328 v 2.486927 h -0.38758 v -2.486927 h -0.83328 V 3.4035077 h 2.05414 z"
         style="font-style:normal;font-variant:normal;font-weight:normal;font-stretch:normal;font-size:4.40972px;font-family:Consolas;-inkscape-font-specification:Consolas;stroke-width:0.264583"
         id="path1150" />
      <path
         d="m -103.25327,6.2177186 h -1.59982 V 3.4035077 h 1.59982 v 0.3229775 h -1.21655 v 0.8720394 h 1.16918 v 0.3229775 h -1.16918 v 0.9689326 h 1.21655 z"
         style="font-style:normal;font-variant:normal;font-weight:normal;font-stretch:normal;font-size:4.40972px;font-family:Consolas;-inkscape-font-specification:Consolas;stroke-width:0.264583"
         id="path1152" />
      <path
         d="m -100.54241,6.2177186 h -0.37466 l -0.056,-1.7548446 -0.0237,-0.6739465 -0.13134,0.3918794 -0.41556,1.1196555 h -0.26485 l -0.39618,-1.0765918 -0.13135,-0.4349431 -0.009,0.7040911 -0.0495,1.7247 h -0.36174 l 0.13781,-2.8142109 h 0.45432 l 0.37896,1.0593663 0.12273,0.3574285 0.11843,-0.3574285 0.39833,-1.0593663 h 0.46725 z"
         style="font-style:normal;font-variant:normal;font-weight:normal;font-stretch:normal;font-size:4.40972px;font-family:Consolas;-inkscape-font-specification:Consolas;stroke-width:0.264583"
         id="path1154" />
      <path
         d="m -98.404303,6.2177186 h -1.599817 V 3.4035077 h 1.599817 v 0.3229775 h -1.216549 v 0.8720394 h 1.169179 v 0.3229775 h -1.169179 v 0.9689326 h 1.216549 z"
         style="font-style:normal;font-variant:normal;font-weight:normal;font-stretch:normal;font-size:4.40972px;font-family:Consolas;-inkscape-font-specification:Consolas;stroke-width:0.264583"
         id="path1156" />
      <path
         d="m -95.842015,6.2177186 h -0.499539 l -0.820363,-1.7548446 -0.23685,-0.5641341 v 1.418948 0.9000307 h -0.357429 V 3.4035077 h 0.493079 l 0.781606,1.6622577 0.282067,0.6438019 V 4.2023388 3.4035077 h 0.357429 z"
         style="font-style:normal;font-variant:normal;font-weight:normal;font-stretch:normal;font-size:4.40972px;font-family:Consolas;-inkscape-font-specification:Consolas;stroke-width:0.264583"
         id="path1158" />
      <path
         d="m -93.348627,3.7307916 h -0.833282 v 2.486927 h -0.387573 v -2.486927 h -0.833283 V 3.4035077 h 2.054138 z"
         style="font-style:normal;font-variant:normal;font-weight:normal;font-stretch:normal;font-size:4.40972px;font-family:Consolas;-inkscape-font-specification:Consolas;stroke-width:0.264583"
         id="path1160" />
    </g>
    <rect
       style="fill:#000000;fill-opacity:1;stroke:none;stroke-width:0.434573;stroke-linejoin:round;stroke-miterlimit:4;stroke-dasharray:none"
       id="rect844"
       width="14.039434"
       height="25.629847"
       x="0.76401097"
       y="65.695755"
       ry="1.5" />
    <g
       aria-label="OUT"
       id="text857"
       style="font-size:3.175px;line-height:1.25;font-family:sans-serif;letter-spacing:0px;word-spacing:0px;stroke-width:0.264583">
      <path
         d="m 6.3018236,68.018932 q 0.1410766,0.155029 0.2154907,0.379821 0.075964,0.224793 0.075964,0.510047 0,0.285254 -0.077515,0.511596 -0.075964,0.224793 -0.2139404,0.375171 -0.142627,0.15658 -0.3379639,0.235645 -0.1937866,0.07906 -0.4433838,0.07906 -0.243396,0 -0.4433837,-0.08061 Q 4.8786547,69.949046 4.7391283,69.795567 4.5996019,69.642088 4.5236376,69.418846 4.4492235,69.195604 4.4492235,68.9088 q 0,-0.282154 0.074414,-0.505396 0.074414,-0.224792 0.217041,-0.384472 0.1364258,-0.151929 0.3379639,-0.232544 0.2030883,-0.08062 0.4418334,-0.08062 0.2480469,0 0.4449341,0.08217 0.1984375,0.08062 0.3364136,0.230994 z M 6.2739183,68.9088 q 0,-0.449585 -0.2015381,-0.692981 -0.2015381,-0.244946 -0.550354,-0.244946 -0.3519165,0 -0.5534545,0.244946 -0.1999878,0.243396 -0.1999878,0.692981 0,0.454236 0.2046386,0.696081 0.2046387,0.240296 0.5488037,0.240296 0.3441651,0 0.5472534,-0.240296 0.2046387,-0.241845 0.2046387,-0.696081 z"
         style="font-size:3.175px;fill:#ffffff;fill-opacity:1;stroke-width:0.264583"
         id="path1107" />
      <path
         d="m 8.8179491,69.135143 q 0,0.251147 -0.05581,0.438732 -0.05426,0.186036 -0.179834,0.310059 -0.1193726,0.117822 -0.2790527,0.172083 -0.1596802,0.05426 -0.3720703,0.05426 -0.2170411,0 -0.3782715,-0.05736 -0.1612305,-0.05736 -0.2713013,-0.168982 -0.1255737,-0.127124 -0.1813843,-0.306958 -0.05426,-0.179834 -0.05426,-0.441833 v -1.381311 h 0.306958 v 1.396813 q 0,0.187586 0.024805,0.296106 0.026355,0.108521 0.086816,0.196888 0.068213,0.100769 0.1844848,0.151928 0.1178223,0.05116 0.2821534,0.05116 0.1658813,0 0.2821533,-0.04961 0.1162719,-0.05116 0.1860351,-0.153479 0.060462,-0.08837 0.085266,-0.201538 0.026355,-0.114722 0.026355,-0.283704 v -1.404565 h 0.306958 z"
         style="font-size:3.175px;fill:#ffffff;fill-opacity:1;stroke-width:0.264583"
         id="path1109" />
      <path
         d="m 11.050371,68.026683 h -0.824756 v 2.035535 H 9.918657 V 68.026683 H 9.0939012 v -0.272851 h 1.9564698 z"
         style="font-size:3.175px;fill:#ffffff;fill-opacity:1;stroke-width:0.264583"
         id="path1111" />
    </g>
    <g
       aria-label="LOGIC
GATE"
       id="text871"
       style="font-size:3.175px;line-height:0;font-family:sans-serif;letter-spacing:0px;word-spacing:0px;stroke-width:0.264583">
      <path
         d="M 4.3047482,8.8091488 H 2.8443722 V 6.5007626 h 0.3069581 v 2.0355346 h 1.1534179 z"
         style="font-size:3.175px;line-height:1.15;text-align:center;text-anchor:middle;stroke-width:0.264583"
         id="path1069" />
      <path
         d="m 6.3015255,6.7658627 q 0.1410767,0.1550293 0.2154908,0.3798218 0.075964,0.2247924 0.075964,0.5100463 0,0.2852539 -0.077515,0.5115967 Q 6.4395016,8.39212 6.3015255,8.5424984 6.1588986,8.699078 5.9635617,8.7781429 q -0.1937866,0.079065 -0.4433838,0.079065 -0.243396,0 -0.4433838,-0.080615 Q 4.8783566,8.6959774 4.7388303,8.5424984 4.5993039,8.3890194 4.5233395,8.1657772 4.4489255,7.942535 4.4489255,7.6557308 q 0,-0.2821533 0.074414,-0.5053955 0.074414,-0.2247924 0.217041,-0.3844726 0.1364258,-0.1519287 0.3379639,-0.232544 0.2030884,-0.080615 0.4418335,-0.080615 0.2480469,0 0.4449341,0.082165 0.1984375,0.080615 0.3364135,0.2309937 z m -0.027905,0.8898681 q 0,-0.4495849 -0.2015381,-0.6929809 -0.2015381,-0.2449463 -0.550354,-0.2449463 -0.3519165,0 -0.5534546,0.2449463 -0.1999878,0.243396 -0.1999878,0.6929809 0,0.4542359 0.2046387,0.6960816 0.2046387,0.2402954 0.5488037,0.2402954 0.344165,0 0.5472534,-0.2402954 0.2046387,-0.2418457 0.2046387,-0.6960816 z"
         style="font-size:3.175px;line-height:1.15;text-align:center;text-anchor:middle;stroke-width:0.264583"
         id="path1071" />
      <path
         d="m 9.0052363,8.6386166 q -0.1891358,0.086816 -0.4139282,0.1519287 -0.2232422,0.063562 -0.4325318,0.063562 -0.2697509,0 -0.4945434,-0.074414 Q 7.4394404,8.7052792 7.2813105,8.556451 7.1216304,8.4060726 7.034814,8.1812801 6.9479975,7.9549374 6.9479975,7.6526303 q 0,-0.5534546 0.322461,-0.872815 0.3240112,-0.3209106 0.8883178,-0.3209106 0.1968872,0 0.4015259,0.048059 0.206189,0.046509 0.4433838,0.1596801 V 7.0309628 H 8.9757807 Q 8.9277216,6.9937557 8.8362544,6.9332943 8.7447871,6.8728329 8.6564204,6.8325253 8.5494502,6.7844662 8.4130244,6.7534603 8.2781489,6.7209042 8.1060664,6.7209042 q -0.3875733,0 -0.613916,0.2495972 -0.2247925,0.2480468 -0.2247925,0.6728271 0,0.4480347 0.2356445,0.6976318 0.2356446,0.2480469 0.6418213,0.2480469 0.1488281,0 0.296106,-0.029456 0.1488281,-0.029456 0.2604492,-0.075964 V 7.9177303 H 8.082812 V 7.6479794 h 0.9224243 z"
         style="font-size:3.175px;line-height:1.15;text-align:center;text-anchor:middle;stroke-width:0.264583"
         id="path1073" />
      <path
         d="M 10.355542,8.8091488 H 9.4439694 V 8.5735043 H 9.7462765 V 6.7364071 H 9.4439694 V 6.5007626 h 0.9115726 v 0.2356445 h -0.302307 v 1.8370972 h 0.302307 z"
         style="font-size:3.175px;line-height:1.15;text-align:center;text-anchor:middle;stroke-width:0.264583"
         id="path1075" />
      <path
         d="m 12.660827,8.6417172 q -0.08527,0.037207 -0.155029,0.069763 -0.06821,0.032556 -0.179834,0.068213 -0.09457,0.029456 -0.206189,0.049609 -0.110071,0.021704 -0.243396,0.021704 -0.251148,0 -0.457337,-0.069763 Q 11.214404,8.70993 11.062475,8.5595516 10.913647,8.4122738 10.829931,8.185931 q -0.08372,-0.227893 -0.08372,-0.5286499 0,-0.2852539 0.08062,-0.5100463 0.08061,-0.2247925 0.232543,-0.3798218 0.147278,-0.1503784 0.355018,-0.2294434 0.209289,-0.079065 0.463537,-0.079065 0.186035,0 0.37052,0.044958 0.186035,0.044959 0.412378,0.1581299 v 0.3643188 h -0.02325 Q 12.446887,6.8666317 12.259301,6.793768 q -0.187585,-0.072864 -0.401526,-0.072864 -0.175183,0 -0.316259,0.057361 -0.139527,0.055811 -0.249598,0.1751831 -0.10697,0.116272 -0.167431,0.2945557 -0.05891,0.1767334 -0.05891,0.4092773 0,0.243396 0.06511,0.4185791 0.06666,0.1751831 0.170532,0.2852539 0.108521,0.1147217 0.252698,0.1705323 0.145727,0.05426 0.306958,0.05426 0.221692,0 0.415478,-0.075964 0.193787,-0.075964 0.362769,-0.227893 h 0.0217 z"
         style="font-size:3.175px;line-height:1.15;text-align:center;text-anchor:middle;stroke-width:0.264583"
         id="path1077" />
      <path
         d="m 5.689935,12.289866 q -0.1891358,0.08682 -0.4139283,0.151929 -0.2232421,0.06356 -0.4325317,0.06356 -0.269751,0 -0.4945434,-0.07441 Q 4.1241391,12.356529 3.9660092,12.207701 3.806329,12.057322 3.7195126,11.83253 q -0.086816,-0.226343 -0.086816,-0.52865 0,-0.553454 0.3224609,-0.872815 0.3240113,-0.32091 0.8883179,-0.32091 0.1968872,0 0.4015259,0.04806 0.2061889,0.04651 0.4433838,0.15968 v 0.364319 h -0.027905 q -0.048059,-0.03721 -0.1395264,-0.09767 -0.091467,-0.06046 -0.179834,-0.100769 -0.1069702,-0.04806 -0.243396,-0.07906 -0.1348754,-0.03256 -0.306958,-0.03256 -0.3875732,0 -0.613916,0.249597 -0.2247924,0.248047 -0.2247924,0.672827 0,0.448035 0.2356445,0.697632 0.2356445,0.248047 0.6418213,0.248047 0.1488281,0 0.2961059,-0.02946 0.1488281,-0.02946 0.2604492,-0.07596 V 11.56898 H 4.7675106 V 11.299229 H 5.689935 Z"
         style="font-size:3.175px;line-height:1.15;text-align:center;text-anchor:middle;stroke-width:0.264583"
         id="path1079" />
      <path
         d="M 8.0463802,12.460399 H 7.7192684 L 7.4929256,11.817027 H 6.494537 L 6.2681942,12.460399 H 5.9565853 L 6.7968441,10.152012 H 7.2061214 Z M 7.3983578,11.553477 6.9937313,10.420213 6.5875546,11.553477 Z"
         style="font-size:3.175px;line-height:1.15;text-align:center;text-anchor:middle;stroke-width:0.264583"
         id="path1081" />
      <path
         d="M 9.8571226,10.424864 H 9.0323668 v 2.035535 H 8.7254088 V 10.424864 H 7.9006529 v -0.272852 h 1.9564697 z"
         style="font-size:3.175px;line-height:1.15;text-align:center;text-anchor:middle;stroke-width:0.264583"
         id="path1083" />
      <path
         d="m 11.688018,12.460399 h -1.520837 v -2.308387 h 1.520837 v 0.272852 h -1.213879 v 0.63252 h 1.213879 v 0.272851 h -1.213879 v 0.857312 h 1.213879 z"
         style="font-size:3.175px;line-height:1.15;text-align:center;text-anchor:middle;stroke-width:0.264583"
         id="path1085" />
    </g>
    <g
       aria-label="IN"
       id="text871-0"
       style="font-size:3.175px;line-height:0;font-family:sans-serif;letter-spacing:0px;word-spacing:0px;stroke-width:0.264583">
      <path
         d="M 6.9260605,26.858881 H 6.0144882 V 26.623236 H 6.3167954 V 24.786139 H 6.0144882 v -0.235644 h 0.9115723 v 0.235644 H 6.6237534 v 1.837097 h 0.3023071 z"
         style="font-size:3.175px;line-height:1.15;text-align:center;text-anchor:middle;stroke-width:0.264583"
         id="path1088" />
      <path
         d="M 9.209642,26.858881 H 8.8298202 l -1.0945068,-2.06499 v 2.06499 H 7.4485092 v -2.308386 h 0.4759399 l 0.9983887,1.885156 V 24.550495 H 9.209642 Z"
         style="font-size:3.175px;line-height:1.15;text-align:center;text-anchor:middle;stroke-width:0.264583"
         id="path1090" />
    </g>
    <g
       aria-label="CV1"
       id="text871-0-5"
       style="font-size:3.175px;line-height:0;font-family:sans-serif;letter-spacing:0px;word-spacing:0px;stroke-width:0.264583">
      <path
         d="m 6.646439,40.712058 q -0.085266,0.03721 -0.1550293,0.06976 -0.068213,0.03256 -0.179834,0.06821 -0.094568,0.02946 -0.2061889,0.04961 -0.1100708,0.0217 -0.243396,0.0217 -0.2511475,0 -0.4573365,-0.06976 -0.2046386,-0.07131 -0.3565673,-0.221692 -0.1488282,-0.147278 -0.232544,-0.373621 -0.083716,-0.227893 -0.083716,-0.52865 0,-0.285254 0.080615,-0.510046 0.080615,-0.224793 0.232544,-0.379822 0.1472778,-0.150378 0.3550171,-0.229443 0.2092895,-0.07906 0.4635376,-0.07906 0.1860351,0 0.37052,0.04496 0.1860351,0.04496 0.4123779,0.15813 v 0.364319 h -0.023254 q -0.190686,-0.15968 -0.3782715,-0.232544 -0.1875854,-0.07286 -0.4015258,-0.07286 -0.1751832,0 -0.3162598,0.05736 -0.1395264,0.05581 -0.2495972,0.175183 -0.1069702,0.116272 -0.1674316,0.294556 -0.058911,0.176733 -0.058911,0.409277 0,0.243396 0.065112,0.418579 0.066663,0.175183 0.1705322,0.285254 0.1085205,0.114722 0.2526977,0.170532 0.1457276,0.05426 0.306958,0.05426 0.2216919,0 0.4154785,-0.07596 0.1937867,-0.07596 0.3627686,-0.227893 h 0.021704 z"
         style="font-size:3.175px;line-height:1.15;text-align:center;text-anchor:middle;stroke-width:0.264583"
         id="path1093" />
      <path
         d="M 8.900565,38.571104 8.0603062,40.87949 H 7.6510289 L 6.8107701,38.571104 h 0.3286621 l 0.7239868,2.030883 0.7239868,-2.030883 z"
         style="font-size:3.175px;line-height:1.15;text-align:center;text-anchor:middle;stroke-width:0.264583"
         id="path1095" />
      <path
         d="M 10.62139,40.87949 H 9.3718541 V 40.643845 H 9.8524449 V 39.096653 H 9.3718541 v -0.21084 q 0.097668,0 0.2092895,-0.0155 0.1116211,-0.01705 0.1689819,-0.04806 0.071314,-0.03876 0.1116211,-0.09767 0.041858,-0.06046 0.048059,-0.161231 h 0.2402953 v 2.080493 h 0.471289 z"
         style="font-size:3.175px;line-height:1.15;text-align:center;text-anchor:middle;stroke-width:0.264583"
         id="path1097" />
    </g>
    <g
       aria-label="CV2"
       id="text871-0-4"
       style="font-size:3.175px;line-height:0;font-family:sans-serif;letter-spacing:0px;word-spacing:0px;stroke-width:0.264583">
      <path
         d="m 6.5897407,54.829471 q -0.085266,0.03721 -0.1550293,0.06976 -0.068213,0.03256 -0.179834,0.06821 -0.094568,0.02945 -0.206189,0.04961 -0.1100708,0.0217 -0.243396,0.0217 -0.2511474,0 -0.4573364,-0.06976 -0.2046386,-0.07131 -0.3565674,-0.221692 -0.1488281,-0.147278 -0.2325439,-0.37362 -0.083716,-0.227893 -0.083716,-0.52865 0,-0.285254 0.080615,-0.510047 0.080615,-0.224792 0.232544,-0.379821 0.1472778,-0.150379 0.355017,-0.229444 0.2092896,-0.07906 0.4635376,-0.07906 0.1860352,0 0.3705201,0.04496 0.1860351,0.04496 0.4123779,0.15813 v 0.364319 h -0.023254 q -0.1906861,-0.159681 -0.3782715,-0.232544 -0.1875854,-0.07286 -0.4015259,-0.07286 -0.1751831,0 -0.3162597,0.05736 -0.1395264,0.05581 -0.2495972,0.175183 -0.1069702,0.116272 -0.1674316,0.294555 -0.058911,0.176734 -0.058911,0.409278 0,0.243396 0.065112,0.418579 0.066663,0.175183 0.1705323,0.285254 0.1085205,0.114721 0.2526977,0.170532 0.1457275,0.05426 0.306958,0.05426 0.2216919,0 0.4154785,-0.07596 0.1937866,-0.07596 0.3627686,-0.227893 h 0.021704 z"
         style="font-size:3.175px;line-height:1.15;text-align:center;text-anchor:middle;stroke-width:0.264583"
         id="path1100" />
      <path
         d="M 8.8438667,52.688516 8.0036079,54.996902 H 7.5943305 L 6.7540718,52.688516 H 7.0827339 L 7.8067207,54.7194 8.5307075,52.688516 Z"
         style="font-size:3.175px;line-height:1.15;text-align:center;text-anchor:middle;stroke-width:0.264583"
         id="path1102" />
      <path
         d="M 10.696467,54.996902 H 9.1337715 V 54.672891 Q 9.2965522,54.533365 9.459333,54.393839 9.623664,54.254312 9.7647407,54.116336 10.062397,53.827982 10.172468,53.659 q 0.110071,-0.170533 0.110071,-0.36742 0,-0.179834 -0.119373,-0.280603 -0.117822,-0.102319 -0.3302124,-0.102319 -0.1410767,0 -0.3054077,0.04961 -0.1643311,0.04961 -0.3209107,0.151929 h -0.015503 v -0.325562 q 0.1100708,-0.05426 0.2930054,-0.09922 0.1844848,-0.04496 0.3565673,-0.04496 0.355017,0 0.556555,0.172083 0.201538,0.170532 0.201538,0.463537 0,0.131775 -0.03411,0.246497 -0.03256,0.113171 -0.09767,0.215491 -0.06046,0.09612 -0.142627,0.189135 -0.08061,0.09302 -0.196887,0.206189 -0.1658811,0.162781 -0.3426145,0.31626 -0.1767334,0.151929 -0.3302124,0.282153 h 1.2417849 z"
         style="font-size:3.175px;line-height:1.15;text-align:center;text-anchor:middle;stroke-width:0.264583"
         id="path1104" />
    </g>
    <g
       aria-label="IN+CV1"
       id="text857-5"
       style="font-size:2.46944px;line-height:1.25;font-family:sans-serif;letter-spacing:0px;word-spacing:0px;stroke-width:0.264583">
      <path
         d="M 5.1115628,73.879517 H 4.4025635 V 73.696238 H 4.6376908 V 72.267387 H 4.4025635 v -0.183279 h 0.7089993 v 0.183279 H 4.8764355 v 1.428851 h 0.2351273 z"
         style="font-size:2.46944px;fill:#ffffff;fill-opacity:1;stroke-width:0.264583"
         id="path1114" />
      <path
         d="M 6.8876786,73.879517 H 6.5922622 L 5.7409806,72.273416 v 1.606101 H 5.5179111 v -1.795409 h 0.3701748 l 0.7765232,1.46623 v -1.46623 h 0.2230695 z"
         style="font-size:2.46944px;fill:#ffffff;fill-opacity:1;stroke-width:0.264583"
         id="path1116" />
      <path
         d="M 8.8916871,73.18981 H 8.2345363 v 0.657151 H 8.0343766 V 73.18981 H 7.3772258 v -0.192925 h 0.6571508 v -0.657151 h 0.2001597 v 0.657151 h 0.6571508 z"
         style="font-size:2.46944px;fill:#ffffff;fill-opacity:1;stroke-width:0.264583"
         id="path1118" />
      <path
         d="m 10.772706,73.749292 q -0.06632,0.02894 -0.120578,0.05426 -0.05305,0.02532 -0.139871,0.05306 -0.07355,0.02291 -0.160369,0.03858 -0.08561,0.01688 -0.189307,0.01688 -0.1953369,0 -0.3557058,-0.05426 -0.1591631,-0.05547 -0.2773297,-0.172427 -0.115755,-0.114549 -0.1808672,-0.290593 -0.065112,-0.17725 -0.065112,-0.411172 0,-0.221864 0.062701,-0.396702 0.062701,-0.174838 0.1808672,-0.295416 0.1145492,-0.116961 0.2761239,-0.178456 0.1627805,-0.06149 0.3605282,-0.06149 0.144694,0 0.288182,0.03497 0.144694,0.03497 0.320738,0.12299 v 0.283358 h -0.01809 q -0.148311,-0.124195 -0.29421,-0.180867 -0.1459,-0.05667 -0.312298,-0.05667 -0.136253,0 -0.2459791,0.04461 -0.1085203,0.04341 -0.1941308,0.136253 -0.083199,0.09043 -0.1302244,0.229099 -0.04582,0.137459 -0.04582,0.318326 0,0.189308 0.050643,0.325561 0.051849,0.136253 0.1326359,0.221864 0.084405,0.08923 0.1965423,0.132636 0.1133439,0.0422 0.2387449,0.0422 0.172427,0 0.323149,-0.05908 0.150723,-0.05908 0.282153,-0.17725 h 0.01688 z"
         style="font-size:2.46944px;fill:#ffffff;fill-opacity:1;stroke-width:0.264583"
         id="path1120" />
      <path
         d="m 12.525912,72.084108 -0.653534,1.795409 h -0.318326 l -0.653533,-1.795409 h 0.255625 l 0.5631,1.579574 0.5631,-1.579574 z"
         style="font-size:2.46944px;fill:#ffffff;fill-opacity:1;stroke-width:0.264583"
         id="path1122" />
      <path
         d="M 13.864329,73.879517 H 12.89247 v -0.183279 h 0.373792 v -1.20337 H 12.89247 v -0.163986 q 0.07596,0 0.16278,-0.01206 0.08682,-0.01326 0.13143,-0.03738 0.05547,-0.03014 0.08682,-0.07596 0.03256,-0.04703 0.03738,-0.125402 h 0.186896 v 1.618159 h 0.366557 z"
         style="font-size:2.46944px;fill:#ffffff;fill-opacity:1;stroke-width:0.264583"
         id="path1124" />
    </g>
    <g
       aria-label="IN+CV2"
       id="text857-5-4"
       style="font-size:2.46944px;line-height:1.25;font-family:sans-serif;letter-spacing:0px;word-spacing:0px;stroke-width:0.264583">
      <path
         d="M 5.1119992,78.658211 H 4.4029998 V 78.474932 H 4.6381271 V 77.046081 H 4.4029998 v -0.183279 h 0.7089994 v 0.183279 H 4.8768718 v 1.428851 h 0.2351274 z"
         style="font-size:2.46944px;fill:#ffffff;fill-opacity:1;stroke-width:0.264583"
         id="path1127" />
      <path
         d="M 6.8881149,78.658211 H 6.5926985 L 5.7414169,77.05211 v 1.606101 H 5.5183474 v -1.795409 h 0.3701749 l 0.7765231,1.46623 v -1.46623 h 0.2230695 z"
         style="font-size:2.46944px;fill:#ffffff;fill-opacity:1;stroke-width:0.264583"
         id="path1129" />
      <path
         d="M 8.8921234,77.968504 H 8.2349726 v 0.657151 H 8.0348129 V 77.968504 H 7.3776621 v -0.192925 h 0.6571508 v -0.657151 h 0.2001597 v 0.657151 h 0.6571508 z"
         style="font-size:2.46944px;fill:#ffffff;fill-opacity:1;stroke-width:0.264583"
         id="path1131" />
      <path
         d="m 10.773142,78.527986 q -0.06632,0.02894 -0.120578,0.05426 -0.05305,0.02532 -0.13987,0.05305 -0.07355,0.02291 -0.160369,0.03858 -0.08561,0.01688 -0.189308,0.01688 -0.1953366,0 -0.3557055,-0.05426 -0.1591631,-0.05547 -0.2773297,-0.172427 -0.115755,-0.114549 -0.1808672,-0.290593 -0.065112,-0.17725 -0.065112,-0.411172 0,-0.221863 0.062701,-0.396702 0.062701,-0.174838 0.1808672,-0.295416 0.1145493,-0.116961 0.2761239,-0.178456 0.1627805,-0.06149 0.3605289,-0.06149 0.144693,0 0.288181,0.03497 0.144694,0.03497 0.320738,0.12299 v 0.283358 h -0.01809 q -0.148312,-0.124195 -0.294211,-0.180867 -0.1459,-0.05667 -0.312297,-0.05667 -0.136254,0 -0.2459798,0.04461 -0.1085203,0.04341 -0.1941308,0.136254 -0.083199,0.09043 -0.1302244,0.229098 -0.04582,0.137459 -0.04582,0.318326 0,0.189308 0.050643,0.325561 0.051849,0.136254 0.1326359,0.221864 0.084405,0.08923 0.1965424,0.132636 0.1133435,0.0422 0.2387445,0.0422 0.172427,0 0.32315,-0.05908 0.150722,-0.05908 0.282152,-0.17725 h 0.01688 z"
         style="font-size:2.46944px;fill:#ffffff;fill-opacity:1;stroke-width:0.264583"
         id="path1133" />
      <path
         d="m 12.526348,76.862802 -0.653533,1.795409 h -0.318327 l -0.653533,-1.795409 h 0.255626 l 0.563099,1.579574 0.5631,-1.579574 z"
         style="font-size:2.46944px;fill:#ffffff;fill-opacity:1;stroke-width:0.264583"
         id="path1135" />
      <path
         d="M 13.967257,78.658211 H 12.75183 v -0.252009 q 0.126607,-0.10852 0.253214,-0.21704 0.127812,-0.10852 0.237538,-0.215835 0.23151,-0.224275 0.317121,-0.355705 0.08561,-0.132636 0.08561,-0.285771 0,-0.13987 -0.09285,-0.218246 -0.09164,-0.07958 -0.256831,-0.07958 -0.109726,0 -0.237539,0.03858 -0.127813,0.03858 -0.249597,0.118167 h -0.01206 v -0.253214 q 0.08561,-0.0422 0.227893,-0.07717 0.143488,-0.03497 0.27733,-0.03497 0.276124,0 0.432875,0.133842 0.156752,0.132636 0.156752,0.360529 0,0.102491 -0.02653,0.191719 -0.02532,0.08802 -0.07597,0.167603 -0.04702,0.07476 -0.110931,0.147106 -0.0627,0.07235 -0.153135,0.160369 -0.129018,0.126607 -0.266477,0.245979 -0.137459,0.118167 -0.256832,0.219452 h 0.965831 z"
         style="font-size:2.46944px;fill:#ffffff;fill-opacity:1;stroke-width:0.264583"
         id="path1137" />
    </g>
  </g>
  <g
     inkscape:groupmode="layer"
     id="layer2"
     inkscape:label="components"
     style="display:none">
    <circle
       style="display:inline;fill:#0000ff;fill-opacity:1;stroke:none;stroke-width:0.162279;stroke-linejoin:round"
       id="path842-6"
       cx="7.7558603"
       cy="84.692207"
       r="3.9188602"
       inkscape:label="out1" />
    <circle
       style="display:inline;fill:#00ff00;fill-opacity:1;stroke:none;stroke-width:0.162279;stroke-linejoin:round"
       id="cir1"
       cx="7.7561889"
       cy="18.147469"
       r="3.9188602"
       inkscape:label="logicgate1" />
    <circle
       style="display:inline;fill:#00ff00;fill-opacity:1;stroke:none;stroke-width:0.162279;stroke-linejoin:round"
       id="cir1-0"
       cx="7.7558603"
       cy="32.150433"
       r="3.9188602"
       inkscape:label="in1" />
    <circle
       style="display:inline;fill:#00ff00;fill-opacity:1;stroke:none;stroke-width:0.162279;stroke-linejoin:round"
       id="cir1-0-0"
       cx="7.7558603"
       cy="46.342575"
       r="3.9188602"
       inkscape:label="cv1" />
    <circle
       style="display:inline;fill:#00ff00;fill-opacity:1;stroke:none;stroke-width:0.162279;stroke-linejoin:round"
       id="cir1-0-8"
       cx="7.7558603"
       cy="60.469093"
       r="3.9188602"
       inkscape:label="cv2" />
    <circle
       style="display:inline;fill:#ff00ff;fill-opacity:1;stroke:none;stroke-width:0.0770541;stroke-linejoin:round"
       id="path1044"
       cx="2.5873222"
       cy="72.930511"
       r="1.0880001"
       inkscape:label="incv1" />
    <circle
       style="display:inline;fill:#ff00ff;fill-opacity:1;stroke:none;stroke-width:0.0770541;stroke-linejoin:round"
       id="path1044-2"
       cx="2.5873222"
       cy="77.787506"
       r="1.0880001"
       inkscape:label="incv2"
       inkscape:transform-center-x="1.2284226"
       inkscape:transform-center-y="-3.9687501" />
  </g>
</svg>
