<?xml version="1.0" encoding="UTF-8" standalone="no"?>
<svg
   xmlns:dc="http://purl.org/dc/elements/1.1/"
   xmlns:cc="http://creativecommons.org/ns#"
   xmlns:rdf="http://www.w3.org/1999/02/22-rdf-syntax-ns#"
   xmlns:svg="http://www.w3.org/2000/svg"
   xmlns="http://www.w3.org/2000/svg"
   xmlns:sodipodi="http://sodipodi.sourceforge.net/DTD/sodipodi-0.dtd"
   xmlns:inkscape="http://www.inkscape.org/namespaces/inkscape"
   width="121.92mm"
   height="128.5mm"
   viewBox="0 0 121.92 128.5"
   version="1.1"
   id="svg8"
   inkscape:version="1.0.2-2 (e86c870879, 2021-01-15)"
   sodipodi:docname="NoteToLogic.svg">
  <defs
     id="defs2">
    <inkscape:perspective
       sodipodi:type="inkscape:persp3d"
       inkscape:vp_x="0 : 64.25 : 1"
       inkscape:vp_y="0 : 1000 : 0"
       inkscape:vp_z="81.279997 : 64.25 : 1"
       inkscape:persp3d-origin="40.639999 : 42.833333 : 1"
       id="perspective869" />
  </defs>
  <sodipodi:namedview
     id="base"
     pagecolor="#ffffff"
     bordercolor="#666666"
     borderopacity="1.0"
     inkscape:pageopacity="0.0"
     inkscape:pageshadow="2"
     inkscape:zoom="5.6568542"
     inkscape:cx="395.36684"
     inkscape:cy="127.80384"
     inkscape:document-units="mm"
     inkscape:current-layer="layer1"
     inkscape:document-rotation="0"
     showgrid="false"
     inkscape:window-width="1920"
     inkscape:window-height="1017"
     inkscape:window-x="-8"
     inkscape:window-y="-8"
     inkscape:window-maximized="1"
     showguides="true" />
  <metadata
     id="metadata5">
    <rdf:RDF>
      <cc:Work
         rdf:about="">
        <dc:format>image/svg+xml</dc:format>
        <dc:type
           rdf:resource="http://purl.org/dc/dcmitype/StillImage" />
        <dc:title></dc:title>
      </cc:Work>
    </rdf:RDF>
  </metadata>
  <g
     inkscape:label="Layer 1"
     inkscape:groupmode="layer"
     id="layer1"
     style="display:inline">
    <rect
       style="fill:#e6e6e6;fill-opacity:1;stroke:#000000;stroke-width:0.32405;stroke-linejoin:round"
       id="rect835"
       width="121.59595"
       height="128.44095"
       x="0.16202505"
       y="0.16202505" />
    <g
       aria-label="JUST LOGIC"
       id="text839"
       style="font-style:normal;font-weight:normal;font-size:4.58611px;line-height:1.25;font-family:sans-serif;letter-spacing:0px;word-spacing:0px;fill:#000000;fill-opacity:1;stroke:none;stroke-width:0.264583"
       transform="translate(20.637507,1)">
      <path
         d="M 24.847904,120.27975 V 120 h 3.256138 v 0.27975 z m 0,4.34764 v -0.29351 h 3.256138 v 0.29351 z m 1.123597,-1.82527 q 0.10548,0.40357 0.366889,0.40357 0.10548,0 0.18803,-0.0734 0.08714,-0.078 0.08714,-0.28893 v -1.72896 h 0.41275 v 1.75189 q 0,0.30268 -0.183444,0.49989 -0.183445,0.19261 -0.504472,0.19261 -0.1651,0 -0.284339,-0.0459 -0.119239,-0.0504 -0.206375,-0.13299 -0.08255,-0.0825 -0.137583,-0.19262 -0.05045,-0.11465 -0.07796,-0.24765 z"
         style="font-style:normal;font-variant:normal;font-weight:normal;font-stretch:normal;font-size:4.58611px;font-family:'INSPECTIONXPERT GDT FRAMES';-inkscape-font-specification:'INSPECTIONXPERT GDT FRAMES';stroke-width:0.264583"
         id="path925" />
      <path
         d="M 28.058176,120.27975 V 120 h 3.256138 v 0.27975 z m 0,4.34764 v -0.29351 h 3.256138 v 0.29351 z m 1.068563,-3.51755 v 1.63266 q 0,0.24765 0.155928,0.35771 0.160514,0.10548 0.403578,0.10548 0.100894,0 0.201789,-0.0183 0.10548,-0.0229 0.183444,-0.0734 0.07796,-0.055 0.128411,-0.14217 0.05045,-0.0917 0.05045,-0.2293 v -1.63266 h 0.421922 v 1.68769 q 0,0.37147 -0.24765,0.56868 -0.247649,0.19261 -0.733777,0.19261 -0.476956,0 -0.733778,-0.19261 -0.252236,-0.19721 -0.252236,-0.56868 v -1.68769 z"
         style="font-style:normal;font-variant:normal;font-weight:normal;font-stretch:normal;font-size:4.58611px;font-family:'INSPECTIONXPERT GDT FRAMES';-inkscape-font-specification:'INSPECTIONXPERT GDT FRAMES';stroke-width:0.264583"
         id="path927" />
      <path
         d="M 31.268447,120.27975 V 120 h 3.256139 v 0.27975 z m 0,4.34764 v -0.29351 h 3.256139 v 0.29351 z m 1.605139,-1.06857 q -0.1651,0 -0.302683,-0.0459 -0.137584,-0.0504 -0.243064,-0.13299 -0.105481,-0.0825 -0.178858,-0.19262 -0.06879,-0.11465 -0.09631,-0.24765 l 0.339372,-0.13758 q 0.02752,0.10089 0.07796,0.17885 0.05503,0.0734 0.119239,0.12383 0.06879,0.0504 0.14217,0.078 0.07338,0.0229 0.142169,0.0229 0.201789,0 0.307269,-0.10089 0.105481,-0.1009 0.105481,-0.25682 0,-0.11466 -0.08255,-0.18803 -0.08255,-0.0734 -0.210961,-0.133 -0.123825,-0.0596 -0.270581,-0.11924 -0.142169,-0.0596 -0.27058,-0.14676 -0.123825,-0.0871 -0.206375,-0.21096 -0.08255,-0.12841 -0.08255,-0.32561 0,-0.12841 0.05503,-0.24765 0.05962,-0.11924 0.160514,-0.21096 0.100895,-0.0917 0.238478,-0.14676 0.137583,-0.055 0.302683,-0.055 0.3302,0 0.522817,0.17886 0.197202,0.17886 0.252236,0.44026 l -0.339372,0.13759 q -0.05045,-0.20179 -0.178859,-0.30269 -0.123825,-0.10089 -0.256822,-0.10089 -0.06879,0 -0.132997,0.0275 -0.05962,0.0229 -0.110067,0.0688 -0.04586,0.0413 -0.07338,0.0963 -0.02752,0.055 -0.02752,0.11465 0,0.12841 0.08255,0.20637 0.08255,0.0734 0.206375,0.133 0.128411,0.055 0.27058,0.11007 0.146756,0.055 0.270581,0.13758 0.128411,0.0825 0.210961,0.21096 0.08255,0.12383 0.08255,0.32562 0,0.13758 -0.05962,0.26599 -0.05503,0.12841 -0.1651,0.22931 -0.10548,0.0963 -0.256822,0.15592 -0.151341,0.0596 -0.343958,0.0596 z"
         style="font-style:normal;font-variant:normal;font-weight:normal;font-stretch:normal;font-size:4.58611px;font-family:'INSPECTIONXPERT GDT FRAMES';-inkscape-font-specification:'INSPECTIONXPERT GDT FRAMES';stroke-width:0.264583"
         id="path929" />
      <path
         d="M 34.478719,120.27975 V 120 h 3.256138 v 0.27975 z m 0,4.34764 v -0.29351 h 3.256138 v 0.29351 z m 2.614083,-3.51755 v 0.36689 h -0.779639 v 2.03623 h -0.41275 v -2.03164 h -0.779638 v -0.37148 z"
         style="font-style:normal;font-variant:normal;font-weight:normal;font-stretch:normal;font-size:4.58611px;font-family:'INSPECTIONXPERT GDT FRAMES';-inkscape-font-specification:'INSPECTIONXPERT GDT FRAMES';stroke-width:0.264583"
         id="path931" />
      <path
         d="M 39.982037,120.27975 V 120 h 3.256138 v 0.27975 z m 0,4.34764 v -0.29351 h 3.256138 v 0.29351 z m 1.472141,-3.51755 v 2.04082 h 1.059392 v 0.3623 h -1.476728 v -2.40312 z"
         style="font-style:normal;font-variant:normal;font-weight:normal;font-stretch:normal;font-size:4.58611px;font-family:'INSPECTIONXPERT GDT FRAMES';-inkscape-font-specification:'INSPECTIONXPERT GDT FRAMES';stroke-width:0.264583"
         id="path933" />
      <path
         d="M 43.19231,120.27975 V 120 h 3.256138 v 0.27975 z m 0,4.34764 v -0.29351 h 3.256138 v 0.29351 z m 1.628069,-3.56341 q 0.270581,0 0.486128,0.0825 0.215547,0.0825 0.362302,0.23848 0.151342,0.15592 0.229306,0.38523 0.08255,0.22472 0.08255,0.51364 0,0.29352 -0.07338,0.53199 -0.07338,0.2339 -0.220133,0.399 -0.146756,0.1651 -0.366889,0.25682 -0.215547,0.0871 -0.504472,0.0871 -0.568678,0 -0.866775,-0.33478 -0.298097,-0.33937 -0.298097,-0.9264 0,-0.59619 0.307269,-0.91263 0.30727,-0.32103 0.862189,-0.32103 z m 0.0046,0.35313 q -0.18803,0 -0.3302,0.0642 -0.142169,0.0642 -0.238478,0.18344 -0.09172,0.11465 -0.137583,0.27975 -0.04586,0.16052 -0.04586,0.35772 0,0.18803 0.04586,0.35313 0.04586,0.16051 0.137583,0.28434 0.09631,0.12382 0.233892,0.1972 0.137583,0.0688 0.321028,0.0688 0.192616,0 0.334786,-0.0688 0.142169,-0.0688 0.233891,-0.19262 0.09172,-0.12382 0.137584,-0.28892 0.04586,-0.1651 0.04586,-0.35772 0,-0.18803 -0.05045,-0.34854 -0.04586,-0.1651 -0.137584,-0.27975 -0.09172,-0.11924 -0.229305,-0.18345 -0.137583,-0.0688 -0.321028,-0.0688 z"
         style="font-style:normal;font-variant:normal;font-weight:normal;font-stretch:normal;font-size:4.58611px;font-family:'INSPECTIONXPERT GDT FRAMES';-inkscape-font-specification:'INSPECTIONXPERT GDT FRAMES';stroke-width:0.264583"
         id="path935" />
      <path
         d="M 46.402582,120.27975 V 120 h 3.256138 v 0.27975 z m 0,4.34764 v -0.29351 h 3.256138 v 0.29351 z m 1.715205,-3.54507 q 0.348544,0 0.573264,0.15593 0.229305,0.15593 0.348544,0.41734 l -0.362303,0.16051 q -0.08714,-0.15593 -0.220133,-0.26141 -0.128411,-0.10548 -0.339372,-0.10548 -0.394406,0 -0.596194,0.23848 -0.201789,0.23389 -0.201789,0.60537 0,0.41733 0.220133,0.6604 0.224719,0.23847 0.651228,0.23847 0.119239,0 0.210961,-0.0183 0.09172,-0.0229 0.201789,-0.0688 v -0.51823 h -0.527403 l 0.09172,-0.37148 h 0.848431 v 1.0915 q -0.206375,0.13299 -0.398992,0.18803 -0.192617,0.0504 -0.435681,0.0504 -0.596194,0 -0.935566,-0.31186 -0.339372,-0.31186 -0.339372,-0.91722 0,-0.27976 0.08255,-0.50447 0.08255,-0.22931 0.238478,-0.38982 0.160513,-0.1651 0.380647,-0.25224 0.224719,-0.0871 0.509058,-0.0871 z"
         style="font-style:normal;font-variant:normal;font-weight:normal;font-stretch:normal;font-size:4.58611px;font-family:'INSPECTIONXPERT GDT FRAMES';-inkscape-font-specification:'INSPECTIONXPERT GDT FRAMES';stroke-width:0.264583"
         id="path937" />
      <path
         d="M 49.612854,120.27975 V 120 h 3.256138 v 0.27975 z m 0,4.34764 v -0.29351 h 3.256138 v 0.29351 z m 1.834444,-3.51755 v 2.40312 h -0.41275 v -2.40312 z"
         style="font-style:normal;font-variant:normal;font-weight:normal;font-stretch:normal;font-size:4.58611px;font-family:'INSPECTIONXPERT GDT FRAMES';-inkscape-font-specification:'INSPECTIONXPERT GDT FRAMES';stroke-width:0.264583"
         id="path939" />
      <path
         d="M 52.823125,120.27975 V 120 h 3.256139 v 0.27975 z m 0,4.34764 v -0.29351 h 3.256139 v 0.29351 z m 1.696861,-1.06857 q -0.284339,0 -0.509058,-0.0917 -0.224719,-0.0917 -0.385233,-0.25682 -0.155928,-0.1651 -0.238478,-0.39441 -0.08255,-0.23389 -0.08255,-0.51364 0,-0.27975 0.08255,-0.50447 0.08255,-0.22931 0.238478,-0.38524 0.160514,-0.16051 0.385233,-0.24306 0.224719,-0.0871 0.509058,-0.0871 0.343958,0 0.573264,0.15135 0.229305,0.15134 0.366889,0.44485 l -0.339372,0.16051 q -0.105481,-0.19261 -0.24765,-0.28892 -0.14217,-0.1009 -0.353131,-0.1009 -0.380647,0 -0.582436,0.23389 -0.197203,0.22931 -0.197203,0.60078 0,0.18804 0.05045,0.35314 0.05045,0.1651 0.146755,0.28892 0.100895,0.12383 0.24765,0.1972 0.146756,0.0688 0.334786,0.0688 0.210961,0 0.353131,-0.0963 0.142169,-0.1009 0.24765,-0.29351 l 0.339372,0.16051 q -0.137584,0.29351 -0.366889,0.44485 -0.229306,0.15134 -0.573264,0.15134 z"
         style="font-style:normal;font-variant:normal;font-weight:normal;font-stretch:normal;font-size:4.58611px;font-family:'INSPECTIONXPERT GDT FRAMES';-inkscape-font-specification:'INSPECTIONXPERT GDT FRAMES';stroke-width:0.264583"
         id="path941" />
    </g>
    <rect
       style="fill:#000000;fill-opacity:1;stroke:none;stroke-width:0.343;stroke-linejoin:round;stroke-miterlimit:4;stroke-dasharray:none"
       id="rect867"
       width="25.006582"
       height="101.19505"
       x="95"
       y="15.221618"
       ry="4.4909048" />
    <text
       xml:space="preserve"
       style="font-style:normal;font-weight:normal;font-size:10.5833px;line-height:1.25;font-family:sans-serif;letter-spacing:0px;word-spacing:0px;fill:#000000;fill-opacity:1;stroke:none;stroke-width:0.264583"
       x="70.643745"
       y="-1.0583333"
       id="text963"><tspan
         sodipodi:role="line"
         id="tspan961"
         x="70.643745"
         y="-1.0583333"
         style="stroke-width:0.264583" /></text>
    <g
       aria-label="NOTE"
       id="text980"
       style="font-size:3.52778px;line-height:1.25;font-family:sans-serif;letter-spacing:0px;word-spacing:0px;stroke-width:0.264583"
       transform="translate(-6.9405757)">
      <path
         d="M 25.055493,20.618275 H 24.633468 L 23.417349,18.32384 v 2.294435 H 23.098677 V 18.053399 H 23.6275 l 1.109321,2.09462 v -2.09462 h 0.318672 z"
         style="font-size:3.52778px;stroke-width:0.264583"
         id="path1019" />
      <path
         d="m 27.649651,18.347955 q 0.156752,0.172255 0.239435,0.422025 0.08441,0.249769 0.08441,0.566718 0,0.316949 -0.08613,0.568441 -0.08441,0.24977 -0.237712,0.416857 -0.158474,0.173978 -0.375515,0.261828 -0.215319,0.08785 -0.492649,0.08785 -0.27044,0 -0.492649,-0.08957 -0.220486,-0.08957 -0.375516,-0.260105 -0.155029,-0.170532 -0.239434,-0.418579 -0.08268,-0.248047 -0.08268,-0.566719 0,-0.313504 0.08268,-0.561551 0.08268,-0.249769 0.241157,-0.427192 0.151584,-0.168809 0.375515,-0.258382 Q 26.516214,18 26.781487,18 q 0.275608,0 0.494371,0.0913 0.220487,0.08957 0.373793,0.256659 z m -0.03101,0.988743 q 0,-0.499539 -0.223932,-0.769979 -0.223931,-0.272163 -0.611505,-0.272163 -0.391018,0 -0.61495,0.272163 -0.222208,0.27044 -0.222208,0.769979 0,0.504707 0.227376,0.773425 0.227377,0.266995 0.609782,0.266995 0.382406,0 0.60806,-0.266995 0.227377,-0.268718 0.227377,-0.773425 z"
         style="font-size:3.52778px;stroke-width:0.264583"
         id="path1021" />
      <path
         d="m 30.25759,18.356568 h -0.916396 v 2.261707 H 29.00013 v -2.261707 h -0.916396 v -0.303169 h 2.173856 z"
         style="font-size:3.52778px;stroke-width:0.264583"
         id="path1023" />
      <path
         d="M 32.29192,20.618275 H 30.6021 v -2.564876 h 1.68982 v 0.303169 h -1.348755 v 0.7028 h 1.348755 v 0.303169 h -1.348755 v 0.952569 h 1.348755 z"
         style="font-size:3.52778px;stroke-width:0.264583"
         id="path1025" />
    </g>
    <g
       aria-label="IN"
       id="text1008"
       style="font-size:4.5861px;line-height:1.25;font-family:sans-serif;letter-spacing:0px;word-spacing:0px;stroke-width:0.264583"
       transform="translate(-2.6458334)">
      <path
         d="M 8.5425524,20.564875 H 7.5296937 v -0.261828 h 0.335897 v -2.04122 h -0.335897 v -0.261828 h 1.0128587 v 0.261828 h -0.335897 v 2.04122 h 0.335897 z"
         style="font-size:3.52778px;stroke-width:0.264583"
         id="path1014" />
      <path
         d="M 11.079867,20.564875 H 10.657842 L 9.4417229,18.27044 v 2.294435 H 9.1230513 v -2.564876 h 0.5288225 l 1.1093212,2.09462 v -2.09462 h 0.318672 z"
         style="font-size:3.52778px;stroke-width:0.264583"
         id="path1016" />
    </g>
    <g
       aria-label="D"
       id="text903-6"
       style="font-style:normal;font-weight:normal;font-size:10.5833px;line-height:1.25;font-family:sans-serif;letter-spacing:0px;word-spacing:0px;fill:#000000;fill-opacity:1;stroke:none;stroke-width:0.264583"
       transform="translate(0.33072915,0.36380208)" />
    <g
       aria-label="OCTAVE"
       id="text936"
       style="font-style:normal;font-weight:normal;font-size:10.5833px;line-height:1.25;font-family:sans-serif;letter-spacing:0px;word-spacing:0px;fill:#000000;fill-opacity:1;stroke:none;stroke-width:0.264583"
       transform="translate(-9.7893346)">
      <path
         d="m 42.827357,19.370457 q 0,0.363802 -0.08682,0.628385 -0.08475,0.264583 -0.23151,0.438216 -0.144694,0.171565 -0.341065,0.256315 -0.194303,0.08268 -0.411344,0.08268 -0.260449,0 -0.454752,-0.09302 -0.192236,-0.09508 -0.320393,-0.272851 -0.126091,-0.177767 -0.188103,-0.432015 -0.06201,-0.256315 -0.06201,-0.576708 0,-0.359668 0.08475,-0.624251 0.08475,-0.264583 0.229443,-0.436149 0.146761,-0.173632 0.341064,-0.256315 0.194304,-0.08475 0.411344,-0.08475 0.260449,0 0.452686,0.09509 0.194303,0.09508 0.32246,0.272851 0.128158,0.1757 0.190169,0.429948 0.06408,0.254247 0.06408,0.572574 z m -0.382405,0.02687 q 0,-0.237712 -0.03721,-0.434082 -0.03514,-0.198437 -0.115755,-0.341064 -0.08062,-0.142627 -0.208773,-0.221175 -0.12609,-0.07855 -0.305924,-0.07855 -0.173633,0 -0.299723,0.08475 -0.124023,0.08268 -0.204639,0.227376 -0.08062,0.142627 -0.119889,0.33693 -0.03927,0.192236 -0.03927,0.409277 0,0.239779 0.03721,0.438216 0.03721,0.19637 0.115755,0.338997 0.08061,0.14056 0.206706,0.219108 0.12609,0.07855 0.303857,0.07855 0.173633,0 0.299723,-0.08268 0.12609,-0.08475 0.206706,-0.227376 0.08268,-0.144694 0.121956,-0.33693 0.03927,-0.192236 0.03927,-0.411344 z"
         style="font-style:normal;font-variant:normal;font-weight:normal;font-stretch:normal;font-size:4.23333px;font-family:Consolas;-inkscape-font-specification:Consolas;stroke-width:0.264583"
         id="path952" />
      <path
         d="m 44.997766,20.637562 q -0.324528,0.134359 -0.680062,0.134359 -0.572574,0 -0.880565,-0.341065 -0.305925,-0.343131 -0.305925,-1.012857 0,-0.324527 0.08475,-0.587044 0.08475,-0.262516 0.241845,-0.444416 0.157096,-0.183968 0.380338,-0.283187 0.223242,-0.09922 0.500228,-0.09922 0.188102,0 0.349332,0.03307 0.161231,0.03101 0.310059,0.09715 v 0.361734 q -0.146761,-0.08062 -0.303858,-0.121956 -0.157096,-0.04341 -0.343131,-0.04341 -0.190169,0 -0.345198,0.07235 -0.152962,0.07028 -0.260449,0.206706 -0.107487,0.134358 -0.165365,0.330728 -0.05788,0.194304 -0.05788,0.444417 0,0.525032 0.212907,0.791683 0.212906,0.26665 0.62425,0.26665 0.173633,0 0.332796,-0.03927 0.159164,-0.04134 0.305925,-0.113688 z"
         style="font-style:normal;font-variant:normal;font-weight:normal;font-stretch:normal;font-size:4.23333px;font-family:Consolas;-inkscape-font-specification:Consolas;stroke-width:0.264583"
         id="path954" />
      <path
         d="m 47.418288,18.351399 h -0.799951 v 2.387449 h -0.37207 v -2.387449 h -0.79995 v -0.314193 h 1.971971 z"
         style="font-style:normal;font-variant:normal;font-weight:normal;font-stretch:normal;font-size:4.23333px;font-family:Consolas;-inkscape-font-specification:Consolas;stroke-width:0.264583"
         id="path956" />
      <path
         d="M 49.902889,20.738848 H 49.50188 l -0.188102,-0.589111 h -1.124479 l -0.190169,0.589111 h -0.382405 l 0.897102,-2.701642 h 0.504362 z m -0.694531,-0.917773 -0.456819,-1.444872 -0.45682,1.444872 z"
         style="font-style:normal;font-variant:normal;font-weight:normal;font-stretch:normal;font-size:4.23333px;font-family:Consolas;-inkscape-font-specification:Consolas;stroke-width:0.264583"
         id="path958" />
      <path
         d="m 52.242796,18.037206 -0.917773,2.701642 H 50.82893 l -0.897103,-2.701642 h 0.415479 l 0.582909,1.821076 0.165365,0.5333 0.169498,-0.5333 0.584977,-1.821076 z"
         style="font-style:normal;font-variant:normal;font-weight:normal;font-stretch:normal;font-size:4.23333px;font-family:Consolas;-inkscape-font-specification:Consolas;stroke-width:0.264583"
         id="path960" />
      <path
         d="m 54.202365,20.738848 h -1.535823 v -2.701642 h 1.535823 v 0.310058 h -1.167887 v 0.837158 h 1.122412 v 0.310058 h -1.122412 v 0.930175 h 1.167887 z"
         style="font-style:normal;font-variant:normal;font-weight:normal;font-stretch:normal;font-size:4.23333px;font-family:Consolas;-inkscape-font-specification:Consolas;stroke-width:0.264583"
         id="path962" />
    </g>
    <g
       aria-label="NOTE TO LOGIC"
       id="text935"
       style="font-style:normal;font-weight:normal;font-size:5.64444px;line-height:1.25;font-family:sans-serif;letter-spacing:0px;word-spacing:0px;fill:#000000;fill-opacity:1;stroke:none;stroke-width:0.264583">
      <path
         d="M 43.523946,6.6517982 H 42.884537 L 41.834472,4.4055977 41.531304,3.6835062 v 1.816253 1.152039 H 41.073796 V 3.0496091 h 0.631141 l 1.000455,2.1276894 0.361045,0.8240662 V 4.0721127 3.0496091 h 0.457509 z"
         style="font-style:normal;font-variant:normal;font-weight:normal;font-stretch:normal;font-size:5.64444px;font-family:Consolas;-inkscape-font-specification:Consolas;stroke-width:0.264583"
         id="path1065" />
      <path
         d="m 46.800918,4.8272771 q 0,0.485069 -0.115755,0.8378465 -0.112999,0.3527776 -0.30868,0.5842878 -0.192925,0.2287542 -0.454753,0.3417532 -0.259071,0.110243 -0.548458,0.110243 -0.347266,0 -0.606337,-0.1240234 Q 44.51062,6.4506048 44.339744,6.2135824 44.171623,5.97656 44.088941,5.6375629 q -0.08268,-0.3417532 -0.08268,-0.7689447 0,-0.479557 0.112999,-0.8323345 0.112999,-0.3527775 0.305924,-0.5815316 0.195681,-0.2315103 0.454752,-0.3417533 0.259071,-0.112999 0.548459,-0.112999 0.347266,0 0.60358,0.1267794 0.259071,0.1267794 0.429948,0.3638018 0.170877,0.2342663 0.253559,0.5732635 0.08544,0.3389971 0.08544,0.7634326 z m -0.509874,0.035829 q 0,-0.3169485 -0.04961,-0.5787756 -0.04685,-0.2645831 -0.15434,-0.4547522 -0.107487,-0.1901692 -0.278364,-0.2949 -0.16812,-0.1047308 -0.407899,-0.1047308 -0.23151,0 -0.39963,0.112999 -0.165365,0.110243 -0.272852,0.3031682 -0.107487,0.1901691 -0.159852,0.4492401 -0.05236,0.2563149 -0.05236,0.5457027 0,0.3197046 0.04961,0.5842878 0.04961,0.261827 0.15434,0.4519962 0.107487,0.187413 0.275607,0.2921438 0.168121,0.1047309 0.405143,0.1047309 0.231511,0 0.399631,-0.110243 0.168121,-0.112999 0.275608,-0.3031682 0.110243,-0.1929252 0.162608,-0.4492401 0.05237,-0.2563149 0.05237,-0.5484588 z"
         style="font-style:normal;font-variant:normal;font-weight:normal;font-stretch:normal;font-size:5.64444px;font-family:Consolas;-inkscape-font-specification:Consolas;stroke-width:0.264583"
         id="path1067" />
      <path
         d="M 49.81882,3.4685324 H 48.752219 V 6.6517982 H 48.256125 V 3.4685324 h -1.0666 V 3.0496091 h 2.629295 z"
         style="font-style:normal;font-variant:normal;font-weight:normal;font-stretch:normal;font-size:5.64444px;font-family:Consolas;-inkscape-font-specification:Consolas;stroke-width:0.264583"
         id="path1069" />
      <path
         d="M 52.657576,6.6517982 H 50.609812 V 3.0496091 h 2.047764 v 0.4134112 h -1.557182 v 1.1162101 h 1.496548 V 4.9926415 H 51.100394 V 6.232875 h 1.557182 z"
         style="font-style:normal;font-variant:normal;font-weight:normal;font-stretch:normal;font-size:5.64444px;font-family:Consolas;-inkscape-font-specification:Consolas;stroke-width:0.264583"
         id="path1071" />
      <path
         d="M 59.128839,3.4685324 H 58.062238 V 6.6517982 H 57.566145 V 3.4685324 H 56.499544 V 3.0496091 h 2.629295 z"
         style="font-style:normal;font-variant:normal;font-weight:normal;font-stretch:normal;font-size:5.64444px;font-family:Consolas;-inkscape-font-specification:Consolas;stroke-width:0.264583"
         id="path1073" />
      <path
         d="m 62.317616,4.8272771 q 0,0.485069 -0.115756,0.8378465 -0.112999,0.3527776 -0.30868,0.5842878 -0.192925,0.2287542 -0.454752,0.3417532 -0.259071,0.110243 -0.548459,0.110243 -0.347265,0 -0.606336,-0.1240234 Q 60.027318,6.4506048 59.856441,6.2135824 59.688321,5.97656 59.605638,5.6375629 q -0.08268,-0.3417532 -0.08268,-0.7689447 0,-0.479557 0.112999,-0.8323345 0.112999,-0.3527775 0.305925,-0.5815316 0.195681,-0.2315103 0.454752,-0.3417533 0.259071,-0.112999 0.548459,-0.112999 0.347265,0 0.60358,0.1267794 0.259071,0.1267794 0.429947,0.3638018 0.170877,0.2342663 0.253559,0.5732635 0.08544,0.3389971 0.08544,0.7634326 z m -0.509874,0.035829 q 0,-0.3169485 -0.04961,-0.5787756 -0.04685,-0.2645831 -0.15434,-0.4547522 -0.107487,-0.1901692 -0.278363,-0.2949 -0.168121,-0.1047308 -0.407899,-0.1047308 -0.23151,0 -0.399631,0.112999 -0.165364,0.110243 -0.272851,0.3031682 -0.107487,0.1901691 -0.159853,0.4492401 -0.05237,0.2563149 -0.05237,0.5457027 0,0.3197046 0.04961,0.5842878 0.04961,0.261827 0.15434,0.4519962 0.107487,0.187413 0.275608,0.2921438 0.16812,0.1047309 0.405143,0.1047309 0.23151,0 0.399631,-0.110243 0.16812,-0.112999 0.275607,-0.3031682 0.110243,-0.1929252 0.162608,-0.4492401 0.05237,-0.2563149 0.05237,-0.5484588 z"
         style="font-style:normal;font-variant:normal;font-weight:normal;font-stretch:normal;font-size:5.64444px;font-family:Consolas;-inkscape-font-specification:Consolas;stroke-width:0.264583"
         id="path1075" />
      <path
         d="M 68.287273,6.6517982 H 66.214706 V 3.0496091 h 0.498849 V 6.232875 h 1.573718 z"
         style="font-style:normal;font-variant:normal;font-weight:normal;font-stretch:normal;font-size:5.64444px;font-family:Consolas;-inkscape-font-specification:Consolas;stroke-width:0.264583"
         id="path1077" />
      <path
         d="m 71.627636,4.8272771 q 0,0.485069 -0.115755,0.8378465 -0.112999,0.3527776 -0.30868,0.5842878 -0.192926,0.2287542 -0.454753,0.3417532 -0.259071,0.110243 -0.548458,0.110243 -0.347266,0 -0.606337,-0.1240234 Q 69.337338,6.4506048 69.166462,6.2135824 68.998341,5.97656 68.915659,5.6375629 q -0.08268,-0.3417532 -0.08268,-0.7689447 0,-0.479557 0.112999,-0.8323345 0.112999,-0.3527775 0.305924,-0.5815316 0.195681,-0.2315103 0.454752,-0.3417533 0.259071,-0.112999 0.548459,-0.112999 0.347265,0 0.60358,0.1267794 0.259071,0.1267794 0.429948,0.3638018 0.170876,0.2342663 0.253559,0.5732635 0.08544,0.3389971 0.08544,0.7634326 z m -0.509874,0.035829 q 0,-0.3169485 -0.04961,-0.5787756 -0.04685,-0.2645831 -0.15434,-0.4547522 -0.107487,-0.1901692 -0.278364,-0.2949 -0.16812,-0.1047308 -0.407899,-0.1047308 -0.23151,0 -0.399631,0.112999 -0.165364,0.110243 -0.272851,0.3031682 -0.107487,0.1901691 -0.159852,0.4492401 -0.05237,0.2563149 -0.05237,0.5457027 0,0.3197046 0.04961,0.5842878 0.04961,0.261827 0.15434,0.4519962 0.107487,0.187413 0.275607,0.2921438 0.168121,0.1047309 0.405143,0.1047309 0.231511,0 0.399631,-0.110243 0.168121,-0.112999 0.275607,-0.3031682 0.110243,-0.1929252 0.162609,-0.4492401 0.05236,-0.2563149 0.05236,-0.5484588 z"
         style="font-style:normal;font-variant:normal;font-weight:normal;font-stretch:normal;font-size:5.64444px;font-family:Consolas;-inkscape-font-specification:Consolas;stroke-width:0.264583"
         id="path1079" />
      <path
         d="M 74.551831,3.6669698 Q 74.350638,3.5594829 74.13842,3.5016053 73.926202,3.4409717 73.6754,3.4409717 q -0.286632,0 -0.509874,0.1019747 -0.223242,0.1019748 -0.377582,0.2893878 -0.151584,0.184657 -0.234267,0.4464841 -0.07993,0.261827 -0.07993,0.5787756 0,0.3307289 0.06615,0.592556 0.06615,0.261827 0.206706,0.4437279 0.140559,0.1819009 0.358289,0.2783635 0.220486,0.096463 0.526411,0.096463 0.05236,0 0.112999,-0.00551 0.06063,-0.00551 0.121267,-0.01378 0.06063,-0.011024 0.115755,-0.024805 0.05788,-0.01378 0.101975,-0.030317 V 5.047763 H 73.347427 V 4.6426201 h 1.220941 v 1.8410576 q -0.112999,0.052365 -0.239779,0.093706 -0.124023,0.041341 -0.256315,0.068902 -0.129535,0.027561 -0.259071,0.041341 -0.129535,0.01378 -0.250802,0.01378 -0.369314,0 -0.66697,-0.1157551 -0.2949,-0.1157552 -0.504362,-0.3417532 -0.206705,-0.2287542 -0.319705,-0.5677514 -0.110243,-0.3389971 -0.110243,-0.7854811 0,-0.443728 0.124024,-0.7937494 0.124023,-0.3527775 0.347265,-0.5953121 0.225998,-0.2452906 0.540191,-0.37207 0.316948,-0.1295355 0.697287,-0.1295355 0.242534,0 0.460264,0.044097 0.220486,0.041341 0.421679,0.1350476 z"
         style="font-style:normal;font-variant:normal;font-weight:normal;font-stretch:normal;font-size:5.64444px;font-family:Consolas;-inkscape-font-specification:Consolas;stroke-width:0.264583"
         id="path1081" />
      <path
         d="M 76.186184,3.4630203 H 75.356606 V 3.0496091 h 2.15525 V 3.4630203 H 76.682277 V 6.232875 h 0.829579 v 0.4189232 h -2.15525 V 6.232875 h 0.829578 z"
         style="font-style:normal;font-variant:normal;font-weight:normal;font-stretch:normal;font-size:5.64444px;font-family:Consolas;-inkscape-font-specification:Consolas;stroke-width:0.264583"
         id="path1083" />
      <path
         d="m 80.728191,6.5167506 q -0.432704,0.1791448 -0.906748,0.1791448 -0.763433,0 -1.174088,-0.4547522 -0.407899,-0.4575084 -0.407899,-1.3504764 0,-0.4327037 0.112999,-0.7827251 0.112999,-0.3500215 0.322461,-0.592556 0.209461,-0.2452906 0.507117,-0.3775822 0.297656,-0.1322916 0.66697,-0.1322916 0.250803,0 0.465777,0.044097 0.214974,0.041341 0.413411,0.1295355 v 0.482313 Q 80.53251,3.5539707 80.323048,3.4988492 80.113586,3.4409717 79.86554,3.4409717 q -0.253559,0 -0.460265,0.096463 -0.203949,0.093706 -0.347265,0.2756074 -0.143316,0.1791448 -0.220486,0.4409719 -0.07717,0.259071 -0.07717,0.592556 0,0.7000429 0.283876,1.0555764 0.283875,0.3555336 0.832334,0.3555336 0.23151,0 0.443728,-0.052365 0.212218,-0.055122 0.407899,-0.1515841 z"
         style="font-style:normal;font-variant:normal;font-weight:normal;font-stretch:normal;font-size:5.64444px;font-family:Consolas;-inkscape-font-specification:Consolas;stroke-width:0.264583"
         id="path1085" />
    </g>
    <g
       aria-label="COMP"
       id="text991"
       style="font-style:normal;font-weight:normal;font-size:10.5833px;line-height:1.25;font-family:sans-serif;letter-spacing:0px;word-spacing:0px;fill:#000000;fill-opacity:1;stroke:none;stroke-width:0.264583">
      <path
         d="m 51.152948,20.918682 q -0.113688,0.04961 -0.206706,0.09302 -0.09095,0.04341 -0.239778,0.09095 -0.12609,0.03927 -0.274918,0.06615 -0.146761,0.02894 -0.324528,0.02894 -0.334863,0 -0.609782,-0.09302 -0.272851,-0.09509 -0.475422,-0.295589 -0.198438,-0.19637 -0.310059,-0.49816 -0.111621,-0.303858 -0.111621,-0.704866 0,-0.380339 0.107487,-0.680062 0.107487,-0.299723 0.310059,-0.506428 0.19637,-0.200505 0.473355,-0.305924 0.279053,-0.10542 0.61805,-0.10542 0.248047,0 0.494026,0.05994 0.248047,0.05995 0.549837,0.21084 v 0.485758 h -0.03101 q -0.254248,-0.212907 -0.504361,-0.310058 -0.250114,-0.09715 -0.535368,-0.09715 -0.233577,0 -0.421679,0.07648 -0.186035,0.07441 -0.332796,0.233577 -0.142627,0.15503 -0.223242,0.392741 -0.07855,0.235644 -0.07855,0.545703 0,0.324527 0.08682,0.558105 0.08888,0.233577 0.227376,0.380338 0.144694,0.152962 0.33693,0.227376 0.194303,0.07235 0.409277,0.07235 0.295589,0 0.553971,-0.101286 0.258382,-0.101286 0.483691,-0.303857 h 0.02894 z"
         style="font-size:4.23333px;stroke-width:0.264583"
         id="path1050" />
      <path
         d="m 54.026155,18.417545 q 0.188102,0.206705 0.287321,0.506428 0.101286,0.299723 0.101286,0.680062 0,0.380338 -0.103353,0.682128 -0.101286,0.299723 -0.285254,0.500227 -0.190169,0.208773 -0.450618,0.314193 -0.258382,0.10542 -0.591178,0.10542 -0.324528,0 -0.591178,-0.107487 -0.264583,-0.107487 -0.450618,-0.312126 -0.186035,-0.204638 -0.287321,-0.502294 -0.09922,-0.297656 -0.09922,-0.680061 0,-0.376205 0.09922,-0.673861 0.09922,-0.299723 0.289388,-0.512629 0.181901,-0.202572 0.450618,-0.310059 0.270785,-0.107487 0.589111,-0.107487 0.330729,0 0.593245,0.109554 0.264583,0.107487 0.448551,0.307992 z m -0.03721,1.18649 q 0,-0.599447 -0.268717,-0.923974 -0.268717,-0.326595 -0.733805,-0.326595 -0.469221,0 -0.737939,0.326595 -0.26665,0.324527 -0.26665,0.923974 0,0.605647 0.272852,0.928108 0.272851,0.320393 0.731737,0.320393 0.458887,0 0.729671,-0.320393 0.272851,-0.322461 0.272851,-0.928108 z"
         style="font-size:4.23333px;stroke-width:0.264583"
         id="path1052" />
      <path
         d="m 57.804733,21.141924 h -0.409277 v -2.652032 l -0.855761,1.804539 h -0.243913 l -0.84956,-1.804539 v 2.652032 h -0.382405 v -3.077846 h 0.558105 l 0.820621,1.713589 0.793749,-1.713589 h 0.568441 z"
         style="font-size:4.23333px;stroke-width:0.264583"
         id="path1054" />
      <path
         d="m 60.644867,18.994253 q 0,0.204639 -0.07235,0.380338 -0.07028,0.173633 -0.198438,0.301791 -0.159163,0.159163 -0.376204,0.239778 -0.217041,0.07855 -0.547769,0.07855 h -0.409277 v 1.147216 h -0.409277 v -3.077846 h 0.83509 q 0.276985,0 0.469222,0.04754 0.192236,0.04548 0.341064,0.144694 0.1757,0.117823 0.270784,0.293522 0.09715,0.1757 0.09715,0.444417 z m -0.425814,0.01033 q 0,-0.159163 -0.05581,-0.276985 -0.05581,-0.117822 -0.169499,-0.192236 -0.09922,-0.06408 -0.227376,-0.09095 -0.12609,-0.02894 -0.320394,-0.02894 h -0.405142 v 1.229898 h 0.345198 q 0.248047,0 0.403076,-0.04341 0.155029,-0.04548 0.25218,-0.142627 0.09715,-0.09922 0.136426,-0.208773 0.04134,-0.109554 0.04134,-0.24598 z"
         style="font-size:4.23333px;stroke-width:0.264583"
         id="path1056" />
    </g>
    <g
       aria-label="Q"
       id="text991-0"
       style="font-style:normal;font-weight:normal;font-size:10.5833px;line-height:1.25;font-family:sans-serif;letter-spacing:0px;word-spacing:0px;fill:#ffffff;fill-opacity:1;stroke:none;stroke-width:0.264583"
       transform="translate(0.74835468)">
      <path
         d="m 101.78174,21.896399 q -0.12402,0.03101 -0.24598,0.04341 -0.11988,0.01447 -0.24597,0.01447 -0.35967,0 -0.57878,-0.198438 -0.21704,-0.19637 -0.23564,-0.564306 -0.0496,0.0083 -0.0972,0.01034 -0.0455,0.0041 -0.0889,0.0041 -0.324528,0 -0.591178,-0.107487 -0.264583,-0.107487 -0.450618,-0.312126 -0.186035,-0.204638 -0.287321,-0.502294 -0.09922,-0.297656 -0.09922,-0.680061 0,-0.376205 0.09922,-0.673861 0.09922,-0.299723 0.289388,-0.512629 0.181901,-0.202572 0.450618,-0.310059 0.270785,-0.107487 0.589111,-0.107487 0.33073,0 0.59325,0.109554 0.26458,0.107487 0.44855,0.307992 0.1881,0.206705 0.28732,0.506428 0.10128,0.299723 0.10128,0.680062 0,0.564306 -0.23151,0.950845 -0.22944,0.38654 -0.61805,0.541569 0.008,0.235644 0.11162,0.365869 0.10336,0.130224 0.37621,0.130224 0.0847,0 0.2005,-0.02687 0.11782,-0.0248 0.16743,-0.04547 h 0.0558 z m -0.48782,-2.292364 q 0,-0.599447 -0.26872,-0.923974 -0.26872,-0.326595 -0.7338,-0.326595 -0.469224,0 -0.737942,0.326595 -0.26665,0.324527 -0.26665,0.923974 0,0.605647 0.272852,0.928108 0.272851,0.320393 0.73174,0.320393 0.45888,0 0.72967,-0.320393 0.27285,-0.322461 0.27285,-0.928108 z"
         style="font-size:4.23333px;fill:#ffffff;fill-opacity:1;stroke-width:0.264583"
         id="path1059" />
    </g>
    <g
       aria-label="Q"
       id="text991-0-5"
       style="font-style:normal;font-weight:normal;font-size:10.5833px;line-height:1.25;font-family:sans-serif;letter-spacing:0px;word-spacing:0px;fill:#ffffff;fill-opacity:1;stroke:none;stroke-width:0.264583"
       transform="translate(-1.2628487)">
      <path
         d="m 115.95863,21.896399 q -0.12402,0.03101 -0.24598,0.04341 -0.11989,0.01447 -0.24598,0.01447 -0.35967,0 -0.57877,-0.198438 -0.21704,-0.19637 -0.23565,-0.564306 -0.0496,0.0083 -0.0971,0.01034 -0.0455,0.0041 -0.0889,0.0041 -0.32453,0 -0.59118,-0.107487 -0.26458,-0.107487 -0.45062,-0.312126 -0.18603,-0.204638 -0.28732,-0.502294 -0.0992,-0.297656 -0.0992,-0.680061 0,-0.376205 0.0992,-0.673861 0.0992,-0.299723 0.28939,-0.512629 0.1819,-0.202572 0.45062,-0.310059 0.27078,-0.107487 0.58911,-0.107487 0.33073,0 0.59324,0.109554 0.26459,0.107487 0.44855,0.307992 0.18811,0.206705 0.28732,0.506428 0.10129,0.299723 0.10129,0.680062 0,0.564306 -0.23151,0.950845 -0.22944,0.38654 -0.61805,0.541569 0.008,0.235644 0.11162,0.365869 0.10335,0.130224 0.37621,0.130224 0.0847,0 0.2005,-0.02687 0.11782,-0.0248 0.16743,-0.04547 h 0.0558 z m -0.48782,-2.292364 q 0,-0.599447 -0.26872,-0.923974 -0.26872,-0.326595 -0.73381,-0.326595 -0.46922,0 -0.73793,0.326595 -0.26665,0.324527 -0.26665,0.923974 0,0.605647 0.27285,0.928108 0.27285,0.320393 0.73173,0.320393 0.45889,0 0.72968,-0.320393 0.27285,-0.322461 0.27285,-0.928108 z"
         style="font-size:4.23333px;fill:#ffffff;fill-opacity:1;stroke-width:0.264583"
         id="path1062" />
    </g>
    <rect
       style="display:inline;fill:#ffffff;fill-opacity:1;stroke:none;stroke-width:0.143625;stroke-linejoin:round"
       id="rect1041"
       width="2.9200001"
       height="0.5"
       x="111.73589"
       y="16.931522" />
    <g
       aria-label="MAIN"
       id="text1048"
       style="font-style:normal;font-weight:normal;font-size:10.5833px;line-height:1.25;font-family:sans-serif;letter-spacing:0px;word-spacing:0px;fill:#000000;fill-opacity:1;stroke:none;stroke-width:0.264583">
      <path
         d="M 5.6027722,25.724689 H 5.3299208 V 23.956668 L 4.7594134,25.159694 H 4.596805 L 4.0304318,23.956668 v 1.768021 H 3.7754949 v -2.051897 h 0.37207 l 0.5470808,1.142393 0.5291662,-1.142393 h 0.3789603 z"
         style="font-size:2.82222px;stroke-width:0.264583"
         id="path1108" />
      <path
         d="M 7.7718026,25.724689 H 7.4810368 L 7.2798434,25.152804 H 6.3923874 L 6.191194,25.724689 H 5.9142085 L 6.6611047,23.672792 H 7.0249065 Z M 7.1957831,24.918538 6.8361154,23.911193 6.4750697,24.918538 Z"
         style="font-size:2.82222px;stroke-width:0.264583"
         id="path1110" />
      <path
         d="M 8.8067084,25.724689 H 7.9964226 V 25.515228 H 8.2651398 V 23.882254 H 7.9964226 v -0.209462 h 0.8102858 v 0.209462 H 8.5379912 v 1.632974 h 0.2687172 z"
         style="font-size:2.82222px;stroke-width:0.264583"
         id="path1112" />
      <path
         d="M 10.836557,25.724689 H 10.498938 L 9.5260439,23.889144 v 1.835545 H 9.271107 v -2.051897 h 0.4230574 l 0.8874556,1.675693 v -1.675693 h 0.254937 z"
         style="font-size:2.82222px;stroke-width:0.264583"
         id="path1114" />
    </g>
    <rect
       style="display:inline;fill:none;fill-opacity:1;stroke:#000000;stroke-width:0.398446;stroke-linejoin:round;stroke-miterlimit:4;stroke-dasharray:none;stroke-opacity:1"
       id="rect867-8"
       width="13.122467"
       height="14.939874"
       x="1.4946265"
       y="22.227707"
       ry="1.8055135" />
  </g>
  <g
     inkscape:groupmode="layer"
     id="layer2"
     inkscape:label="components"
     style="display:none">
    <circle
       style="fill:#00ff00;fill-opacity:1;stroke:none;stroke-width:0.162279;stroke-linejoin:round"
       id="cir1"
       cx="7.307085"
       cy="30.918859"
       r="3.9188602"
       inkscape:label="pitch1" />
    <circle
       style="fill:#0000ff;fill-opacity:1;stroke:none;stroke-width:0.162279;stroke-linejoin:round"
       id="path842-6"
       cx="101.41886"
       cy="30.918859"
       r="3.9188602"
       inkscape:label="logicout1" />
    <circle
       style="fill:#ff0000;fill-opacity:1;stroke:none;stroke-width:0.207049;stroke-linejoin:round"
       id="cir1-7"
       cx="21"
       cy="31"
       inkscape:label="note1"
       r="5" />
    <circle
       style="fill:#ff0000;fill-opacity:1;stroke:none;stroke-width:0.207049;stroke-linejoin:round"
       id="cir1-7-1"
       cx="38"
       cy="31"
       inkscape:label="octave1"
       r="5" />
    <rect
       style="fill:#ffff00;fill-opacity:1;stroke:none;stroke-width:0.427837;stroke-linejoin:round"
       id="rect939"
       width="29.799999"
       height="8"
       x="63"
       y="27"
       inkscape:label="display1" />
    <circle
       style="display:inline;fill:#0000ff;fill-opacity:1;stroke:none;stroke-width:0.162279;stroke-linejoin:round"
       id="path842-6-8"
       cx="113.41886"
       cy="30.918859"
       r="3.9188602"
       inkscape:label="logicoutnot1" />
    <circle
       style="display:inline;fill:#ff0000;fill-opacity:1;stroke:none;stroke-width:0.207049;stroke-linejoin:round"
       id="cir1-7-1-2"
       cx="55"
       cy="31"
       inkscape:label="comp1"
       r="5" />
    <circle
       style="fill:#ff00ff;fill-opacity:1;stroke:none;stroke-width:0.0770541;stroke-linejoin:round"
       id="path1044"
       cx="12.588"
       cy="28.087999"
       r="1.0880001"
       inkscape:label="ledactiv1" />
  </g>
</svg>
