<?xml version="1.0" encoding="UTF-8" standalone="no"?>
<svg
   xmlns:dc="http://purl.org/dc/elements/1.1/"
   xmlns:cc="http://creativecommons.org/ns#"
   xmlns:rdf="http://www.w3.org/1999/02/22-rdf-syntax-ns#"
   xmlns:svg="http://www.w3.org/2000/svg"
   xmlns="http://www.w3.org/2000/svg"
   xmlns:sodipodi="http://sodipodi.sourceforge.net/DTD/sodipodi-0.dtd"
   xmlns:inkscape="http://www.inkscape.org/namespaces/inkscape"
   width="81.279999mm"
   height="128.5mm"
   viewBox="0 0 81.279999 128.5"
   version="1.1"
   id="svg8"
   inkscape:version="1.0.2-2 (e86c870879, 2021-01-15)"
   sodipodi:docname="ProtoA.svg">
  <defs
     id="defs2">
    <inkscape:perspective
       sodipodi:type="inkscape:persp3d"
       inkscape:vp_x="0 : 64.25 : 1"
       inkscape:vp_y="0 : 1000 : 0"
       inkscape:vp_z="81.279999 : 64.25 : 1"
       inkscape:persp3d-origin="40.64 : 42.833333 : 1"
       id="perspective869" />
  </defs>
  <sodipodi:namedview
     id="base"
     pagecolor="#ffffff"
     bordercolor="#666666"
     borderopacity="1.0"
     inkscape:pageopacity="0.0"
     inkscape:pageshadow="2"
     inkscape:zoom="2"
     inkscape:cx="49.521264"
     inkscape:cy="121.92258"
     inkscape:document-units="mm"
     inkscape:current-layer="layer1"
     inkscape:document-rotation="0"
     showgrid="false"
     inkscape:window-width="1920"
     inkscape:window-height="1017"
     inkscape:window-x="-8"
     inkscape:window-y="-8"
     inkscape:window-maximized="1"
     showguides="false" />
  <metadata
     id="metadata5">
    <rdf:RDF>
      <cc:Work
         rdf:about="">
        <dc:format>image/svg+xml</dc:format>
        <dc:type
           rdf:resource="http://purl.org/dc/dcmitype/StillImage" />
        <dc:title />
      </cc:Work>
    </rdf:RDF>
  </metadata>
  <g
     inkscape:label="Layer 1"
     inkscape:groupmode="layer"
     id="layer1">
    <rect
       style="fill:#e6e6e6;fill-opacity:1;stroke:#000000;stroke-width:0.264999;stroke-linejoin:round"
       id="rect835"
       width="81.279999"
       height="128.5"
       x="0.1324995"
       y="0.1324995" />
    <g
       aria-label="JUST LOGIC"
       id="text839"
       style="font-style:normal;font-weight:normal;font-size:4.58611px;line-height:1.25;font-family:sans-serif;letter-spacing:0px;word-spacing:0px;fill:#000000;fill-opacity:1;stroke:none;stroke-width:0.264583"
       transform="translate(0,1)">
      <path
         d="M 24.847904,120.27975 V 120 h 3.256138 v 0.27975 z m 0,4.34764 v -0.29351 h 3.256138 v 0.29351 z m 1.123597,-1.82527 q 0.10548,0.40357 0.366889,0.40357 0.10548,0 0.18803,-0.0734 0.08714,-0.078 0.08714,-0.28893 v -1.72896 h 0.41275 v 1.75189 q 0,0.30268 -0.183444,0.49989 -0.183445,0.19261 -0.504472,0.19261 -0.1651,0 -0.284339,-0.0459 -0.119239,-0.0504 -0.206375,-0.13299 -0.08255,-0.0825 -0.137583,-0.19262 -0.05045,-0.11465 -0.07796,-0.24765 z"
         style="font-style:normal;font-variant:normal;font-weight:normal;font-stretch:normal;font-size:4.58611px;font-family:'INSPECTIONXPERT GDT FRAMES';-inkscape-font-specification:'INSPECTIONXPERT GDT FRAMES';stroke-width:0.264583"
         id="path925" />
      <path
         d="M 28.058176,120.27975 V 120 h 3.256138 v 0.27975 z m 0,4.34764 v -0.29351 h 3.256138 v 0.29351 z m 1.068563,-3.51755 v 1.63266 q 0,0.24765 0.155928,0.35771 0.160514,0.10548 0.403578,0.10548 0.100894,0 0.201789,-0.0183 0.10548,-0.0229 0.183444,-0.0734 0.07796,-0.055 0.128411,-0.14217 0.05045,-0.0917 0.05045,-0.2293 v -1.63266 h 0.421922 v 1.68769 q 0,0.37147 -0.24765,0.56868 -0.247649,0.19261 -0.733777,0.19261 -0.476956,0 -0.733778,-0.19261 -0.252236,-0.19721 -0.252236,-0.56868 v -1.68769 z"
         style="font-style:normal;font-variant:normal;font-weight:normal;font-stretch:normal;font-size:4.58611px;font-family:'INSPECTIONXPERT GDT FRAMES';-inkscape-font-specification:'INSPECTIONXPERT GDT FRAMES';stroke-width:0.264583"
         id="path927" />
      <path
         d="M 31.268447,120.27975 V 120 h 3.256139 v 0.27975 z m 0,4.34764 v -0.29351 h 3.256139 v 0.29351 z m 1.605139,-1.06857 q -0.1651,0 -0.302683,-0.0459 -0.137584,-0.0504 -0.243064,-0.13299 -0.105481,-0.0825 -0.178858,-0.19262 -0.06879,-0.11465 -0.09631,-0.24765 l 0.339372,-0.13758 q 0.02752,0.10089 0.07796,0.17885 0.05503,0.0734 0.119239,0.12383 0.06879,0.0504 0.14217,0.078 0.07338,0.0229 0.142169,0.0229 0.201789,0 0.307269,-0.10089 0.105481,-0.1009 0.105481,-0.25682 0,-0.11466 -0.08255,-0.18803 -0.08255,-0.0734 -0.210961,-0.133 -0.123825,-0.0596 -0.270581,-0.11924 -0.142169,-0.0596 -0.27058,-0.14676 -0.123825,-0.0871 -0.206375,-0.21096 -0.08255,-0.12841 -0.08255,-0.32561 0,-0.12841 0.05503,-0.24765 0.05962,-0.11924 0.160514,-0.21096 0.100895,-0.0917 0.238478,-0.14676 0.137583,-0.055 0.302683,-0.055 0.3302,0 0.522817,0.17886 0.197202,0.17886 0.252236,0.44026 l -0.339372,0.13759 q -0.05045,-0.20179 -0.178859,-0.30269 -0.123825,-0.10089 -0.256822,-0.10089 -0.06879,0 -0.132997,0.0275 -0.05962,0.0229 -0.110067,0.0688 -0.04586,0.0413 -0.07338,0.0963 -0.02752,0.055 -0.02752,0.11465 0,0.12841 0.08255,0.20637 0.08255,0.0734 0.206375,0.133 0.128411,0.055 0.27058,0.11007 0.146756,0.055 0.270581,0.13758 0.128411,0.0825 0.210961,0.21096 0.08255,0.12383 0.08255,0.32562 0,0.13758 -0.05962,0.26599 -0.05503,0.12841 -0.1651,0.22931 -0.10548,0.0963 -0.256822,0.15592 -0.151341,0.0596 -0.343958,0.0596 z"
         style="font-style:normal;font-variant:normal;font-weight:normal;font-stretch:normal;font-size:4.58611px;font-family:'INSPECTIONXPERT GDT FRAMES';-inkscape-font-specification:'INSPECTIONXPERT GDT FRAMES';stroke-width:0.264583"
         id="path929" />
      <path
         d="M 34.478719,120.27975 V 120 h 3.256138 v 0.27975 z m 0,4.34764 v -0.29351 h 3.256138 v 0.29351 z m 2.614083,-3.51755 v 0.36689 h -0.779639 v 2.03623 h -0.41275 v -2.03164 h -0.779638 v -0.37148 z"
         style="font-style:normal;font-variant:normal;font-weight:normal;font-stretch:normal;font-size:4.58611px;font-family:'INSPECTIONXPERT GDT FRAMES';-inkscape-font-specification:'INSPECTIONXPERT GDT FRAMES';stroke-width:0.264583"
         id="path931" />
      <path
         d="M 39.982037,120.27975 V 120 h 3.256138 v 0.27975 z m 0,4.34764 v -0.29351 h 3.256138 v 0.29351 z m 1.472141,-3.51755 v 2.04082 h 1.059392 v 0.3623 h -1.476728 v -2.40312 z"
         style="font-style:normal;font-variant:normal;font-weight:normal;font-stretch:normal;font-size:4.58611px;font-family:'INSPECTIONXPERT GDT FRAMES';-inkscape-font-specification:'INSPECTIONXPERT GDT FRAMES';stroke-width:0.264583"
         id="path933" />
      <path
         d="M 43.19231,120.27975 V 120 h 3.256138 v 0.27975 z m 0,4.34764 v -0.29351 h 3.256138 v 0.29351 z m 1.628069,-3.56341 q 0.270581,0 0.486128,0.0825 0.215547,0.0825 0.362302,0.23848 0.151342,0.15592 0.229306,0.38523 0.08255,0.22472 0.08255,0.51364 0,0.29352 -0.07338,0.53199 -0.07338,0.2339 -0.220133,0.399 -0.146756,0.1651 -0.366889,0.25682 -0.215547,0.0871 -0.504472,0.0871 -0.568678,0 -0.866775,-0.33478 -0.298097,-0.33937 -0.298097,-0.9264 0,-0.59619 0.307269,-0.91263 0.30727,-0.32103 0.862189,-0.32103 z m 0.0046,0.35313 q -0.18803,0 -0.3302,0.0642 -0.142169,0.0642 -0.238478,0.18344 -0.09172,0.11465 -0.137583,0.27975 -0.04586,0.16052 -0.04586,0.35772 0,0.18803 0.04586,0.35313 0.04586,0.16051 0.137583,0.28434 0.09631,0.12382 0.233892,0.1972 0.137583,0.0688 0.321028,0.0688 0.192616,0 0.334786,-0.0688 0.142169,-0.0688 0.233891,-0.19262 0.09172,-0.12382 0.137584,-0.28892 0.04586,-0.1651 0.04586,-0.35772 0,-0.18803 -0.05045,-0.34854 -0.04586,-0.1651 -0.137584,-0.27975 -0.09172,-0.11924 -0.229305,-0.18345 -0.137583,-0.0688 -0.321028,-0.0688 z"
         style="font-style:normal;font-variant:normal;font-weight:normal;font-stretch:normal;font-size:4.58611px;font-family:'INSPECTIONXPERT GDT FRAMES';-inkscape-font-specification:'INSPECTIONXPERT GDT FRAMES';stroke-width:0.264583"
         id="path935" />
      <path
         d="M 46.402582,120.27975 V 120 h 3.256138 v 0.27975 z m 0,4.34764 v -0.29351 h 3.256138 v 0.29351 z m 1.715205,-3.54507 q 0.348544,0 0.573264,0.15593 0.229305,0.15593 0.348544,0.41734 l -0.362303,0.16051 q -0.08714,-0.15593 -0.220133,-0.26141 -0.128411,-0.10548 -0.339372,-0.10548 -0.394406,0 -0.596194,0.23848 -0.201789,0.23389 -0.201789,0.60537 0,0.41733 0.220133,0.6604 0.224719,0.23847 0.651228,0.23847 0.119239,0 0.210961,-0.0183 0.09172,-0.0229 0.201789,-0.0688 v -0.51823 h -0.527403 l 0.09172,-0.37148 h 0.848431 v 1.0915 q -0.206375,0.13299 -0.398992,0.18803 -0.192617,0.0504 -0.435681,0.0504 -0.596194,0 -0.935566,-0.31186 -0.339372,-0.31186 -0.339372,-0.91722 0,-0.27976 0.08255,-0.50447 0.08255,-0.22931 0.238478,-0.38982 0.160513,-0.1651 0.380647,-0.25224 0.224719,-0.0871 0.509058,-0.0871 z"
         style="font-style:normal;font-variant:normal;font-weight:normal;font-stretch:normal;font-size:4.58611px;font-family:'INSPECTIONXPERT GDT FRAMES';-inkscape-font-specification:'INSPECTIONXPERT GDT FRAMES';stroke-width:0.264583"
         id="path937" />
      <path
         d="M 49.612854,120.27975 V 120 h 3.256138 v 0.27975 z m 0,4.34764 v -0.29351 h 3.256138 v 0.29351 z m 1.834444,-3.51755 v 2.40312 h -0.41275 v -2.40312 z"
         style="font-style:normal;font-variant:normal;font-weight:normal;font-stretch:normal;font-size:4.58611px;font-family:'INSPECTIONXPERT GDT FRAMES';-inkscape-font-specification:'INSPECTIONXPERT GDT FRAMES';stroke-width:0.264583"
         id="path939" />
      <path
         d="M 52.823125,120.27975 V 120 h 3.256139 v 0.27975 z m 0,4.34764 v -0.29351 h 3.256139 v 0.29351 z m 1.696861,-1.06857 q -0.284339,0 -0.509058,-0.0917 -0.224719,-0.0917 -0.385233,-0.25682 -0.155928,-0.1651 -0.238478,-0.39441 -0.08255,-0.23389 -0.08255,-0.51364 0,-0.27975 0.08255,-0.50447 0.08255,-0.22931 0.238478,-0.38524 0.160514,-0.16051 0.385233,-0.24306 0.224719,-0.0871 0.509058,-0.0871 0.343958,0 0.573264,0.15135 0.229305,0.15134 0.366889,0.44485 l -0.339372,0.16051 q -0.105481,-0.19261 -0.24765,-0.28892 -0.14217,-0.1009 -0.353131,-0.1009 -0.380647,0 -0.582436,0.23389 -0.197203,0.22931 -0.197203,0.60078 0,0.18804 0.05045,0.35314 0.05045,0.1651 0.146755,0.28892 0.100895,0.12383 0.24765,0.1972 0.146756,0.0688 0.334786,0.0688 0.210961,0 0.353131,-0.0963 0.142169,-0.1009 0.24765,-0.29351 l 0.339372,0.16051 q -0.137584,0.29351 -0.366889,0.44485 -0.229306,0.15134 -0.573264,0.15134 z"
         style="font-style:normal;font-variant:normal;font-weight:normal;font-stretch:normal;font-size:4.58611px;font-family:'INSPECTIONXPERT GDT FRAMES';-inkscape-font-specification:'INSPECTIONXPERT GDT FRAMES';stroke-width:0.264583"
         id="path941" />
    </g>
    <rect
       style="fill:#000000;fill-opacity:1;stroke:none;stroke-width:0.272524;stroke-linejoin:round"
       id="rect867"
       width="16.933332"
       height="94.580467"
       x="61.647915"
       y="15.221618"
       ry="4.1973581" />
    <g
       aria-label="PROTO A"
       id="text946"
       style="font-style:normal;font-weight:normal;font-size:5.64444px;line-height:1.25;font-family:sans-serif;letter-spacing:0px;word-spacing:0px;fill:#000000;fill-opacity:1;stroke:none;stroke-width:0.264583"
       transform="translate(1.0583333)">
      <path
         d="m 30.581421,4.1520389 q 0,0.2204859 -0.08268,0.4382158 -0.08268,0.2149738 -0.256315,0.3858504 -0.173632,0.1708766 -0.443728,0.2783635 -0.270095,0.1047308 -0.644921,0.1047308 H 28.707291 V 6.6517982 H 28.21671 V 3.0496091 h 1.014235 q 0.267339,0 0.51263,0.060634 0.245291,0.057878 0.429947,0.1901691 0.187414,0.1322916 0.297657,0.3417532 0.110242,0.2094617 0.110242,0.5098735 z m -0.509873,0.022049 q 0,-0.3472653 -0.228754,-0.5319223 -0.225999,-0.184657 -0.633898,-0.184657 h -0.501605 v 1.482768 h 0.457508 q 0.43546,0 0.669726,-0.1901691 0.237023,-0.1901691 0.237023,-0.5760196 z"
         style="font-style:normal;font-variant:normal;font-weight:normal;font-stretch:normal;font-size:5.64444px;font-family:Consolas;-inkscape-font-specification:Consolas;stroke-width:0.264583"
         id="path965" />
      <path
         d="M 33.781224,6.6517982 H 33.227253 L 32.689818,5.4997592 Q 32.629185,5.3674676 32.565795,5.2820293 32.502405,5.1938349 32.427991,5.1442256 32.356333,5.0918602 32.268139,5.0698116 32.182701,5.047763 32.075214,5.047763 h -0.23151 V 6.6517982 H 31.353122 V 3.0496091 h 0.964626 q 0.314193,0 0.540191,0.068902 0.225998,0.068902 0.369314,0.1929252 0.146072,0.1240233 0.212218,0.3004121 0.0689,0.1736327 0.0689,0.3858504 0,0.1681205 -0.04961,0.3197046 -0.04961,0.148828 -0.148828,0.2728514 -0.09646,0.1212672 -0.242534,0.2122177 -0.143316,0.088194 -0.330729,0.1322916 0.151584,0.052365 0.256315,0.1846569 0.107486,0.1295355 0.217729,0.3472654 z M 32.995743,4.0390398 q 0,-0.2893878 -0.181901,-0.4327037 -0.179145,-0.1433158 -0.507118,-0.1433158 h -0.46302 v 1.1906241 h 0.396874 q 0.173633,0 0.311437,-0.038585 0.140559,-0.041341 0.237022,-0.1185112 0.09922,-0.079926 0.151584,-0.1929252 0.05512,-0.1157551 0.05512,-0.2645831 z"
         style="font-style:normal;font-variant:normal;font-weight:normal;font-stretch:normal;font-size:5.64444px;font-family:Consolas;-inkscape-font-specification:Consolas;stroke-width:0.264583"
         id="path967" />
      <path
         d="m 36.939685,4.8272771 q 0,0.485069 -0.115755,0.8378465 -0.112999,0.3527776 -0.308681,0.5842878 -0.192925,0.2287542 -0.454752,0.3417532 -0.259071,0.110243 -0.548459,0.110243 -0.347265,0 -0.606336,-0.1240234 Q 34.649387,6.4506048 34.478511,6.2135824 34.31039,5.97656 34.227708,5.6375629 q -0.08268,-0.3417532 -0.08268,-0.7689447 0,-0.479557 0.112999,-0.8323345 0.112999,-0.3527775 0.305924,-0.5815316 0.195681,-0.2315103 0.454752,-0.3417533 0.259071,-0.112999 0.548459,-0.112999 0.347265,0 0.60358,0.1267794 0.259071,0.1267794 0.429948,0.3638018 0.170876,0.2342663 0.253559,0.5732635 0.08544,0.3389971 0.08544,0.7634326 z m -0.509874,0.035829 q 0,-0.3169485 -0.04961,-0.5787756 -0.04685,-0.2645831 -0.15434,-0.4547522 -0.107487,-0.1901692 -0.278364,-0.2949 -0.16812,-0.1047308 -0.407899,-0.1047308 -0.23151,0 -0.399631,0.112999 -0.165364,0.110243 -0.272851,0.3031682 -0.107487,0.1901691 -0.159852,0.4492401 -0.05237,0.2563149 -0.05237,0.5457027 0,0.3197046 0.04961,0.5842878 0.04961,0.261827 0.15434,0.4519962 0.107487,0.187413 0.275607,0.2921438 0.168121,0.1047309 0.405143,0.1047309 0.23151,0 0.399631,-0.110243 0.16812,-0.112999 0.275607,-0.3031682 0.110243,-0.1929252 0.162609,-0.4492401 0.05237,-0.2563149 0.05237,-0.5484588 z"
         style="font-style:normal;font-variant:normal;font-weight:normal;font-stretch:normal;font-size:5.64444px;font-family:Consolas;-inkscape-font-specification:Consolas;stroke-width:0.264583"
         id="path969" />
      <path
         d="M 39.957586,3.4685324 H 38.890985 V 6.6517982 H 38.394892 V 3.4685324 H 37.328291 V 3.0496091 h 2.629295 z"
         style="font-style:normal;font-variant:normal;font-weight:normal;font-stretch:normal;font-size:5.64444px;font-family:Consolas;-inkscape-font-specification:Consolas;stroke-width:0.264583"
         id="path971" />
      <path
         d="m 43.146364,4.8272771 q 0,0.485069 -0.115755,0.8378465 -0.112999,0.3527776 -0.30868,0.5842878 -0.192925,0.2287542 -0.454752,0.3417532 -0.259071,0.110243 -0.548459,0.110243 -0.347266,0 -0.606337,-0.1240234 Q 40.856067,6.4506048 40.68519,6.2135824 40.517069,5.97656 40.434387,5.6375629 q -0.08268,-0.3417532 -0.08268,-0.7689447 0,-0.479557 0.112999,-0.8323345 0.112999,-0.3527775 0.305924,-0.5815316 0.195681,-0.2315103 0.454752,-0.3417533 0.259071,-0.112999 0.548459,-0.112999 0.347266,0 0.603581,0.1267794 0.259071,0.1267794 0.429947,0.3638018 0.170877,0.2342663 0.253559,0.5732635 0.08544,0.3389971 0.08544,0.7634326 z m -0.509873,0.035829 q 0,-0.3169485 -0.04961,-0.5787756 -0.04685,-0.2645831 -0.15434,-0.4547522 -0.107487,-0.1901692 -0.278363,-0.2949 -0.168121,-0.1047308 -0.407899,-0.1047308 -0.231511,0 -0.399631,0.112999 -0.165365,0.110243 -0.272852,0.3031682 -0.107487,0.1901691 -0.159852,0.4492401 -0.05237,0.2563149 -0.05237,0.5457027 0,0.3197046 0.04961,0.5842878 0.04961,0.261827 0.15434,0.4519962 0.107487,0.187413 0.275608,0.2921438 0.16812,0.1047309 0.405143,0.1047309 0.23151,0 0.39963,-0.110243 0.168121,-0.112999 0.275608,-0.3031682 0.110243,-0.1929252 0.162608,-0.4492401 0.05237,-0.2563149 0.05237,-0.5484588 z"
         style="font-style:normal;font-variant:normal;font-weight:normal;font-stretch:normal;font-size:5.64444px;font-family:Consolas;-inkscape-font-specification:Consolas;stroke-width:0.264583"
         id="path973" />
      <path
         d="M 49.477066,6.6517982 H 48.942388 L 48.691585,5.8663171 H 47.19228 l -0.253558,0.7854811 h -0.509874 l 1.196136,-3.6021891 h 0.672482 z M 48.551025,5.4281013 47.941933,3.5016053 47.33284,5.4281013 Z"
         style="font-style:normal;font-variant:normal;font-weight:normal;font-stretch:normal;font-size:5.64444px;font-family:Consolas;-inkscape-font-specification:Consolas;stroke-width:0.264583"
         id="path975" />
    </g>
    <text
       xml:space="preserve"
       style="font-style:normal;font-weight:normal;font-size:10.5833px;line-height:1.25;font-family:sans-serif;letter-spacing:0px;word-spacing:0px;fill:#000000;fill-opacity:1;stroke:none;stroke-width:0.264583"
       x="70.643745"
       y="-1.0583333"
       id="text963"><tspan
         sodipodi:role="line"
         id="tspan961"
         x="70.643745"
         y="-1.0583333"
         style="stroke-width:0.264583" /></text>
    <g
       aria-label="NOTE"
       id="text980"
       style="font-size:3.52778px;line-height:1.25;font-family:sans-serif;letter-spacing:0px;word-spacing:0px;stroke-width:0.264583">
      <path
         d="M 25.055493,20.618275 H 24.633468 L 23.417349,18.32384 v 2.294435 H 23.098677 V 18.053399 H 23.6275 l 1.109321,2.09462 v -2.09462 h 0.318672 z"
         style="font-size:3.52778px;stroke-width:0.264583"
         id="path1019" />
      <path
         d="m 27.649651,18.347955 q 0.156752,0.172255 0.239435,0.422025 0.08441,0.249769 0.08441,0.566718 0,0.316949 -0.08613,0.568441 -0.08441,0.24977 -0.237712,0.416857 -0.158474,0.173978 -0.375515,0.261828 -0.215319,0.08785 -0.492649,0.08785 -0.27044,0 -0.492649,-0.08957 -0.220486,-0.08957 -0.375516,-0.260105 -0.155029,-0.170532 -0.239434,-0.418579 -0.08268,-0.248047 -0.08268,-0.566719 0,-0.313504 0.08268,-0.561551 0.08268,-0.249769 0.241157,-0.427192 0.151584,-0.168809 0.375515,-0.258382 Q 26.516214,18 26.781487,18 q 0.275608,0 0.494371,0.0913 0.220487,0.08957 0.373793,0.256659 z m -0.03101,0.988743 q 0,-0.499539 -0.223932,-0.769979 -0.223931,-0.272163 -0.611505,-0.272163 -0.391018,0 -0.61495,0.272163 -0.222208,0.27044 -0.222208,0.769979 0,0.504707 0.227376,0.773425 0.227377,0.266995 0.609782,0.266995 0.382406,0 0.60806,-0.266995 0.227377,-0.268718 0.227377,-0.773425 z"
         style="font-size:3.52778px;stroke-width:0.264583"
         id="path1021" />
      <path
         d="m 30.25759,18.356568 h -0.916396 v 2.261707 H 29.00013 v -2.261707 h -0.916396 v -0.303169 h 2.173856 z"
         style="font-size:3.52778px;stroke-width:0.264583"
         id="path1023" />
      <path
         d="M 32.29192,20.618275 H 30.6021 v -2.564876 h 1.68982 v 0.303169 h -1.348755 v 0.7028 h 1.348755 v 0.303169 h -1.348755 v 0.952569 h 1.348755 z"
         style="font-size:3.52778px;stroke-width:0.264583"
         id="path1025" />
    </g>
    <g
       aria-label="IN"
       id="text1008"
       style="font-size:4.5861px;line-height:1.25;font-family:sans-serif;letter-spacing:0px;word-spacing:0px;stroke-width:0.264583">
      <path
         d="M 8.5425524,20.564875 H 7.5296937 v -0.261828 h 0.335897 v -2.04122 h -0.335897 v -0.261828 h 1.0128587 v 0.261828 h -0.335897 v 2.04122 h 0.335897 z"
         style="font-size:3.52778px;stroke-width:0.264583"
         id="path1014" />
      <path
         d="M 11.079867,20.564875 H 10.657842 L 9.4417229,18.27044 v 2.294435 H 9.1230513 v -2.564876 h 0.5288225 l 1.1093212,2.09462 v -2.09462 h 0.318672 z"
         style="font-size:3.52778px;stroke-width:0.264583"
         id="path1016" />
    </g>
    <g
       aria-label="OUT"
       id="text1012"
       style="font-size:3.52778px;line-height:1.25;font-family:sans-serif;letter-spacing:0px;word-spacing:0px;fill:#ffffff;fill-opacity:1;stroke:none;stroke-width:0.265;stroke-miterlimit:4;stroke-dasharray:none;stroke-opacity:1">
      <path
         d="m 68.766564,18.347955 q 0.156752,0.172255 0.239434,0.422025 0.0844,0.249769 0.0844,0.566718 0,0.316949 -0.08613,0.568441 -0.08441,0.24977 -0.237712,0.416857 -0.158474,0.173978 -0.375516,0.261828 -0.215318,0.08785 -0.492649,0.08785 -0.27044,0 -0.492649,-0.08957 -0.220486,-0.08957 -0.375515,-0.260105 -0.15503,-0.170532 -0.239435,-0.418579 -0.08268,-0.248047 -0.08268,-0.566719 0,-0.313504 0.08268,-0.561551 0.08268,-0.249769 0.241157,-0.427192 0.151585,-0.168809 0.375516,-0.258382 Q 67.633127,18 67.898399,18 q 0.275608,0 0.494372,0.0913 0.220486,0.08957 0.373793,0.256659 z m -0.03101,0.988743 q 0,-0.499539 -0.223931,-0.769979 -0.223932,-0.272163 -0.611505,-0.272163 -0.391019,0 -0.61495,0.272163 -0.222209,0.27044 -0.222209,0.769979 0,0.504707 0.227377,0.773425 0.227376,0.266995 0.609782,0.266995 0.382406,0 0.60806,-0.266995 0.227376,-0.268718 0.227376,-0.773425 z"
         style="font-size:3.52778px;fill:#ffffff;fill-opacity:1;stroke:none;stroke-width:0.265;stroke-miterlimit:4;stroke-dasharray:none;stroke-opacity:1"
         id="path1043" />
      <path
         d="m 71.562261,19.58819 q 0,0.279053 -0.06201,0.487482 -0.06029,0.206706 -0.199816,0.34451 -0.132636,0.130913 -0.310059,0.191202 -0.177422,0.06029 -0.413411,0.06029 -0.241157,0 -0.420302,-0.06374 -0.179145,-0.06373 -0.301446,-0.187757 -0.139527,-0.141249 -0.201538,-0.341065 -0.06029,-0.199816 -0.06029,-0.490927 v -1.534791 h 0.341065 v 1.552017 q 0,0.208428 0.02756,0.329007 0.02928,0.120578 0.09646,0.218763 0.07579,0.111966 0.204983,0.16881 0.130914,0.05684 0.313504,0.05684 0.184313,0 0.313504,-0.05512 0.129191,-0.05684 0.206706,-0.170533 0.06718,-0.09819 0.09474,-0.223931 0.02928,-0.127468 0.02928,-0.315226 v -1.56063 h 0.341065 z"
         style="font-size:3.52778px;fill:#ffffff;fill-opacity:1;stroke:none;stroke-width:0.265;stroke-miterlimit:4;stroke-dasharray:none;stroke-opacity:1"
         id="path1045" />
      <path
         d="m 74.042731,18.356568 h -0.916396 v 2.261707 h -0.341064 v -2.261707 h -0.916396 v -0.303169 h 2.173856 z"
         style="font-size:3.52778px;fill:#ffffff;fill-opacity:1;stroke:none;stroke-width:0.265;stroke-miterlimit:4;stroke-dasharray:none;stroke-opacity:1"
         id="path1047" />
    </g>
    <g
       aria-label="C"
       id="text903"
       style="font-style:normal;font-weight:normal;font-size:10.5833px;line-height:1.25;font-family:sans-serif;letter-spacing:0px;word-spacing:0px;fill:#000000;fill-opacity:1;stroke:none;stroke-width:0.264583"
       transform="translate(-0.26458332,0.396875)">
      <path
         d="m 24.985205,36.974144 q -0.216352,0.08957 -0.453375,0.08957 -0.381716,0 -0.587044,-0.227377 -0.203949,-0.228754 -0.203949,-0.675238 0,-0.216352 0.0565,-0.391362 0.0565,-0.175011 0.161231,-0.296278 0.104731,-0.122646 0.253559,-0.188791 0.148828,-0.06615 0.333485,-0.06615 0.125401,0 0.232888,0.02205 0.107487,0.02067 0.206706,0.06477 v 0.241157 q -0.09784,-0.05374 -0.202572,-0.08131 -0.104731,-0.02894 -0.228754,-0.02894 -0.12678,0 -0.230132,0.04823 -0.101975,0.04685 -0.173633,0.137804 -0.07166,0.08957 -0.110243,0.220486 -0.03859,0.129535 -0.03859,0.296278 0,0.350021 0.141938,0.527788 0.141938,0.177767 0.416167,0.177767 0.115755,0 0.221864,-0.02618 0.106109,-0.02756 0.20395,-0.07579 z"
         style="font-style:normal;font-variant:normal;font-weight:normal;font-stretch:normal;font-size:2.82222px;font-family:Consolas;-inkscape-font-specification:Consolas;stroke-width:0.264583"
         id="path951" />
    </g>
    <g
       aria-label="D"
       id="text903-6"
       style="font-style:normal;font-weight:normal;font-size:10.5833px;line-height:1.25;font-family:sans-serif;letter-spacing:0px;word-spacing:0px;fill:#000000;fill-opacity:1;stroke:none;stroke-width:0.264583"
       transform="translate(0.33072915,0.36380208)" />
    <g
       aria-label="C#"
       id="text959"
       style="font-style:normal;font-weight:normal;font-size:2.82222px;line-height:1.25;font-family:sans-serif;letter-spacing:0px;word-spacing:0px;fill:#000000;fill-opacity:1;stroke:none;stroke-width:0.264583">
      <path
         d="m 21.870689,35.19624 q -0.216352,0.08957 -0.453374,0.08957 -0.381716,0 -0.587044,-0.227376 -0.203949,-0.228754 -0.203949,-0.675238 0,-0.216352 0.0565,-0.391363 0.0565,-0.175011 0.161231,-0.296278 0.10473,-0.122645 0.253558,-0.188791 0.148828,-0.06615 0.333485,-0.06615 0.125402,0 0.232889,0.02205 0.107487,0.02067 0.206705,0.06477 v 0.241156 q -0.09784,-0.05374 -0.202571,-0.0813 -0.104731,-0.02894 -0.228754,-0.02894 -0.12678,0 -0.230133,0.04823 -0.101974,0.04685 -0.173632,0.137804 -0.07166,0.08957 -0.110243,0.220486 -0.03859,0.129536 -0.03859,0.296278 0,0.350022 0.141938,0.527788 0.141937,0.177767 0.416167,0.177767 0.115755,0 0.221864,-0.02618 0.106109,-0.02756 0.203949,-0.07579 z"
         style="font-style:normal;font-variant:normal;font-weight:normal;font-stretch:normal;font-size:2.82222px;font-family:Consolas;-inkscape-font-specification:Consolas;stroke-width:0.264583"
         id="path1105" />
      <path
         d="m 23.47059,34.758024 h -0.307302 l -0.05099,0.505739 h -0.20395 l 0.05099,-0.505739 h -0.3514 l -0.05099,0.505739 h -0.20395 l 0.05099,-0.505739 h -0.293522 v -0.179145 h 0.311436 l 0.04961,-0.482313 h -0.290765 v -0.179145 h 0.30868 l 0.04685,-0.454752 h 0.201194 l -0.04548,0.454752 h 0.352778 l 0.04685,-0.454752 h 0.20395 l -0.04823,0.454752 h 0.296278 v 0.179145 h -0.314192 l -0.04823,0.482313 h 0.289387 z m -0.491959,-0.179145 0.04823,-0.482313 h -0.352777 l -0.04823,0.482313 z"
         style="font-style:normal;font-variant:normal;font-weight:normal;font-stretch:normal;font-size:2.82222px;font-family:Consolas;-inkscape-font-specification:Consolas;stroke-width:0.264583"
         id="path1107" />
    </g>
    <g
       aria-label="D#"
       id="text959-5"
       style="font-style:normal;font-weight:normal;font-size:2.82222px;line-height:1.25;font-family:sans-serif;letter-spacing:0px;word-spacing:0px;fill:#000000;fill-opacity:1;stroke:none;stroke-width:0.264583"
       transform="translate(-0.14031648,0.28063296)">
      <path
         d="m 21.647799,27.942901 q 0,0.129536 -0.02067,0.248047 -0.01929,0.118511 -0.06339,0.220486 -0.0441,0.101975 -0.114377,0.186035 -0.07028,0.08268 -0.172255,0.141938 -0.101975,0.05926 -0.237022,0.09233 -0.135048,0.0317 -0.307303,0.0317 h -0.38585 v -1.801095 h 0.464398 q 0.42168,0 0.628385,0.21773 0.208084,0.216352 0.208084,0.662836 z m -0.257693,0.01792 q 0,-0.191547 -0.03583,-0.323839 -0.03583,-0.132292 -0.108865,-0.213596 -0.07304,-0.0813 -0.183279,-0.117133 -0.110243,-0.03721 -0.259071,-0.03721 h -0.210839 v 1.382171 H 20.7755 q 0.614605,0 0.614605,-0.690396 z"
         style="font-style:normal;font-variant:normal;font-weight:normal;font-stretch:normal;font-size:2.82222px;font-family:Consolas;-inkscape-font-specification:Consolas;stroke-width:0.264583"
         id="path1113" />
      <path
         d="m 23.167774,28.35769 h -0.307302 l -0.05099,0.50574 h -0.203949 l 0.05099,-0.50574 h -0.351399 l -0.05099,0.50574 h -0.203949 l 0.05099,-0.50574 h -0.293522 v -0.179144 h 0.311437 l 0.04961,-0.482313 h -0.290766 v -0.179145 h 0.30868 l 0.04685,-0.454753 h 0.201193 l -0.04547,0.454753 h 0.352777 l 0.04685,-0.454753 h 0.203949 l -0.04823,0.454753 h 0.296278 v 0.179145 h -0.314193 l -0.04823,0.482313 h 0.289388 z m -0.491959,-0.179144 0.04823,-0.482313 h -0.352778 l -0.04823,0.482313 z"
         style="font-style:normal;font-variant:normal;font-weight:normal;font-stretch:normal;font-size:2.82222px;font-family:Consolas;-inkscape-font-specification:Consolas;stroke-width:0.264583"
         id="path1115" />
    </g>
    <g
       aria-label="D"
       id="text959-9"
       style="font-style:normal;font-weight:normal;font-size:2.82222px;line-height:1.25;font-family:sans-serif;letter-spacing:0px;word-spacing:0px;fill:#000000;fill-opacity:1;stroke:none;stroke-width:0.264583">
      <path
         d="m 21.797116,31.405868 q 0,0.129536 -0.02067,0.248047 -0.01929,0.118511 -0.06339,0.220486 -0.0441,0.101975 -0.114377,0.186035 -0.07028,0.08268 -0.172254,0.141938 -0.101975,0.05926 -0.237023,0.09233 -0.135047,0.03169 -0.307302,0.03169 h -0.38585 v -1.801095 h 0.464398 q 0.42168,0 0.628385,0.21773 0.208084,0.216352 0.208084,0.662836 z m -0.257693,0.01791 q 0,-0.191548 -0.03583,-0.323839 -0.03583,-0.132292 -0.108865,-0.213596 -0.07304,-0.0813 -0.183279,-0.117133 -0.110243,-0.03721 -0.259071,-0.03721 h -0.21084 v 1.382171 h 0.183279 q 0.614605,0 0.614605,-0.690396 z"
         style="font-style:normal;font-variant:normal;font-weight:normal;font-stretch:normal;font-size:2.82222px;font-family:Consolas;-inkscape-font-specification:Consolas;stroke-width:0.264583"
         id="path1110" />
    </g>
    <g
       aria-label="E"
       id="text959-6"
       style="font-style:normal;font-weight:normal;font-size:2.82222px;line-height:1.25;font-family:sans-serif;letter-spacing:0px;word-spacing:0px;fill:#000000;fill-opacity:1;stroke:none;stroke-width:0.264583">
      <path
         d="M 24.182981,26.430351 H 23.1591 v -1.801094 h 1.023881 v 0.206705 H 23.40439 v 0.558105 h 0.748275 v 0.206706 H 23.40439 v 0.620117 h 0.778591 z"
         style="font-style:normal;font-variant:normal;font-weight:normal;font-stretch:normal;font-size:2.82222px;font-family:Consolas;-inkscape-font-specification:Consolas;stroke-width:0.264583"
         id="path1118" />
    </g>
    <g
       aria-label="F#"
       id="text959-3"
       style="font-style:normal;font-weight:normal;font-size:2.82222px;line-height:1.25;font-family:sans-serif;letter-spacing:0px;word-spacing:0px;fill:#000000;fill-opacity:1;stroke:none;stroke-width:0.264583">
      <path
         d="m 29.39286,23.495462 h -0.76481 v 0.584288 h 0.724847 v 0.205328 H 28.62805 v 0.802017 h -0.250803 v -1.801094 h 1.015613 z"
         style="font-style:normal;font-variant:normal;font-weight:normal;font-stretch:normal;font-size:2.82222px;font-family:Consolas;-inkscape-font-specification:Consolas;stroke-width:0.264583"
         id="path1124" />
      <path
         d="m 31.065798,24.581356 h -0.307303 l -0.05099,0.505739 h -0.20395 l 0.05099,-0.505739 h -0.3514 l -0.05099,0.505739 h -0.20395 l 0.05099,-0.505739 h -0.293522 v -0.179145 h 0.311436 l 0.04961,-0.482313 h -0.290766 v -0.179145 h 0.30868 l 0.04685,-0.454752 h 0.201194 l -0.04547,0.454752 h 0.352777 l 0.04685,-0.454752 h 0.20395 l -0.04823,0.454752 h 0.296278 v 0.179145 h -0.314193 l -0.04823,0.482313 h 0.289388 z m -0.49196,-0.179145 0.04823,-0.482313 h -0.352778 l -0.04823,0.482313 z"
         style="font-style:normal;font-variant:normal;font-weight:normal;font-stretch:normal;font-size:2.82222px;font-family:Consolas;-inkscape-font-specification:Consolas;stroke-width:0.264583"
         id="path1126" />
    </g>
    <g
       aria-label="F"
       id="text959-68"
       style="font-style:normal;font-weight:normal;font-size:2.82222px;line-height:1.25;font-family:sans-serif;letter-spacing:0px;word-spacing:0px;fill:#000000;fill-opacity:1;stroke:none;stroke-width:0.264583">
      <path
         d="m 26.828981,23.495333 h -0.76481 v 0.584287 h 0.724847 v 0.205328 h -0.724847 v 0.802018 h -0.250803 v -1.801095 h 1.015613 z"
         style="font-style:normal;font-variant:normal;font-weight:normal;font-stretch:normal;font-size:2.82222px;font-family:Consolas;-inkscape-font-specification:Consolas;stroke-width:0.264583"
         id="path1121" />
    </g>
    <g
       aria-label="G"
       id="text959-36"
       style="font-style:normal;font-weight:normal;font-size:2.82222px;line-height:1.25;font-family:sans-serif;letter-spacing:0px;word-spacing:0px;fill:#000000;fill-opacity:1;stroke:none;stroke-width:0.264583">
      <path
         d="m 33.049759,24.962485 q -0.100596,-0.05374 -0.206705,-0.08268 -0.106109,-0.03032 -0.23151,-0.03032 -0.143316,0 -0.254937,0.05099 -0.111621,0.05099 -0.188791,0.144694 -0.07579,0.09233 -0.117134,0.223242 -0.03996,0.130913 -0.03996,0.289388 0,0.165364 0.03307,0.296278 0.03307,0.130913 0.103353,0.221864 0.07028,0.09095 0.179145,0.139181 0.110243,0.04823 0.263205,0.04823 0.02618,0 0.0565,-0.0028 0.03032,-0.0028 0.06063,-0.0069 0.03032,-0.0055 0.05788,-0.0124 0.02894,-0.0069 0.05099,-0.01516 V 25.652881 H 32.447557 V 25.45031 h 0.610471 v 0.920529 q -0.0565,0.02618 -0.11989,0.04685 -0.06201,0.02067 -0.128157,0.03445 -0.06477,0.01378 -0.129536,0.02067 -0.06477,0.0069 -0.125401,0.0069 -0.184657,0 -0.333485,-0.05788 -0.14745,-0.05788 -0.252181,-0.170877 -0.103352,-0.114377 -0.159852,-0.283875 -0.05512,-0.169499 -0.05512,-0.392741 0,-0.221864 0.06201,-0.396875 0.06201,-0.176388 0.173633,-0.297656 0.112999,-0.122645 0.270095,-0.186035 0.158474,-0.06477 0.348644,-0.06477 0.121267,0 0.230132,0.02205 0.110243,0.02067 0.210839,0.06752 z"
         style="font-style:normal;font-variant:normal;font-weight:normal;font-stretch:normal;font-size:2.82222px;font-family:Consolas;-inkscape-font-specification:Consolas;stroke-width:0.264583"
         id="path1129" />
    </g>
    <g
       aria-label="G#"
       id="text959-1"
       style="font-style:normal;font-weight:normal;font-size:2.82222px;line-height:1.25;font-family:sans-serif;letter-spacing:0px;word-spacing:0px;fill:#000000;fill-opacity:1;stroke:none;stroke-width:0.264583"
       transform="translate(0.1169304,0.281)">
      <path
         d="m 34.112368,27.395485 q -0.100597,-0.05374 -0.206705,-0.08268 -0.106109,-0.03032 -0.231511,-0.03032 -0.143316,0 -0.254937,0.05099 -0.111621,0.05099 -0.188791,0.144694 -0.07579,0.09233 -0.117133,0.223242 -0.03996,0.130914 -0.03996,0.289388 0,0.165365 0.03307,0.296278 0.03307,0.130914 0.103353,0.221864 0.07028,0.09095 0.179145,0.139182 0.110243,0.04823 0.263205,0.04823 0.02618,0 0.0565,-0.0028 0.03032,-0.0028 0.06063,-0.0069 0.03032,-0.0055 0.05788,-0.0124 0.02894,-0.0069 0.05099,-0.01516 V 28.085882 H 33.510166 V 27.88331 h 0.61047 v 0.920529 q -0.0565,0.02618 -0.119889,0.04685 -0.06201,0.02067 -0.128157,0.03445 -0.06477,0.01378 -0.129536,0.02067 -0.06477,0.0069 -0.125401,0.0069 -0.184657,0 -0.333485,-0.05788 -0.14745,-0.05788 -0.252181,-0.170877 -0.103353,-0.114377 -0.159852,-0.283876 -0.05512,-0.169498 -0.05512,-0.39274 0,-0.221864 0.06201,-0.396875 0.06201,-0.176389 0.173633,-0.297656 0.112999,-0.122645 0.270095,-0.186035 0.158474,-0.06477 0.348643,-0.06477 0.121268,0 0.230132,0.02205 0.110243,0.02067 0.21084,0.06752 z"
         style="font-style:normal;font-variant:normal;font-weight:normal;font-stretch:normal;font-size:2.82222px;font-family:Consolas;-inkscape-font-specification:Consolas;stroke-width:0.264583"
         id="path1132" />
      <path
         d="m 35.697111,28.38216 h -0.307302 l -0.05099,0.505739 H 35.13487 l 0.05099,-0.505739 h -0.3514 l -0.05099,0.505739 h -0.203949 l 0.05099,-0.505739 h -0.293522 v -0.179145 h 0.311437 l 0.04961,-0.482313 H 34.40727 v -0.179145 h 0.30868 l 0.04685,-0.454752 h 0.201193 l -0.04547,0.454752 H 35.2713 l 0.04685,-0.454752 h 0.20395 l -0.04823,0.454752 h 0.296278 v 0.179145 h -0.314193 l -0.04823,0.482313 h 0.289388 z m -0.491959,-0.179145 0.04823,-0.482313 h -0.352778 l -0.04823,0.482313 z"
         style="font-style:normal;font-variant:normal;font-weight:normal;font-stretch:normal;font-size:2.82222px;font-family:Consolas;-inkscape-font-specification:Consolas;stroke-width:0.264583"
         id="path1134" />
    </g>
    <g
       aria-label="A"
       id="text959-36-4"
       style="font-style:normal;font-weight:normal;font-size:2.82222px;line-height:1.25;font-family:sans-serif;letter-spacing:0px;word-spacing:0px;fill:#000000;fill-opacity:1;stroke:none;stroke-width:0.264583">
      <path
         d="m 35.663774,32.326096 h -0.267339 l -0.125401,-0.392741 h -0.749652 l -0.12678,0.392741 h -0.254937 l 0.598069,-1.801095 h 0.336241 z m -0.46302,-0.611849 -0.304546,-0.963248 -0.304546,0.963248 z"
         style="font-style:normal;font-variant:normal;font-weight:normal;font-stretch:normal;font-size:2.82222px;font-family:Consolas;-inkscape-font-specification:Consolas;stroke-width:0.264583"
         id="path1137" />
    </g>
    <g
       aria-label="A#"
       id="text959-36-6"
       style="font-style:normal;font-weight:normal;font-size:2.82222px;line-height:1.25;font-family:sans-serif;letter-spacing:0px;word-spacing:0px;fill:#000000;fill-opacity:1;stroke:none;stroke-width:0.264583">
      <path
         d="M 34.003359,35.242096 H 33.73602 l -0.125402,-0.392741 h -0.749652 l -0.126779,0.392741 H 32.47925 l 0.598068,-1.801095 h 0.336241 z m -0.463021,-0.611849 -0.304546,-0.963248 -0.304546,0.963248 z"
         style="font-style:normal;font-variant:normal;font-weight:normal;font-stretch:normal;font-size:2.82222px;font-family:Consolas;-inkscape-font-specification:Consolas;stroke-width:0.264583"
         id="path1140" />
      <path
         d="m 35.436517,34.736356 h -0.307302 l -0.05099,0.50574 h -0.20395 l 0.05099,-0.50574 h -0.3514 l -0.05099,0.50574 h -0.20395 l 0.05099,-0.50574 h -0.293522 v -0.179145 h 0.311436 l 0.04961,-0.482313 h -0.290766 v -0.179144 h 0.30868 l 0.04685,-0.454753 h 0.201194 l -0.04548,0.454753 h 0.352778 l 0.04685,-0.454753 h 0.20395 l -0.04823,0.454753 h 0.296278 v 0.179144 h -0.314192 l -0.04823,0.482313 h 0.289387 z m -0.491959,-0.179145 0.04823,-0.482313 h -0.352777 l -0.04823,0.482313 z"
         style="font-style:normal;font-variant:normal;font-weight:normal;font-stretch:normal;font-size:2.82222px;font-family:Consolas;-inkscape-font-specification:Consolas;stroke-width:0.264583"
         id="path1142" />
    </g>
    <g
       aria-label="B"
       id="text959-36-42"
       style="font-style:normal;font-weight:normal;font-size:2.82222px;line-height:1.25;font-family:sans-serif;letter-spacing:0px;word-spacing:0px;fill:#000000;fill-opacity:1;stroke:none;stroke-width:0.264583">
      <path
         d="m 32.578873,36.877283 q 0,0.129536 -0.05099,0.230132 -0.04961,0.09922 -0.143316,0.168121 -0.09233,0.0689 -0.22462,0.104731 -0.130914,0.03583 -0.292144,0.03583 h -0.471289 v -1.801095 h 0.515386 q 0.602202,0 0.602202,0.438216 0,0.146072 -0.07028,0.250803 -0.0689,0.104731 -0.225998,0.155718 0.07304,0.01378 0.137804,0.04685 0.06615,0.03307 0.115755,0.08544 0.04961,0.05237 0.07855,0.124023 0.02894,0.07166 0.02894,0.16123 z M 32.259168,36.08629 q 0,-0.05512 -0.01654,-0.103353 -0.01654,-0.04961 -0.05788,-0.08406 -0.04134,-0.03583 -0.111621,-0.0565 -0.07028,-0.02067 -0.177766,-0.02067 h -0.253559 v 0.563617 h 0.24529 q 0.08406,0 0.151584,-0.01791 0.0689,-0.01791 0.117134,-0.05512 0.04961,-0.03721 0.07579,-0.09233 0.02756,-0.0565 0.02756,-0.133669 z m 0.05926,0.799261 q 0,-0.0689 -0.02894,-0.124023 -0.02894,-0.05512 -0.08406,-0.09233 -0.05512,-0.03858 -0.135048,-0.05926 -0.07855,-0.02067 -0.177767,-0.02067 h -0.250802 v 0.620117 h 0.259071 q 0.210839,0 0.314192,-0.07855 0.103353,-0.07855 0.103353,-0.245291 z"
         style="font-style:normal;font-variant:normal;font-weight:normal;font-stretch:normal;font-size:2.82222px;font-family:Consolas;-inkscape-font-specification:Consolas;stroke-width:0.264583"
         id="path1145" />
    </g>
    <g
       aria-label="0"
       id="text1150"
       style="font-style:normal;font-weight:normal;font-size:10.5833px;line-height:1.25;font-family:sans-serif;letter-spacing:0px;word-spacing:0px;fill:#000000;fill-opacity:1;stroke:none;stroke-width:0.264583">
      <path
         d="m 44.814239,36.681599 q 0,0.552593 -0.173632,0.811664 -0.172255,0.257693 -0.536057,0.257693 -0.369314,0 -0.54019,-0.261827 -0.169499,-0.261827 -0.169499,-0.804774 0,-0.547081 0.172255,-0.80753 0.172254,-0.261827 0.537434,-0.261827 0.369314,0 0.538813,0.265961 0.170876,0.264584 0.170876,0.80064 z m -0.362423,0.625629 q 0.04823,-0.111621 0.06477,-0.261827 0.01792,-0.151584 0.01792,-0.363802 0,-0.209462 -0.01792,-0.363802 -0.01654,-0.15434 -0.06615,-0.261827 -0.04823,-0.106109 -0.132291,-0.159852 -0.08268,-0.05374 -0.213596,-0.05374 -0.129535,0 -0.214974,0.05374 -0.08406,0.05374 -0.133669,0.162608 -0.04685,0.101975 -0.06477,0.265961 -0.01654,0.163987 -0.01654,0.359668 0,0.214974 0.01516,0.359668 0.01516,0.144694 0.06477,0.259071 0.04548,0.107487 0.128157,0.163986 0.08406,0.0565 0.221864,0.0565 0.129536,0 0.214974,-0.05374 0.08544,-0.05374 0.132292,-0.162608 z"
         style="font-size:2.82222px;stroke-width:0.264583"
         id="path1284" />
    </g>
    <g
       aria-label="-"
       id="text1150-2"
       style="font-style:normal;font-weight:normal;font-size:10.5833px;line-height:1.25;font-family:sans-serif;letter-spacing:0px;word-spacing:0px;fill:#000000;fill-opacity:1;stroke:none;stroke-width:0.264583">
      <path
         d="m 52.065978,36.851402 h -0.859895 v -0.249424 h 0.859895 z"
         style="font-size:2.82222px;stroke-width:0.264583"
         id="path1314" />
    </g>
    <g
       aria-label="1"
       id="text1150-5"
       style="font-style:normal;font-weight:normal;font-size:10.5833px;line-height:1.25;font-family:sans-serif;letter-spacing:0px;word-spacing:0px;fill:#000000;fill-opacity:1;stroke:none;stroke-width:0.264583">
      <path
         d="M 42.362857,35.309261 H 41.252159 V 35.0998 h 0.427191 v -1.375281 h -0.427191 v -0.187413 q 0.08682,0 0.186035,-0.01378 0.09922,-0.01516 0.150206,-0.04272 0.06339,-0.03445 0.09922,-0.08682 0.03721,-0.05374 0.04272,-0.143316 h 0.213595 V 35.0998 h 0.418924 z"
         style="font-size:2.82222px;stroke-width:0.264583"
         id="path1287" />
    </g>
    <g
       aria-label="2"
       id="text1150-7"
       style="font-style:normal;font-weight:normal;font-size:10.5833px;line-height:1.25;font-family:sans-serif;letter-spacing:0px;word-spacing:0px;fill:#000000;fill-opacity:1;stroke:none;stroke-width:0.264583">
      <path
         d="m 41.63532,31.981617 h -1.389061 v -0.28801 q 0.144694,-0.124023 0.289388,-0.248046 0.146072,-0.124024 0.271473,-0.246669 0.264583,-0.256315 0.362424,-0.406521 0.09784,-0.151584 0.09784,-0.326595 0,-0.159852 -0.106109,-0.249425 -0.104731,-0.09095 -0.293522,-0.09095 -0.125402,0 -0.271474,0.0441 -0.146072,0.0441 -0.285253,0.135048 h -0.01378 v -0.289388 q 0.09784,-0.04823 0.260449,-0.08819 0.163987,-0.03996 0.316949,-0.03996 0.31557,0 0.494715,0.152962 0.179145,0.151584 0.179145,0.412033 0,0.117133 -0.03032,0.219108 -0.02894,0.100596 -0.08682,0.191547 -0.05374,0.08544 -0.126779,0.16812 -0.07166,0.08268 -0.175011,0.183279 -0.14745,0.144694 -0.304546,0.28112 -0.157097,0.135048 -0.293522,0.250803 h 1.103807 z"
         style="font-size:2.82222px;stroke-width:0.264583"
         id="path1290" />
    </g>
    <g
       aria-label="3"
       id="text1150-73"
       style="font-style:normal;font-weight:normal;font-size:10.5833px;line-height:1.25;font-family:sans-serif;letter-spacing:0px;word-spacing:0px;fill:#000000;fill-opacity:1;stroke:none;stroke-width:0.264583">
      <path
         d="m 42.369634,27.492468 q 0.06615,0.05926 0.108865,0.148828 0.04272,0.08957 0.04272,0.23151 0,0.14056 -0.05099,0.257693 -0.05099,0.117133 -0.143316,0.203949 -0.103353,0.09646 -0.243912,0.143316 -0.139182,0.04547 -0.305925,0.04547 -0.170876,0 -0.336241,-0.04134 -0.165364,-0.03996 -0.271473,-0.08819 v -0.28801 h 0.02067 q 0.117133,0.07717 0.275607,0.128158 0.158474,0.05099 0.305924,0.05099 0.08682,0 0.184657,-0.02894 0.09784,-0.02894 0.158475,-0.08544 0.06339,-0.06063 0.09371,-0.13367 0.03169,-0.07304 0.03169,-0.184657 0,-0.110243 -0.03583,-0.181901 -0.03445,-0.07304 -0.09646,-0.114377 -0.06201,-0.04272 -0.150206,-0.05788 -0.08819,-0.01654 -0.190169,-0.01654 h -0.124023 v -0.228754 h 0.09646 q 0.209462,0 0.333485,-0.08682 0.125402,-0.0882 0.125402,-0.256315 0,-0.07441 -0.03169,-0.129536 -0.03169,-0.0565 -0.08819,-0.09233 -0.05926,-0.03583 -0.12678,-0.04961 -0.06752,-0.01378 -0.152962,-0.01378 -0.130913,0 -0.278363,0.04685 -0.14745,0.04685 -0.278364,0.132292 h -0.01378 v -0.28801 q 0.09784,-0.04823 0.260449,-0.08819 0.163986,-0.04134 0.316948,-0.04134 0.150206,0 0.264583,0.02756 0.114377,0.02756 0.206706,0.08819 0.09922,0.06615 0.150206,0.159852 0.05099,0.09371 0.05099,0.219108 0,0.170877 -0.121267,0.299034 -0.119889,0.12678 -0.283876,0.159852 v 0.01929 q 0.06615,0.01102 0.151585,0.04685 0.08544,0.03445 0.144693,0.08682 z"
         style="font-size:2.82222px;stroke-width:0.264583"
         id="path1293" />
    </g>
    <g
       aria-label="4"
       id="text1150-1"
       style="font-style:normal;font-weight:normal;font-size:10.5833px;line-height:1.25;font-family:sans-serif;letter-spacing:0px;word-spacing:0px;fill:#000000;fill-opacity:1;stroke:none;stroke-width:0.264583">
      <path
         d="M 44.865439,25.517743 H 44.560893 V 26.09514 H 44.29631 v -0.577397 h -0.98254 v -0.316949 l 0.993564,-1.157551 h 0.253559 v 1.254014 h 0.304546 z M 44.29631,25.297257 v -0.926041 l -0.795127,0.926041 z"
         style="font-size:2.82222px;stroke-width:0.264583"
         id="path1296" />
    </g>
    <g
       aria-label="5"
       id="text1150-9"
       style="font-style:normal;font-weight:normal;font-size:10.5833px;line-height:1.25;font-family:sans-serif;letter-spacing:0px;word-spacing:0px;fill:#000000;fill-opacity:1;stroke:none;stroke-width:0.264583">
      <path
         d="m 48.648695,24.344185 q 0,0.143316 -0.05236,0.274229 -0.05237,0.130914 -0.143316,0.220486 -0.09922,0.09646 -0.237023,0.148828 -0.136425,0.05099 -0.316948,0.05099 -0.168121,0 -0.323839,-0.03583 -0.155718,-0.03445 -0.263205,-0.08406 v -0.290765 h 0.01929 q 0.113,0.07166 0.264584,0.122645 0.151584,0.04961 0.297656,0.04961 0.09784,0 0.188791,-0.02756 0.09233,-0.02756 0.163986,-0.09646 0.06063,-0.05926 0.09095,-0.141938 0.03169,-0.08268 0.03169,-0.191547 0,-0.106109 -0.03721,-0.179145 -0.03583,-0.07304 -0.100596,-0.117133 -0.07166,-0.05237 -0.175011,-0.07304 -0.101975,-0.02205 -0.228754,-0.02205 -0.121267,0 -0.234266,0.01654 -0.111621,0.01654 -0.192926,0.03307 v -1.056955 h 1.234722 v 0.241157 h -0.96876 v 0.545702 q 0.05925,-0.0055 0.121267,-0.0083 0.06201,-0.0028 0.107487,-0.0028 0.166742,0 0.292144,0.02894 0.125401,0.02756 0.230132,0.09922 0.110243,0.07579 0.170876,0.195681 0.06063,0.119889 0.06063,0.300412 z"
         style="font-size:2.82222px;stroke-width:0.264583"
         id="path1299" />
    </g>
    <g
       aria-label="6"
       id="text1150-23"
       style="font-style:normal;font-weight:normal;font-size:10.5833px;line-height:1.25;font-family:sans-serif;letter-spacing:0px;word-spacing:0px;fill:#000000;fill-opacity:1;stroke:none;stroke-width:0.264583">
      <path
         d="m 52.309077,25.46789 q 0,0.312814 -0.206705,0.511252 -0.205328,0.197059 -0.504362,0.197059 -0.151584,0 -0.275607,-0.04685 -0.124023,-0.04685 -0.219108,-0.139182 -0.118511,-0.114377 -0.183279,-0.303168 -0.06339,-0.188791 -0.06339,-0.454752 0,-0.272852 0.05788,-0.483691 0.05926,-0.21084 0.187413,-0.374826 0.121267,-0.155719 0.312814,-0.242535 0.191548,-0.08819 0.446484,-0.08819 0.08131,0 0.136426,0.0069 0.05512,0.0069 0.111621,0.0248 V 24.3379 h -0.01378 q -0.03858,-0.02067 -0.117133,-0.03859 -0.07717,-0.01929 -0.158475,-0.01929 -0.296278,0 -0.472666,0.186035 -0.176389,0.184657 -0.205328,0.500228 0.115755,-0.07028 0.227376,-0.106109 0.112999,-0.03721 0.260449,-0.03721 0.130914,0 0.230132,0.0248 0.100597,0.02343 0.205328,0.09646 0.121267,0.08406 0.181901,0.212218 0.06201,0.128157 0.06201,0.311436 z m -0.279741,0.01102 q 0,-0.128157 -0.03858,-0.212217 -0.03721,-0.08406 -0.124023,-0.146072 -0.06339,-0.0441 -0.14056,-0.05788 -0.07717,-0.01378 -0.161231,-0.01378 -0.117133,0 -0.217729,0.02756 -0.100597,0.02756 -0.206706,0.08544 -0.0028,0.03032 -0.0041,0.05926 -0.0014,0.02756 -0.0014,0.07028 0,0.21773 0.0441,0.34451 0.04547,0.125401 0.124023,0.198437 0.06339,0.06063 0.136426,0.08957 0.07441,0.02756 0.16123,0.02756 0.199816,0 0.314193,-0.121267 0.114377,-0.122646 0.114377,-0.3514 z"
         style="font-size:2.82222px;stroke-width:0.264583"
         id="path1302" />
    </g>
    <g
       aria-label="7"
       id="text1150-6"
       style="font-style:normal;font-weight:normal;font-size:10.5833px;line-height:1.25;font-family:sans-serif;letter-spacing:0px;word-spacing:0px;fill:#000000;fill-opacity:1;stroke:none;stroke-width:0.264583">
      <path
         d="m 54.505933,26.693302 -0.928797,1.744595 h -0.2949 l 0.988053,-1.810741 h -1.168575 v -0.241157 h 1.404219 z"
         style="font-size:2.82222px;stroke-width:0.264583"
         id="path1305" />
    </g>
    <g
       aria-label="8"
       id="text1150-10"
       style="font-style:normal;font-weight:normal;font-size:10.5833px;line-height:1.25;font-family:sans-serif;letter-spacing:0px;word-spacing:0px;fill:#000000;fill-opacity:1;stroke:none;stroke-width:0.264583">
      <path
         d="m 55.45102,31.413865 q 0,0.265961 -0.208084,0.44235 -0.206705,0.176388 -0.520898,0.176388 -0.333485,0 -0.531922,-0.172254 -0.19706,-0.172255 -0.19706,-0.440972 0,-0.170877 0.09922,-0.30868 0.09922,-0.139182 0.279742,-0.220486 v -0.0083 q -0.165365,-0.08819 -0.245291,-0.192925 -0.07855,-0.104731 -0.07855,-0.261827 0,-0.23151 0.190169,-0.38585 0.190169,-0.15434 0.483691,-0.15434 0.307302,0 0.490581,0.14745 0.183279,0.14745 0.183279,0.374826 0,0.139181 -0.08682,0.274229 -0.08682,0.13367 -0.254937,0.209462 v 0.0083 q 0.192925,0.08268 0.2949,0.203949 0.101975,0.121268 0.101975,0.308681 z m -0.326595,-1.001833 q 0,-0.14745 -0.114377,-0.234267 -0.112999,-0.08819 -0.289388,-0.08819 -0.173633,0 -0.285254,0.08268 -0.110243,0.08268 -0.110243,0.223242 0,0.09922 0.05512,0.172255 0.0565,0.07166 0.169498,0.128157 0.05099,0.02481 0.146072,0.06477 0.09646,0.03996 0.187413,0.06615 0.136426,-0.09095 0.188792,-0.188791 0.05237,-0.09784 0.05237,-0.225998 z m 0.04272,1.028015 q 0,-0.126779 -0.0565,-0.202571 -0.05512,-0.07717 -0.21773,-0.15434 -0.06477,-0.03032 -0.141938,-0.0565 -0.07717,-0.02618 -0.205328,-0.07304 -0.124023,0.06752 -0.199815,0.183279 -0.07441,0.115755 -0.07441,0.261827 0,0.186035 0.128157,0.307303 0.128158,0.121267 0.325217,0.121267 0.201194,0 0.321083,-0.103353 0.121267,-0.103353 0.121267,-0.283876 z"
         style="font-size:2.82222px;stroke-width:0.264583"
         id="path1308" />
    </g>
    <g
       aria-label="9"
       id="text1150-3"
       style="font-style:normal;font-weight:normal;font-size:10.5833px;line-height:1.25;font-family:sans-serif;letter-spacing:0px;word-spacing:0px;fill:#000000;fill-opacity:1;stroke:none;stroke-width:0.264583">
      <path
         d="m 54.544357,34.193956 q 0,0.268717 -0.06201,0.487825 -0.06063,0.219108 -0.184657,0.373448 -0.125401,0.157096 -0.314192,0.242535 -0.188791,0.08544 -0.443728,0.08544 -0.07166,0 -0.135048,-0.0083 -0.06339,-0.0069 -0.112999,-0.02343 v -0.263205 h 0.01378 q 0.03996,0.02067 0.112999,0.03996 0.07304,0.01792 0.162608,0.01792 0.304546,0 0.476801,-0.181901 0.173633,-0.183279 0.201193,-0.504362 -0.128157,0.07717 -0.241156,0.110243 -0.112999,0.03307 -0.246669,0.03307 -0.126779,0 -0.230132,-0.02481 -0.101975,-0.0248 -0.205327,-0.09646 -0.121268,-0.08406 -0.183279,-0.213596 -0.06063,-0.129536 -0.06063,-0.310059 0,-0.314192 0.206706,-0.511251 0.206705,-0.19706 0.504361,-0.19706 0.148828,0 0.275608,0.04685 0.126779,0.04547 0.221864,0.137803 0.117133,0.114377 0.180522,0.2949 0.06339,0.179145 0.06339,0.464399 z M 54.265994,34.1347 q 0,-0.213596 -0.0441,-0.343131 -0.0441,-0.129535 -0.121267,-0.201193 -0.06477,-0.06201 -0.139182,-0.08819 -0.07441,-0.02756 -0.16123,-0.02756 -0.198437,0 -0.314192,0.124024 -0.114378,0.124023 -0.114378,0.348643 0,0.130914 0.03721,0.213596 0.03721,0.08268 0.125402,0.144694 0.06201,0.04272 0.136426,0.05788 0.07441,0.01378 0.165364,0.01378 0.107487,0 0.21773,-0.02894 0.110243,-0.02894 0.206705,-0.08406 0.0014,-0.02894 0.0028,-0.0565 0.0028,-0.02894 0.0028,-0.07304 z"
         style="font-size:2.82222px;stroke-width:0.264583"
         id="path1311" />
    </g>
    <g
       aria-label="OCTAVE"
       id="text936"
       style="font-style:normal;font-weight:normal;font-size:10.5833px;line-height:1.25;font-family:sans-serif;letter-spacing:0px;word-spacing:0px;fill:#000000;fill-opacity:1;stroke:none;stroke-width:0.264583">
      <path
         d="m 42.827357,19.370457 q 0,0.363802 -0.08682,0.628385 -0.08475,0.264583 -0.23151,0.438216 -0.144694,0.171565 -0.341065,0.256315 -0.194303,0.08268 -0.411344,0.08268 -0.260449,0 -0.454752,-0.09302 -0.192236,-0.09508 -0.320393,-0.272851 -0.126091,-0.177767 -0.188103,-0.432015 -0.06201,-0.256315 -0.06201,-0.576708 0,-0.359668 0.08475,-0.624251 0.08475,-0.264583 0.229443,-0.436149 0.146761,-0.173632 0.341064,-0.256315 0.194304,-0.08475 0.411344,-0.08475 0.260449,0 0.452686,0.09509 0.194303,0.09508 0.32246,0.272851 0.128158,0.1757 0.190169,0.429948 0.06408,0.254247 0.06408,0.572574 z m -0.382405,0.02687 q 0,-0.237712 -0.03721,-0.434082 -0.03514,-0.198437 -0.115755,-0.341064 -0.08062,-0.142627 -0.208773,-0.221175 -0.12609,-0.07855 -0.305924,-0.07855 -0.173633,0 -0.299723,0.08475 -0.124023,0.08268 -0.204639,0.227376 -0.08062,0.142627 -0.119889,0.33693 -0.03927,0.192236 -0.03927,0.409277 0,0.239779 0.03721,0.438216 0.03721,0.19637 0.115755,0.338997 0.08061,0.14056 0.206706,0.219108 0.12609,0.07855 0.303857,0.07855 0.173633,0 0.299723,-0.08268 0.12609,-0.08475 0.206706,-0.227376 0.08268,-0.144694 0.121956,-0.33693 0.03927,-0.192236 0.03927,-0.411344 z"
         style="font-style:normal;font-variant:normal;font-weight:normal;font-stretch:normal;font-size:4.23333px;font-family:Consolas;-inkscape-font-specification:Consolas;stroke-width:0.264583"
         id="path952" />
      <path
         d="m 44.997766,20.637562 q -0.324528,0.134359 -0.680062,0.134359 -0.572574,0 -0.880565,-0.341065 -0.305925,-0.343131 -0.305925,-1.012857 0,-0.324527 0.08475,-0.587044 0.08475,-0.262516 0.241845,-0.444416 0.157096,-0.183968 0.380338,-0.283187 0.223242,-0.09922 0.500228,-0.09922 0.188102,0 0.349332,0.03307 0.161231,0.03101 0.310059,0.09715 v 0.361734 q -0.146761,-0.08062 -0.303858,-0.121956 -0.157096,-0.04341 -0.343131,-0.04341 -0.190169,0 -0.345198,0.07235 -0.152962,0.07028 -0.260449,0.206706 -0.107487,0.134358 -0.165365,0.330728 -0.05788,0.194304 -0.05788,0.444417 0,0.525032 0.212907,0.791683 0.212906,0.26665 0.62425,0.26665 0.173633,0 0.332796,-0.03927 0.159164,-0.04134 0.305925,-0.113688 z"
         style="font-style:normal;font-variant:normal;font-weight:normal;font-stretch:normal;font-size:4.23333px;font-family:Consolas;-inkscape-font-specification:Consolas;stroke-width:0.264583"
         id="path954" />
      <path
         d="m 47.418288,18.351399 h -0.799951 v 2.387449 h -0.37207 v -2.387449 h -0.79995 v -0.314193 h 1.971971 z"
         style="font-style:normal;font-variant:normal;font-weight:normal;font-stretch:normal;font-size:4.23333px;font-family:Consolas;-inkscape-font-specification:Consolas;stroke-width:0.264583"
         id="path956" />
      <path
         d="M 49.902889,20.738848 H 49.50188 l -0.188102,-0.589111 h -1.124479 l -0.190169,0.589111 h -0.382405 l 0.897102,-2.701642 h 0.504362 z m -0.694531,-0.917773 -0.456819,-1.444872 -0.45682,1.444872 z"
         style="font-style:normal;font-variant:normal;font-weight:normal;font-stretch:normal;font-size:4.23333px;font-family:Consolas;-inkscape-font-specification:Consolas;stroke-width:0.264583"
         id="path958" />
      <path
         d="m 52.242796,18.037206 -0.917773,2.701642 H 50.82893 l -0.897103,-2.701642 h 0.415479 l 0.582909,1.821076 0.165365,0.5333 0.169498,-0.5333 0.584977,-1.821076 z"
         style="font-style:normal;font-variant:normal;font-weight:normal;font-stretch:normal;font-size:4.23333px;font-family:Consolas;-inkscape-font-specification:Consolas;stroke-width:0.264583"
         id="path960" />
      <path
         d="m 54.202365,20.738848 h -1.535823 v -2.701642 h 1.535823 v 0.310058 h -1.167887 v 0.837158 h 1.122412 v 0.310058 h -1.122412 v 0.930175 h 1.167887 z"
         style="font-style:normal;font-variant:normal;font-weight:normal;font-stretch:normal;font-size:4.23333px;font-family:Consolas;-inkscape-font-specification:Consolas;stroke-width:0.264583"
         id="path962" />
    </g>
  </g>
  <g
     inkscape:groupmode="layer"
     id="layer3"
     inkscape:label="Layer 2"
     style="display:none">
    <ellipse
       style="fill:#c8c896;stroke:#000000;stroke-width:0.895262;stroke-linejoin:round"
       id="path877"
       cx="28.076279"
       cy="30.933855"
       rx="4.5523672"
       ry="4.5523691" />
    <ellipse
       style="fill:#c8c896;stroke:#000000;stroke-width:0.895262;stroke-linejoin:round"
       id="path877-8"
       cx="47.889591"
       cy="30.934"
       rx="4.5523672"
       ry="4.5523691" />
    <circle
       style="fill:none;stroke:#000000;stroke-width:0.207031;stroke-linejoin:round;stroke-miterlimit:4;stroke-dasharray:none"
       id="path905"
       cx="28.030001"
       cy="30.874001"
       r="6.8964844" />
    <circle
       style="fill:none;stroke:#000000;stroke-width:0.207031;stroke-linejoin:round;stroke-miterlimit:4;stroke-dasharray:none"
       id="path905-6"
       cx="47.822998"
       cy="30.874001"
       r="6.8964844" />
  </g>
  <g
     inkscape:groupmode="layer"
     id="layer2"
     inkscape:label="components"
     style="display:none">
    <circle
       style="fill:#00ff00;fill-opacity:1;stroke:none;stroke-width:0.162279;stroke-linejoin:round"
       id="cir1"
       cx="9.9529171"
       cy="30.918859"
       r="3.9188602"
       inkscape:label="pitch1" />
    <circle
       style="fill:#0000ff;fill-opacity:1;stroke:none;stroke-width:0.162279;stroke-linejoin:round"
       id="path842-6"
       cx="69.812607"
       cy="30.918859"
       r="3.9188602"
       inkscape:label="logicout1" />
    <circle
       style="fill:#ff0000;fill-opacity:1;stroke:none;stroke-width:0.162279;stroke-linejoin:round"
       id="cir1-7"
       cx="28.045834"
       cy="30.918859"
       r="3.9188602"
       inkscape:label="note1" />
    <circle
       style="fill:#ff0000;fill-opacity:1;stroke:none;stroke-width:0.162279;stroke-linejoin:round"
       id="cir1-7-1"
       cx="47.889584"
       cy="30.918859"
       r="3.9188602"
       inkscape:label="octave1" />
  </g>
</svg>
