<?xml version="1.0" encoding="UTF-8" standalone="no"?>
<svg
   xmlns:dc="http://purl.org/dc/elements/1.1/"
   xmlns:cc="http://creativecommons.org/ns#"
   xmlns:rdf="http://www.w3.org/1999/02/22-rdf-syntax-ns#"
   xmlns:svg="http://www.w3.org/2000/svg"
   xmlns="http://www.w3.org/2000/svg"
   xmlns:sodipodi="http://sodipodi.sourceforge.net/DTD/sodipodi-0.dtd"
   xmlns:inkscape="http://www.inkscape.org/namespaces/inkscape"
   width="121.92mm"
   height="128.5mm"
   viewBox="0 0 121.92 128.5"
   version="1.1"
   id="svg8"
   inkscape:version="1.0.2-2 (e86c870879, 2021-01-15)"
   sodipodi:docname="SwitchStatement.svg">
  <defs
     id="defs2">
    <inkscape:perspective
       sodipodi:type="inkscape:persp3d"
       inkscape:vp_x="0 : 64.25 : 1"
       inkscape:vp_y="0 : 1000 : 0"
       inkscape:vp_z="81.279997 : 64.25 : 1"
       inkscape:persp3d-origin="40.639999 : 42.833333 : 1"
       id="perspective869" />
  </defs>
  <sodipodi:namedview
     id="base"
     pagecolor="#ffffff"
     bordercolor="#666666"
     borderopacity="1.0"
     inkscape:pageopacity="0.0"
     inkscape:pageshadow="2"
     inkscape:zoom="1.4142136"
     inkscape:cx="276.33098"
     inkscape:cy="237.99696"
     inkscape:document-units="mm"
     inkscape:current-layer="layer1"
     inkscape:document-rotation="0"
     showgrid="false"
     inkscape:window-width="1920"
     inkscape:window-height="1017"
     inkscape:window-x="-8"
     inkscape:window-y="-8"
     inkscape:window-maximized="1"
     showguides="true" />
  <metadata
     id="metadata5">
    <rdf:RDF>
      <cc:Work
         rdf:about="">
        <dc:format>image/svg+xml</dc:format>
        <dc:type
           rdf:resource="http://purl.org/dc/dcmitype/StillImage" />
        <dc:title />
      </cc:Work>
    </rdf:RDF>
  </metadata>
  <g
     inkscape:label="Layer 1"
     inkscape:groupmode="layer"
     id="layer1"
     style="display:inline">
    <rect
       style="fill:#e6e6e6;fill-opacity:1;stroke:#000000;stroke-width:0.324;stroke-linejoin:round;stroke-miterlimit:4;stroke-dasharray:none"
       id="rect835"
       width="121.59595"
       height="128.44095"
       x="0.16202505"
       y="0.16202505" />
    <rect
       style="display:inline;fill:#000000;stroke:none;stroke-width:1.21416;stroke-linejoin:round"
       id="rect1000-6-4-32-5"
       width="0.15000001"
       height="84.5"
       x="12.7"
       y="25.058334" />
    <g
       aria-label="JUST LOGIC"
       id="text839"
       style="font-style:normal;font-weight:normal;font-size:4.58611px;line-height:1.25;font-family:sans-serif;letter-spacing:0px;word-spacing:0px;fill:#000000;fill-opacity:1;stroke:none;stroke-width:0.264583"
       transform="translate(20.637507,1)">
      <path
         d="M 24.847904,120.27975 V 120 h 3.256138 v 0.27975 z m 0,4.34764 v -0.29351 h 3.256138 v 0.29351 z m 1.123597,-1.82527 q 0.10548,0.40357 0.366889,0.40357 0.10548,0 0.18803,-0.0734 0.08714,-0.078 0.08714,-0.28893 v -1.72896 h 0.41275 v 1.75189 q 0,0.30268 -0.183444,0.49989 -0.183445,0.19261 -0.504472,0.19261 -0.1651,0 -0.284339,-0.0459 -0.119239,-0.0504 -0.206375,-0.13299 -0.08255,-0.0825 -0.137583,-0.19262 -0.05045,-0.11465 -0.07796,-0.24765 z"
         style="font-style:normal;font-variant:normal;font-weight:normal;font-stretch:normal;font-size:4.58611px;font-family:'INSPECTIONXPERT GDT FRAMES';-inkscape-font-specification:'INSPECTIONXPERT GDT FRAMES';stroke-width:0.264583"
         id="path925" />
      <path
         d="M 28.058176,120.27975 V 120 h 3.256138 v 0.27975 z m 0,4.34764 v -0.29351 h 3.256138 v 0.29351 z m 1.068563,-3.51755 v 1.63266 q 0,0.24765 0.155928,0.35771 0.160514,0.10548 0.403578,0.10548 0.100894,0 0.201789,-0.0183 0.10548,-0.0229 0.183444,-0.0734 0.07796,-0.055 0.128411,-0.14217 0.05045,-0.0917 0.05045,-0.2293 v -1.63266 h 0.421922 v 1.68769 q 0,0.37147 -0.24765,0.56868 -0.247649,0.19261 -0.733777,0.19261 -0.476956,0 -0.733778,-0.19261 -0.252236,-0.19721 -0.252236,-0.56868 v -1.68769 z"
         style="font-style:normal;font-variant:normal;font-weight:normal;font-stretch:normal;font-size:4.58611px;font-family:'INSPECTIONXPERT GDT FRAMES';-inkscape-font-specification:'INSPECTIONXPERT GDT FRAMES';stroke-width:0.264583"
         id="path927" />
      <path
         d="M 31.268447,120.27975 V 120 h 3.256139 v 0.27975 z m 0,4.34764 v -0.29351 h 3.256139 v 0.29351 z m 1.605139,-1.06857 q -0.1651,0 -0.302683,-0.0459 -0.137584,-0.0504 -0.243064,-0.13299 -0.105481,-0.0825 -0.178858,-0.19262 -0.06879,-0.11465 -0.09631,-0.24765 l 0.339372,-0.13758 q 0.02752,0.10089 0.07796,0.17885 0.05503,0.0734 0.119239,0.12383 0.06879,0.0504 0.14217,0.078 0.07338,0.0229 0.142169,0.0229 0.201789,0 0.307269,-0.10089 0.105481,-0.1009 0.105481,-0.25682 0,-0.11466 -0.08255,-0.18803 -0.08255,-0.0734 -0.210961,-0.133 -0.123825,-0.0596 -0.270581,-0.11924 -0.142169,-0.0596 -0.27058,-0.14676 -0.123825,-0.0871 -0.206375,-0.21096 -0.08255,-0.12841 -0.08255,-0.32561 0,-0.12841 0.05503,-0.24765 0.05962,-0.11924 0.160514,-0.21096 0.100895,-0.0917 0.238478,-0.14676 0.137583,-0.055 0.302683,-0.055 0.3302,0 0.522817,0.17886 0.197202,0.17886 0.252236,0.44026 l -0.339372,0.13759 q -0.05045,-0.20179 -0.178859,-0.30269 -0.123825,-0.10089 -0.256822,-0.10089 -0.06879,0 -0.132997,0.0275 -0.05962,0.0229 -0.110067,0.0688 -0.04586,0.0413 -0.07338,0.0963 -0.02752,0.055 -0.02752,0.11465 0,0.12841 0.08255,0.20637 0.08255,0.0734 0.206375,0.133 0.128411,0.055 0.27058,0.11007 0.146756,0.055 0.270581,0.13758 0.128411,0.0825 0.210961,0.21096 0.08255,0.12383 0.08255,0.32562 0,0.13758 -0.05962,0.26599 -0.05503,0.12841 -0.1651,0.22931 -0.10548,0.0963 -0.256822,0.15592 -0.151341,0.0596 -0.343958,0.0596 z"
         style="font-style:normal;font-variant:normal;font-weight:normal;font-stretch:normal;font-size:4.58611px;font-family:'INSPECTIONXPERT GDT FRAMES';-inkscape-font-specification:'INSPECTIONXPERT GDT FRAMES';stroke-width:0.264583"
         id="path929" />
      <path
         d="M 34.478719,120.27975 V 120 h 3.256138 v 0.27975 z m 0,4.34764 v -0.29351 h 3.256138 v 0.29351 z m 2.614083,-3.51755 v 0.36689 h -0.779639 v 2.03623 h -0.41275 v -2.03164 h -0.779638 v -0.37148 z"
         style="font-style:normal;font-variant:normal;font-weight:normal;font-stretch:normal;font-size:4.58611px;font-family:'INSPECTIONXPERT GDT FRAMES';-inkscape-font-specification:'INSPECTIONXPERT GDT FRAMES';stroke-width:0.264583"
         id="path931" />
      <path
         d="M 39.982037,120.27975 V 120 h 3.256138 v 0.27975 z m 0,4.34764 v -0.29351 h 3.256138 v 0.29351 z m 1.472141,-3.51755 v 2.04082 h 1.059392 v 0.3623 h -1.476728 v -2.40312 z"
         style="font-style:normal;font-variant:normal;font-weight:normal;font-stretch:normal;font-size:4.58611px;font-family:'INSPECTIONXPERT GDT FRAMES';-inkscape-font-specification:'INSPECTIONXPERT GDT FRAMES';stroke-width:0.264583"
         id="path933" />
      <path
         d="M 43.19231,120.27975 V 120 h 3.256138 v 0.27975 z m 0,4.34764 v -0.29351 h 3.256138 v 0.29351 z m 1.628069,-3.56341 q 0.270581,0 0.486128,0.0825 0.215547,0.0825 0.362302,0.23848 0.151342,0.15592 0.229306,0.38523 0.08255,0.22472 0.08255,0.51364 0,0.29352 -0.07338,0.53199 -0.07338,0.2339 -0.220133,0.399 -0.146756,0.1651 -0.366889,0.25682 -0.215547,0.0871 -0.504472,0.0871 -0.568678,0 -0.866775,-0.33478 -0.298097,-0.33937 -0.298097,-0.9264 0,-0.59619 0.307269,-0.91263 0.30727,-0.32103 0.862189,-0.32103 z m 0.0046,0.35313 q -0.18803,0 -0.3302,0.0642 -0.142169,0.0642 -0.238478,0.18344 -0.09172,0.11465 -0.137583,0.27975 -0.04586,0.16052 -0.04586,0.35772 0,0.18803 0.04586,0.35313 0.04586,0.16051 0.137583,0.28434 0.09631,0.12382 0.233892,0.1972 0.137583,0.0688 0.321028,0.0688 0.192616,0 0.334786,-0.0688 0.142169,-0.0688 0.233891,-0.19262 0.09172,-0.12382 0.137584,-0.28892 0.04586,-0.1651 0.04586,-0.35772 0,-0.18803 -0.05045,-0.34854 -0.04586,-0.1651 -0.137584,-0.27975 -0.09172,-0.11924 -0.229305,-0.18345 -0.137583,-0.0688 -0.321028,-0.0688 z"
         style="font-style:normal;font-variant:normal;font-weight:normal;font-stretch:normal;font-size:4.58611px;font-family:'INSPECTIONXPERT GDT FRAMES';-inkscape-font-specification:'INSPECTIONXPERT GDT FRAMES';stroke-width:0.264583"
         id="path935" />
      <path
         d="M 46.402582,120.27975 V 120 h 3.256138 v 0.27975 z m 0,4.34764 v -0.29351 h 3.256138 v 0.29351 z m 1.715205,-3.54507 q 0.348544,0 0.573264,0.15593 0.229305,0.15593 0.348544,0.41734 l -0.362303,0.16051 q -0.08714,-0.15593 -0.220133,-0.26141 -0.128411,-0.10548 -0.339372,-0.10548 -0.394406,0 -0.596194,0.23848 -0.201789,0.23389 -0.201789,0.60537 0,0.41733 0.220133,0.6604 0.224719,0.23847 0.651228,0.23847 0.119239,0 0.210961,-0.0183 0.09172,-0.0229 0.201789,-0.0688 v -0.51823 h -0.527403 l 0.09172,-0.37148 h 0.848431 v 1.0915 q -0.206375,0.13299 -0.398992,0.18803 -0.192617,0.0504 -0.435681,0.0504 -0.596194,0 -0.935566,-0.31186 -0.339372,-0.31186 -0.339372,-0.91722 0,-0.27976 0.08255,-0.50447 0.08255,-0.22931 0.238478,-0.38982 0.160513,-0.1651 0.380647,-0.25224 0.224719,-0.0871 0.509058,-0.0871 z"
         style="font-style:normal;font-variant:normal;font-weight:normal;font-stretch:normal;font-size:4.58611px;font-family:'INSPECTIONXPERT GDT FRAMES';-inkscape-font-specification:'INSPECTIONXPERT GDT FRAMES';stroke-width:0.264583"
         id="path937" />
      <path
         d="M 49.612854,120.27975 V 120 h 3.256138 v 0.27975 z m 0,4.34764 v -0.29351 h 3.256138 v 0.29351 z m 1.834444,-3.51755 v 2.40312 h -0.41275 v -2.40312 z"
         style="font-style:normal;font-variant:normal;font-weight:normal;font-stretch:normal;font-size:4.58611px;font-family:'INSPECTIONXPERT GDT FRAMES';-inkscape-font-specification:'INSPECTIONXPERT GDT FRAMES';stroke-width:0.264583"
         id="path939" />
      <path
         d="M 52.823125,120.27975 V 120 h 3.256139 v 0.27975 z m 0,4.34764 v -0.29351 h 3.256139 v 0.29351 z m 1.696861,-1.06857 q -0.284339,0 -0.509058,-0.0917 -0.224719,-0.0917 -0.385233,-0.25682 -0.155928,-0.1651 -0.238478,-0.39441 -0.08255,-0.23389 -0.08255,-0.51364 0,-0.27975 0.08255,-0.50447 0.08255,-0.22931 0.238478,-0.38524 0.160514,-0.16051 0.385233,-0.24306 0.224719,-0.0871 0.509058,-0.0871 0.343958,0 0.573264,0.15135 0.229305,0.15134 0.366889,0.44485 l -0.339372,0.16051 q -0.105481,-0.19261 -0.24765,-0.28892 -0.14217,-0.1009 -0.353131,-0.1009 -0.380647,0 -0.582436,0.23389 -0.197203,0.22931 -0.197203,0.60078 0,0.18804 0.05045,0.35314 0.05045,0.1651 0.146755,0.28892 0.100895,0.12383 0.24765,0.1972 0.146756,0.0688 0.334786,0.0688 0.210961,0 0.353131,-0.0963 0.142169,-0.1009 0.24765,-0.29351 l 0.339372,0.16051 q -0.137584,0.29351 -0.366889,0.44485 -0.229306,0.15134 -0.573264,0.15134 z"
         style="font-style:normal;font-variant:normal;font-weight:normal;font-stretch:normal;font-size:4.58611px;font-family:'INSPECTIONXPERT GDT FRAMES';-inkscape-font-specification:'INSPECTIONXPERT GDT FRAMES';stroke-width:0.264583"
         id="path941" />
    </g>
    <rect
       style="fill:#000000;fill-opacity:1;stroke:none;stroke-width:0.258271;stroke-linejoin:round;stroke-miterlimit:4;stroke-dasharray:none"
       id="rect867"
       width="16.103308"
       height="89.097008"
       x="103.90327"
       y="27.848833"
       ry="3.9540091" />
    <text
       xml:space="preserve"
       style="font-style:normal;font-weight:normal;font-size:10.5833px;line-height:1.25;font-family:sans-serif;letter-spacing:0px;word-spacing:0px;fill:#000000;fill-opacity:1;stroke:none;stroke-width:0.264583"
       x="70.643745"
       y="-1.0583333"
       id="text963"><tspan
         sodipodi:role="line"
         id="tspan961"
         x="70.643745"
         y="-1.0583333"
         style="stroke-width:0.264583" /></text>
    <g
       aria-label="NOTE"
       id="text980"
       style="font-size:3.52778px;line-height:1.25;font-family:sans-serif;letter-spacing:0px;word-spacing:0px;stroke-width:0.264583"
       transform="translate(1.5260913,11.377089)">
      <path
         d="M 25.055493,20.618275 H 24.633468 L 23.417349,18.32384 v 2.294435 H 23.098677 V 18.053399 H 23.6275 l 1.109321,2.09462 v -2.09462 h 0.318672 z"
         style="font-size:3.52778px;stroke-width:0.264583"
         id="path1019" />
      <path
         d="m 27.649651,18.347955 q 0.156752,0.172255 0.239435,0.422025 0.08441,0.249769 0.08441,0.566718 0,0.316949 -0.08613,0.568441 -0.08441,0.24977 -0.237712,0.416857 -0.158474,0.173978 -0.375515,0.261828 -0.215319,0.08785 -0.492649,0.08785 -0.27044,0 -0.492649,-0.08957 -0.220486,-0.08957 -0.375516,-0.260105 -0.155029,-0.170532 -0.239434,-0.418579 -0.08268,-0.248047 -0.08268,-0.566719 0,-0.313504 0.08268,-0.561551 0.08268,-0.249769 0.241157,-0.427192 0.151584,-0.168809 0.375515,-0.258382 Q 26.516214,18 26.781487,18 q 0.275608,0 0.494371,0.0913 0.220487,0.08957 0.373793,0.256659 z m -0.03101,0.988743 q 0,-0.499539 -0.223932,-0.769979 -0.223931,-0.272163 -0.611505,-0.272163 -0.391018,0 -0.61495,0.272163 -0.222208,0.27044 -0.222208,0.769979 0,0.504707 0.227376,0.773425 0.227377,0.266995 0.609782,0.266995 0.382406,0 0.60806,-0.266995 0.227377,-0.268718 0.227377,-0.773425 z"
         style="font-size:3.52778px;stroke-width:0.264583"
         id="path1021" />
      <path
         d="m 30.25759,18.356568 h -0.916396 v 2.261707 H 29.00013 v -2.261707 h -0.916396 v -0.303169 h 2.173856 z"
         style="font-size:3.52778px;stroke-width:0.264583"
         id="path1023" />
      <path
         d="M 32.29192,20.618275 H 30.6021 v -2.564876 h 1.68982 v 0.303169 h -1.348755 v 0.7028 h 1.348755 v 0.303169 h -1.348755 v 0.952569 h 1.348755 z"
         style="font-size:3.52778px;stroke-width:0.264583"
         id="path1025" />
    </g>
    <g
       aria-label="IN"
       id="text1008"
       style="font-size:4.5861px;line-height:1.25;font-family:sans-serif;letter-spacing:0px;word-spacing:0px;stroke-width:0.264583"
       transform="translate(42.816353,-6.9416656)">
      <path
         d="M 8.5425524,20.564875 H 7.5296937 v -0.261828 h 0.335897 v -2.04122 h -0.335897 v -0.261828 h 1.0128587 v 0.261828 h -0.335897 v 2.04122 h 0.335897 z"
         style="font-size:3.52778px;stroke-width:0.264583"
         id="path1014" />
      <path
         d="M 11.079867,20.564875 H 10.657842 L 9.4417229,18.27044 v 2.294435 H 9.1230513 v -2.564876 h 0.5288225 l 1.1093212,2.09462 v -2.09462 h 0.318672 z"
         style="font-size:3.52778px;stroke-width:0.264583"
         id="path1016" />
    </g>
    <g
       aria-label="D"
       id="text903-6"
       style="font-style:normal;font-weight:normal;font-size:10.5833px;line-height:1.25;font-family:sans-serif;letter-spacing:0px;word-spacing:0px;fill:#000000;fill-opacity:1;stroke:none;stroke-width:0.264583"
       transform="translate(0.33072915,0.36380208)" />
    <g
       aria-label="OCTAVE"
       id="text936"
       style="font-style:normal;font-weight:normal;font-size:10.5833px;line-height:1.25;font-family:sans-serif;letter-spacing:0px;word-spacing:0px;fill:#000000;fill-opacity:1;stroke:none;stroke-width:0.264583"
       transform="translate(-1.3226674,11.377089)">
      <path
         d="m 42.827357,19.370457 q 0,0.363802 -0.08682,0.628385 -0.08475,0.264583 -0.23151,0.438216 -0.144694,0.171565 -0.341065,0.256315 -0.194303,0.08268 -0.411344,0.08268 -0.260449,0 -0.454752,-0.09302 -0.192236,-0.09508 -0.320393,-0.272851 -0.126091,-0.177767 -0.188103,-0.432015 -0.06201,-0.256315 -0.06201,-0.576708 0,-0.359668 0.08475,-0.624251 0.08475,-0.264583 0.229443,-0.436149 0.146761,-0.173632 0.341064,-0.256315 0.194304,-0.08475 0.411344,-0.08475 0.260449,0 0.452686,0.09509 0.194303,0.09508 0.32246,0.272851 0.128158,0.1757 0.190169,0.429948 0.06408,0.254247 0.06408,0.572574 z m -0.382405,0.02687 q 0,-0.237712 -0.03721,-0.434082 -0.03514,-0.198437 -0.115755,-0.341064 -0.08062,-0.142627 -0.208773,-0.221175 -0.12609,-0.07855 -0.305924,-0.07855 -0.173633,0 -0.299723,0.08475 -0.124023,0.08268 -0.204639,0.227376 -0.08062,0.142627 -0.119889,0.33693 -0.03927,0.192236 -0.03927,0.409277 0,0.239779 0.03721,0.438216 0.03721,0.19637 0.115755,0.338997 0.08061,0.14056 0.206706,0.219108 0.12609,0.07855 0.303857,0.07855 0.173633,0 0.299723,-0.08268 0.12609,-0.08475 0.206706,-0.227376 0.08268,-0.144694 0.121956,-0.33693 0.03927,-0.192236 0.03927,-0.411344 z"
         style="font-style:normal;font-variant:normal;font-weight:normal;font-stretch:normal;font-size:4.23333px;font-family:Consolas;-inkscape-font-specification:Consolas;stroke-width:0.264583"
         id="path952" />
      <path
         d="m 44.997766,20.637562 q -0.324528,0.134359 -0.680062,0.134359 -0.572574,0 -0.880565,-0.341065 -0.305925,-0.343131 -0.305925,-1.012857 0,-0.324527 0.08475,-0.587044 0.08475,-0.262516 0.241845,-0.444416 0.157096,-0.183968 0.380338,-0.283187 0.223242,-0.09922 0.500228,-0.09922 0.188102,0 0.349332,0.03307 0.161231,0.03101 0.310059,0.09715 v 0.361734 q -0.146761,-0.08062 -0.303858,-0.121956 -0.157096,-0.04341 -0.343131,-0.04341 -0.190169,0 -0.345198,0.07235 -0.152962,0.07028 -0.260449,0.206706 -0.107487,0.134358 -0.165365,0.330728 -0.05788,0.194304 -0.05788,0.444417 0,0.525032 0.212907,0.791683 0.212906,0.26665 0.62425,0.26665 0.173633,0 0.332796,-0.03927 0.159164,-0.04134 0.305925,-0.113688 z"
         style="font-style:normal;font-variant:normal;font-weight:normal;font-stretch:normal;font-size:4.23333px;font-family:Consolas;-inkscape-font-specification:Consolas;stroke-width:0.264583"
         id="path954" />
      <path
         d="m 47.418288,18.351399 h -0.799951 v 2.387449 h -0.37207 v -2.387449 h -0.79995 v -0.314193 h 1.971971 z"
         style="font-style:normal;font-variant:normal;font-weight:normal;font-stretch:normal;font-size:4.23333px;font-family:Consolas;-inkscape-font-specification:Consolas;stroke-width:0.264583"
         id="path956" />
      <path
         d="M 49.902889,20.738848 H 49.50188 l -0.188102,-0.589111 h -1.124479 l -0.190169,0.589111 h -0.382405 l 0.897102,-2.701642 h 0.504362 z m -0.694531,-0.917773 -0.456819,-1.444872 -0.45682,1.444872 z"
         style="font-style:normal;font-variant:normal;font-weight:normal;font-stretch:normal;font-size:4.23333px;font-family:Consolas;-inkscape-font-specification:Consolas;stroke-width:0.264583"
         id="path958" />
      <path
         d="m 52.242796,18.037206 -0.917773,2.701642 H 50.82893 l -0.897103,-2.701642 h 0.415479 l 0.582909,1.821076 0.165365,0.5333 0.169498,-0.5333 0.584977,-1.821076 z"
         style="font-style:normal;font-variant:normal;font-weight:normal;font-stretch:normal;font-size:4.23333px;font-family:Consolas;-inkscape-font-specification:Consolas;stroke-width:0.264583"
         id="path960" />
      <path
         d="m 54.202365,20.738848 h -1.535823 v -2.701642 h 1.535823 v 0.310058 h -1.167887 v 0.837158 h 1.122412 v 0.310058 h -1.122412 v 0.930175 h 1.167887 z"
         style="font-style:normal;font-variant:normal;font-weight:normal;font-stretch:normal;font-size:4.23333px;font-family:Consolas;-inkscape-font-specification:Consolas;stroke-width:0.264583"
         id="path962" />
    </g>
    <g
       aria-label="COMP"
       id="text991"
       style="font-style:normal;font-weight:normal;font-size:10.5833px;line-height:1.25;font-family:sans-serif;letter-spacing:0px;word-spacing:0px;fill:#000000;fill-opacity:1;stroke:none;stroke-width:0.264583"
       transform="translate(8.4666671,11.377089)">
      <path
         d="m 51.152948,20.918682 q -0.113688,0.04961 -0.206706,0.09302 -0.09095,0.04341 -0.239778,0.09095 -0.12609,0.03927 -0.274918,0.06615 -0.146761,0.02894 -0.324528,0.02894 -0.334863,0 -0.609782,-0.09302 -0.272851,-0.09509 -0.475422,-0.295589 -0.198438,-0.19637 -0.310059,-0.49816 -0.111621,-0.303858 -0.111621,-0.704866 0,-0.380339 0.107487,-0.680062 0.107487,-0.299723 0.310059,-0.506428 0.19637,-0.200505 0.473355,-0.305924 0.279053,-0.10542 0.61805,-0.10542 0.248047,0 0.494026,0.05994 0.248047,0.05995 0.549837,0.21084 v 0.485758 h -0.03101 q -0.254248,-0.212907 -0.504361,-0.310058 -0.250114,-0.09715 -0.535368,-0.09715 -0.233577,0 -0.421679,0.07648 -0.186035,0.07441 -0.332796,0.233577 -0.142627,0.15503 -0.223242,0.392741 -0.07855,0.235644 -0.07855,0.545703 0,0.324527 0.08682,0.558105 0.08888,0.233577 0.227376,0.380338 0.144694,0.152962 0.33693,0.227376 0.194303,0.07235 0.409277,0.07235 0.295589,0 0.553971,-0.101286 0.258382,-0.101286 0.483691,-0.303857 h 0.02894 z"
         style="font-size:4.23333px;stroke-width:0.264583"
         id="path1050" />
      <path
         d="m 54.026155,18.417545 q 0.188102,0.206705 0.287321,0.506428 0.101286,0.299723 0.101286,0.680062 0,0.380338 -0.103353,0.682128 -0.101286,0.299723 -0.285254,0.500227 -0.190169,0.208773 -0.450618,0.314193 -0.258382,0.10542 -0.591178,0.10542 -0.324528,0 -0.591178,-0.107487 -0.264583,-0.107487 -0.450618,-0.312126 -0.186035,-0.204638 -0.287321,-0.502294 -0.09922,-0.297656 -0.09922,-0.680061 0,-0.376205 0.09922,-0.673861 0.09922,-0.299723 0.289388,-0.512629 0.181901,-0.202572 0.450618,-0.310059 0.270785,-0.107487 0.589111,-0.107487 0.330729,0 0.593245,0.109554 0.264583,0.107487 0.448551,0.307992 z m -0.03721,1.18649 q 0,-0.599447 -0.268717,-0.923974 -0.268717,-0.326595 -0.733805,-0.326595 -0.469221,0 -0.737939,0.326595 -0.26665,0.324527 -0.26665,0.923974 0,0.605647 0.272852,0.928108 0.272851,0.320393 0.731737,0.320393 0.458887,0 0.729671,-0.320393 0.272851,-0.322461 0.272851,-0.928108 z"
         style="font-size:4.23333px;stroke-width:0.264583"
         id="path1052" />
      <path
         d="m 57.804733,21.141924 h -0.409277 v -2.652032 l -0.855761,1.804539 h -0.243913 l -0.84956,-1.804539 v 2.652032 h -0.382405 v -3.077846 h 0.558105 l 0.820621,1.713589 0.793749,-1.713589 h 0.568441 z"
         style="font-size:4.23333px;stroke-width:0.264583"
         id="path1054" />
      <path
         d="m 60.644867,18.994253 q 0,0.204639 -0.07235,0.380338 -0.07028,0.173633 -0.198438,0.301791 -0.159163,0.159163 -0.376204,0.239778 -0.217041,0.07855 -0.547769,0.07855 h -0.409277 v 1.147216 H 58.631552 V 18.06408 h 0.83509 q 0.276985,0 0.469222,0.04754 0.192236,0.04548 0.341064,0.144694 0.1757,0.117823 0.270784,0.293522 0.09715,0.1757 0.09715,0.444417 z m -0.425814,0.01033 q 0,-0.159163 -0.05581,-0.276985 -0.05581,-0.117822 -0.169499,-0.192236 -0.09922,-0.06408 -0.227376,-0.09095 -0.12609,-0.02894 -0.320394,-0.02894 h -0.405142 v 1.229898 h 0.345198 q 0.248047,0 0.403076,-0.04341 0.155029,-0.04548 0.25218,-0.142627 0.09715,-0.09922 0.136426,-0.208773 0.04134,-0.109554 0.04134,-0.24598 z"
         style="font-size:4.23333px;stroke-width:0.264583"
         id="path1056" />
    </g>
    <g
       aria-label="CASE0"
       id="text900"
       style="font-style:normal;font-variant:normal;font-weight:normal;font-stretch:normal;font-size:4.23333px;line-height:1.25;font-family:Consolas;-inkscape-font-specification:Consolas;letter-spacing:0px;word-spacing:0px;fill:#000000;fill-opacity:1;stroke:none;stroke-width:0.264583">
      <path
         d="m 107.86655,33.593661 q -0.32453,0.134358 -0.68006,0.134358 -0.57258,0 -0.88057,-0.341064 Q 106,33.043824 106,32.374098 q 0,-0.324528 0.0847,-0.587044 0.0847,-0.262516 0.24184,-0.444417 0.1571,-0.183968 0.38034,-0.283187 0.22324,-0.09922 0.50023,-0.09922 0.1881,0 0.34933,0.03307 0.16123,0.03101 0.31006,0.09715 v 0.361735 q -0.14676,-0.08061 -0.30386,-0.121956 -0.15709,-0.04341 -0.34313,-0.04341 -0.19017,0 -0.3452,0.07235 -0.15296,0.07028 -0.26045,0.206705 -0.10748,0.134359 -0.16536,0.330729 -0.0579,0.194303 -0.0579,0.444417 0,0.525032 0.21291,0.791682 0.21291,0.26665 0.62425,0.26665 0.17363,0 0.3328,-0.03927 0.15916,-0.04134 0.30592,-0.113688 z"
         style="font-style:normal;font-variant:normal;font-weight:normal;font-stretch:normal;font-size:4.23333px;font-family:Consolas;-inkscape-font-specification:Consolas;fill:#ffffff;stroke-width:0.264583"
         id="path1588" />
      <path
         d="m 110.44417,33.694946 h -0.40101 l -0.1881,-0.589111 h -1.12448 l -0.19017,0.589111 H 108.158 l 0.89711,-2.701641 h 0.50436 z m -0.69453,-0.917772 -0.45682,-1.444872 -0.45682,1.444872 z"
         style="font-style:normal;font-variant:normal;font-weight:normal;font-stretch:normal;font-size:4.23333px;font-family:Consolas;-inkscape-font-specification:Consolas;fill:#ffffff;stroke-width:0.264583"
         id="path1590" />
      <path
         d="m 112.52569,32.963209 q 0,0.192236 -0.0785,0.33693 -0.0785,0.144694 -0.21911,0.241845 -0.14056,0.09508 -0.339,0.142627 -0.19637,0.04754 -0.43408,0.04754 -0.10749,0 -0.21498,-0.0083 -0.10542,-0.0083 -0.20463,-0.02067 -0.0972,-0.0124 -0.18397,-0.02894 -0.0868,-0.01654 -0.1571,-0.03514 v -0.355534 q 0.15503,0.05788 0.34727,0.09095 0.1943,0.03307 0.44028,0.03307 0.17777,0 0.30179,-0.02687 0.12609,-0.02894 0.20464,-0.08268 0.0806,-0.05581 0.11575,-0.134359 0.0372,-0.07855 0.0372,-0.179834 0,-0.109554 -0.062,-0.186035 -0.06,-0.07855 -0.15916,-0.138493 -0.0992,-0.06201 -0.22738,-0.111621 -0.12609,-0.05168 -0.25838,-0.105419 -0.13229,-0.05374 -0.26045,-0.115755 -0.12609,-0.06408 -0.22531,-0.148828 -0.0992,-0.08682 -0.16123,-0.202572 -0.0599,-0.115755 -0.0599,-0.274918 0,-0.138493 0.0579,-0.272852 0.0579,-0.134358 0.17984,-0.237711 0.12195,-0.10542 0.31212,-0.169499 0.19224,-0.06408 0.45682,-0.06408 0.0682,0 0.14676,0.0062 0.0806,0.0062 0.16123,0.0186 0.0827,0.01034 0.16123,0.02481 0.0806,0.01447 0.14883,0.03101 v 0.330729 q -0.15916,-0.04547 -0.31833,-0.06821 -0.15916,-0.02481 -0.30799,-0.02481 -0.31626,0 -0.46508,0.10542 -0.14883,0.10542 -0.14883,0.283187 0,0.109554 0.0599,0.188102 0.062,0.07855 0.16123,0.14056 0.0992,0.06201 0.22531,0.113688 0.12816,0.04961 0.26045,0.103352 0.13229,0.05374 0.25838,0.117823 0.12816,0.06408 0.22738,0.152962 0.0992,0.08682 0.15916,0.204638 0.062,0.117822 0.062,0.279053 z"
         style="font-style:normal;font-variant:normal;font-weight:normal;font-stretch:normal;font-size:4.23333px;font-family:Consolas;-inkscape-font-specification:Consolas;fill:#ffffff;stroke-width:0.264583"
         id="path1592" />
      <path
         d="m 114.74364,33.694946 h -1.53582 v -2.701641 h 1.53582 v 0.310058 h -1.16788 v 0.837158 h 1.12241 v 0.310058 h -1.12241 v 0.930175 h 1.16788 z"
         style="font-style:normal;font-variant:normal;font-weight:normal;font-stretch:normal;font-size:4.23333px;font-family:Consolas;-inkscape-font-specification:Consolas;fill:#ffffff;stroke-width:0.264583"
         id="path1594" />
      <path
         d="m 117.26545,32.345159 q 0,0.310058 -0.062,0.566373 -0.062,0.254248 -0.1881,0.438216 -0.12609,0.181901 -0.31419,0.283187 -0.18604,0.09922 -0.43822,0.09922 -0.21704,0 -0.39481,-0.08061 -0.17776,-0.08268 -0.30385,-0.252181 -0.1261,-0.169498 -0.19431,-0.432014 -0.0682,-0.262516 -0.0682,-0.622184 0,-0.310058 0.062,-0.566373 0.0641,-0.256315 0.1881,-0.438216 0.12609,-0.183968 0.3142,-0.283187 0.1881,-0.101285 0.43821,-0.101285 0.21704,0 0.39481,0.08268 0.17777,0.08062 0.30386,0.252181 0.12609,0.169498 0.1943,0.432014 0.0682,0.262516 0.0682,0.622184 z m -0.3638,0.0124 q 0,-0.07028 -0.006,-0.138492 -0.004,-0.07028 -0.0103,-0.136426 l -1.14308,0.84956 q 0.031,0.107487 0.0786,0.198437 0.0475,0.09095 0.11369,0.157096 0.0682,0.06408 0.15296,0.101286 0.0868,0.03514 0.19637,0.03514 0.14056,0 0.25425,-0.06821 0.11575,-0.06821 0.19637,-0.202571 0.0806,-0.134359 0.12402,-0.332796 0.0434,-0.200505 0.0434,-0.463021 z m -1.2361,-0.0248 q 0,0.06408 0,0.128157 0.002,0.06408 0.008,0.124023 l 1.14308,-0.845425 q -0.031,-0.10542 -0.0786,-0.192236 -0.0475,-0.08682 -0.11369,-0.148828 -0.0661,-0.06408 -0.15089,-0.09922 -0.0847,-0.03514 -0.19017,-0.03514 -0.14056,0 -0.25631,0.06821 -0.11369,0.06821 -0.19431,0.204638 -0.0806,0.134359 -0.12402,0.334863 -0.0434,0.198438 -0.0434,0.460954 z"
         style="font-style:normal;font-variant:normal;font-weight:normal;font-stretch:normal;font-size:4.23333px;font-family:Consolas;-inkscape-font-specification:Consolas;fill:#ffffff;stroke-width:0.264583"
         id="path1596" />
    </g>
    <rect
       style="fill:#999999;fill-opacity:1;stroke:none;stroke-width:0.324;stroke-linejoin:round;stroke-miterlimit:4;stroke-dasharray:none;stroke-opacity:1"
       id="rect1000"
       width="6"
       height="0.15000001"
       x="17"
       y="18.050508" />
    <rect
       style="display:inline;fill:#999999;fill-opacity:1;stroke:none;stroke-width:0.324;stroke-linejoin:round;stroke-miterlimit:4;stroke-dasharray:none;stroke-opacity:1"
       id="rect1000-6"
       width="6"
       height="0.15000001"
       x="17"
       y="22.058334" />
    <rect
       style="display:inline;fill:#999999;fill-opacity:1;stroke:none;stroke-width:0.324;stroke-linejoin:round;stroke-miterlimit:4;stroke-dasharray:none;stroke-opacity:1"
       id="rect1000-6-4"
       width="6"
       height="0.15000001"
       x="42"
       y="22.058334" />
    <rect
       style="display:inline;fill:#999999;fill-opacity:1;stroke:none;stroke-width:0.324;stroke-linejoin:round;stroke-miterlimit:4;stroke-dasharray:none;stroke-opacity:1"
       id="rect1000-6-4-3"
       width="6"
       height="0.15000001"
       x="42"
       y="18.050508" />
    <rect
       style="display:inline;fill:#000000;stroke:none;stroke-width:0.977126;stroke-linejoin:round"
       id="rect1000-6-4-3-7"
       width="54.727352"
       height="0.15000001"
       x="57.840496"
       y="20.058334" />
    <rect
       style="display:inline;fill:#000000;stroke:none;stroke-width:0.323537;stroke-linejoin:round"
       id="rect1000-6-4-32"
       width="0.15000001"
       height="6"
       x="112.5"
       y="20.058334" />
    <g
       aria-label="CASE1"
       id="text900-7"
       style="font-style:normal;font-variant:normal;font-weight:normal;font-stretch:normal;font-size:4.23333px;line-height:1.25;font-family:Consolas;-inkscape-font-specification:Consolas;letter-spacing:0px;word-spacing:0px;display:inline;fill:#000000;fill-opacity:1;stroke:none;stroke-width:0.264583">
      <path
         d="m 107.86655,49.458788 q -0.32453,0.134359 -0.68006,0.134359 -0.57258,0 -0.88057,-0.341064 Q 106,48.908951 106,48.239225 q 0,-0.324527 0.0847,-0.587043 0.0847,-0.262516 0.24184,-0.444417 0.1571,-0.183968 0.38034,-0.283187 0.22324,-0.09922 0.50023,-0.09922 0.1881,0 0.34933,0.03307 0.16123,0.03101 0.31006,0.09715 v 0.361735 q -0.14676,-0.08062 -0.30386,-0.121957 -0.15709,-0.04341 -0.34313,-0.04341 -0.19017,0 -0.3452,0.07235 -0.15296,0.07028 -0.26045,0.206706 -0.10748,0.134358 -0.16536,0.330729 -0.0579,0.194303 -0.0579,0.444416 0,0.525033 0.21291,0.791683 0.21291,0.26665 0.62425,0.26665 0.17363,0 0.3328,-0.03927 0.15916,-0.04134 0.30592,-0.113688 z"
         style="font-style:normal;font-variant:normal;font-weight:normal;font-stretch:normal;font-size:4.23333px;font-family:Consolas;-inkscape-font-specification:Consolas;fill:#ffffff;stroke-width:0.264583"
         id="path1630" />
      <path
         d="m 110.44417,49.560074 h -0.40101 l -0.1881,-0.589111 h -1.12448 l -0.19017,0.589111 H 108.158 l 0.89711,-2.701642 h 0.50436 z m -0.69453,-0.917773 -0.45682,-1.444872 -0.45682,1.444872 z"
         style="font-style:normal;font-variant:normal;font-weight:normal;font-stretch:normal;font-size:4.23333px;font-family:Consolas;-inkscape-font-specification:Consolas;fill:#ffffff;stroke-width:0.264583"
         id="path1632" />
      <path
         d="m 112.52569,48.828336 q 0,0.192236 -0.0785,0.33693 -0.0785,0.144694 -0.21911,0.241846 -0.14056,0.09508 -0.339,0.142627 -0.19637,0.04754 -0.43408,0.04754 -0.10749,0 -0.21498,-0.0083 -0.10542,-0.0083 -0.20463,-0.02067 -0.0972,-0.0124 -0.18397,-0.02894 -0.0868,-0.01654 -0.1571,-0.03514 V 49.14873 q 0.15503,0.05788 0.34727,0.09095 0.1943,0.03307 0.44028,0.03307 0.17777,0 0.30179,-0.02687 0.12609,-0.02894 0.20464,-0.08268 0.0806,-0.05581 0.11575,-0.134358 0.0372,-0.07855 0.0372,-0.179834 0,-0.109554 -0.062,-0.186035 -0.06,-0.07855 -0.15916,-0.138493 -0.0992,-0.06201 -0.22738,-0.111621 -0.12609,-0.05168 -0.25838,-0.10542 -0.13229,-0.05374 -0.26045,-0.115755 -0.12609,-0.06408 -0.22531,-0.148828 -0.0992,-0.08682 -0.16123,-0.202571 -0.0599,-0.115755 -0.0599,-0.274919 0,-0.138492 0.0579,-0.272851 0.0579,-0.134359 0.17984,-0.237711 0.12195,-0.10542 0.31212,-0.169499 0.19224,-0.06408 0.45682,-0.06408 0.0682,0 0.14676,0.0062 0.0806,0.0062 0.16123,0.0186 0.0827,0.01033 0.16123,0.02481 0.0806,0.01447 0.14883,0.03101 v 0.330729 q -0.15916,-0.04547 -0.31833,-0.06821 -0.15916,-0.0248 -0.30799,-0.0248 -0.31626,0 -0.46508,0.10542 -0.14883,0.105419 -0.14883,0.283186 0,0.109554 0.0599,0.188102 0.062,0.07855 0.16123,0.14056 0.0992,0.06201 0.22531,0.113688 0.12816,0.04961 0.26045,0.103353 0.13229,0.05374 0.25838,0.117822 0.12816,0.06408 0.22738,0.152962 0.0992,0.08682 0.15916,0.204639 0.062,0.117822 0.062,0.279052 z"
         style="font-style:normal;font-variant:normal;font-weight:normal;font-stretch:normal;font-size:4.23333px;font-family:Consolas;-inkscape-font-specification:Consolas;fill:#ffffff;stroke-width:0.264583"
         id="path1634" />
      <path
         d="m 114.74364,49.560074 h -1.53582 v -2.701642 h 1.53582 v 0.310059 h -1.16788 v 0.837157 h 1.12241 v 0.310058 h -1.12241 v 0.930175 h 1.16788 z"
         style="font-style:normal;font-variant:normal;font-weight:normal;font-stretch:normal;font-size:4.23333px;font-family:Consolas;-inkscape-font-specification:Consolas;fill:#ffffff;stroke-width:0.264583"
         id="path1636" />
      <path
         d="m 117.1807,49.560074 h -1.69705 v -0.334863 h 0.69453 V 47.25324 l -0.64699,0.351399 -0.13229,-0.305924 0.8599,-0.452685 h 0.31832 v 2.379181 h 0.60358 z"
         style="font-style:normal;font-variant:normal;font-weight:normal;font-stretch:normal;font-size:4.23333px;font-family:Consolas;-inkscape-font-specification:Consolas;fill:#ffffff;stroke-width:0.264583"
         id="path1638" />
    </g>
    <g
       aria-label="CASE2"
       id="text900-7-0"
       style="font-style:normal;font-variant:normal;font-weight:normal;font-stretch:normal;font-size:4.23333px;line-height:1.25;font-family:Consolas;-inkscape-font-specification:Consolas;letter-spacing:0px;word-spacing:0px;display:inline;fill:#000000;fill-opacity:1;stroke:none;stroke-width:0.264583">
      <path
         d="m 107.86655,66.303202 q -0.32453,0.134358 -0.68006,0.134358 -0.57258,0 -0.88057,-0.341064 Q 106,65.753365 106,65.083639 q 0,-0.324528 0.0847,-0.587044 0.0847,-0.262516 0.24184,-0.444417 0.1571,-0.183968 0.38034,-0.283186 0.22324,-0.09922 0.50023,-0.09922 0.1881,0 0.34933,0.03307 0.16123,0.03101 0.31006,0.09715 v 0.361734 q -0.14676,-0.08061 -0.30386,-0.121956 -0.15709,-0.04341 -0.34313,-0.04341 -0.19017,0 -0.3452,0.07235 -0.15296,0.07028 -0.26045,0.206705 -0.10748,0.134359 -0.16536,0.330729 -0.0579,0.194304 -0.0579,0.444417 0,0.525032 0.21291,0.791682 0.21291,0.266651 0.62425,0.266651 0.17363,0 0.3328,-0.03927 0.15916,-0.04134 0.30592,-0.113688 z"
         style="font-style:normal;font-variant:normal;font-weight:normal;font-stretch:normal;font-size:4.23333px;font-family:Consolas;-inkscape-font-specification:Consolas;fill:#ffffff;stroke-width:0.264583"
         id="path1641" />
      <path
         d="m 110.44417,66.404488 h -0.40101 l -0.1881,-0.589111 h -1.12448 l -0.19017,0.589111 H 108.158 l 0.89711,-2.701642 h 0.50436 z m -0.69453,-0.917773 -0.45682,-1.444872 -0.45682,1.444872 z"
         style="font-style:normal;font-variant:normal;font-weight:normal;font-stretch:normal;font-size:4.23333px;font-family:Consolas;-inkscape-font-specification:Consolas;fill:#ffffff;stroke-width:0.264583"
         id="path1643" />
      <path
         d="m 112.52569,65.67275 q 0,0.192236 -0.0785,0.33693 -0.0785,0.144694 -0.21911,0.241845 -0.14056,0.09508 -0.339,0.142627 -0.19637,0.04754 -0.43408,0.04754 -0.10749,0 -0.21498,-0.0083 -0.10542,-0.0083 -0.20463,-0.02067 -0.0972,-0.0124 -0.18397,-0.02894 -0.0868,-0.01654 -0.1571,-0.03514 v -0.355533 q 0.15503,0.05788 0.34727,0.09095 0.1943,0.03307 0.44028,0.03307 0.17777,0 0.30179,-0.02687 0.12609,-0.02894 0.20464,-0.08268 0.0806,-0.05581 0.11575,-0.134359 0.0372,-0.07855 0.0372,-0.179834 0,-0.109553 -0.062,-0.186035 -0.06,-0.07855 -0.15916,-0.138492 -0.0992,-0.06201 -0.22738,-0.111621 -0.12609,-0.05168 -0.25838,-0.10542 -0.13229,-0.05374 -0.26045,-0.115755 -0.12609,-0.06408 -0.22531,-0.148828 -0.0992,-0.08682 -0.16123,-0.202572 -0.0599,-0.115755 -0.0599,-0.274918 0,-0.138493 0.0579,-0.272851 0.0579,-0.134359 0.17984,-0.237712 0.12195,-0.10542 0.31212,-0.169498 0.19224,-0.06408 0.45682,-0.06408 0.0682,0 0.14676,0.0062 0.0806,0.0062 0.16123,0.0186 0.0827,0.01033 0.16123,0.0248 0.0806,0.01447 0.14883,0.03101 v 0.330729 q -0.15916,-0.04547 -0.31833,-0.06821 -0.15916,-0.0248 -0.30799,-0.0248 -0.31626,0 -0.46508,0.105419 -0.14883,0.10542 -0.14883,0.283187 0,0.109554 0.0599,0.188102 0.062,0.07855 0.16123,0.14056 0.0992,0.06201 0.22531,0.113688 0.12816,0.04961 0.26045,0.103353 0.13229,0.05374 0.25838,0.117822 0.12816,0.06408 0.22738,0.152962 0.0992,0.08682 0.15916,0.204638 0.062,0.117823 0.062,0.279053 z"
         style="font-style:normal;font-variant:normal;font-weight:normal;font-stretch:normal;font-size:4.23333px;font-family:Consolas;-inkscape-font-specification:Consolas;fill:#ffffff;stroke-width:0.264583"
         id="path1645" />
      <path
         d="m 114.74364,66.404488 h -1.53582 v -2.701642 h 1.53582 v 0.310058 h -1.16788 v 0.837158 h 1.12241 v 0.310058 h -1.12241 v 0.930175 h 1.16788 z"
         style="font-style:normal;font-variant:normal;font-weight:normal;font-stretch:normal;font-size:4.23333px;font-family:Consolas;-inkscape-font-specification:Consolas;fill:#ffffff;stroke-width:0.264583"
         id="path1647" />
      <path
         d="m 117.20344,66.404488 h -1.77973 v -0.322461 l 0.69866,-0.694531 q 0.17157,-0.169498 0.27905,-0.293522 0.10749,-0.124023 0.16743,-0.225309 0.06,-0.103352 0.0806,-0.194303 0.0207,-0.09095 0.0207,-0.19637 0,-0.09922 -0.0269,-0.188102 -0.0269,-0.09095 -0.0827,-0.159163 -0.0558,-0.06821 -0.1447,-0.107487 -0.0889,-0.03927 -0.2129,-0.03927 -0.17157,0 -0.31213,0.07648 -0.14056,0.07648 -0.25838,0.198437 l -0.19844,-0.237711 q 0.15296,-0.161231 0.3514,-0.258382 0.2005,-0.09715 0.46509,-0.09715 0.17983,0 0.32659,0.05374 0.14883,0.05374 0.25632,0.15503 0.10748,0.101285 0.16536,0.248046 0.06,0.146761 0.06,0.330729 0,0.155029 -0.0413,0.287321 -0.0413,0.132291 -0.1261,0.264583 -0.0827,0.130225 -0.21083,0.270784 -0.1261,0.14056 -0.29973,0.307992 l -0.48989,0.477489 h 1.31258 z"
         style="font-style:normal;font-variant:normal;font-weight:normal;font-stretch:normal;font-size:4.23333px;font-family:Consolas;-inkscape-font-specification:Consolas;fill:#ffffff;stroke-width:0.264583"
         id="path1649" />
    </g>
    <g
       aria-label="CASE3"
       id="text900-7-1"
       style="font-style:normal;font-variant:normal;font-weight:normal;font-stretch:normal;font-size:4.23333px;line-height:1.25;font-family:Consolas;-inkscape-font-specification:Consolas;letter-spacing:0px;word-spacing:0px;display:inline;fill:#000000;fill-opacity:1;stroke:none;stroke-width:0.264583">
      <path
         d="m 107.86655,82.889895 q -0.32453,0.134358 -0.68006,0.134358 -0.57258,0 -0.88057,-0.341064 Q 106,82.340058 106,81.670332 q 0,-0.324528 0.0847,-0.587044 0.0847,-0.262516 0.24184,-0.444417 0.1571,-0.183968 0.38034,-0.283186 0.22324,-0.09922 0.50023,-0.09922 0.1881,0 0.34933,0.03307 0.16123,0.03101 0.31006,0.09715 v 0.361735 q -0.14676,-0.08061 -0.30386,-0.121956 -0.15709,-0.04341 -0.34313,-0.04341 -0.19017,0 -0.3452,0.07235 -0.15296,0.07028 -0.26045,0.206705 -0.10748,0.134359 -0.16536,0.330729 -0.0579,0.194303 -0.0579,0.444417 0,0.525032 0.21291,0.791682 0.21291,0.26665 0.62425,0.26665 0.17363,0 0.3328,-0.03927 0.15916,-0.04134 0.30592,-0.113688 z"
         style="font-style:normal;font-variant:normal;font-weight:normal;font-stretch:normal;font-size:4.23333px;font-family:Consolas;-inkscape-font-specification:Consolas;fill:#ffffff;stroke-width:0.264583"
         id="path1652" />
      <path
         d="m 110.44417,82.99118 h -0.40101 l -0.1881,-0.58911 h -1.12448 l -0.19017,0.58911 H 108.158 l 0.89711,-2.701641 h 0.50436 z m -0.69453,-0.917772 -0.45682,-1.444872 -0.45682,1.444872 z"
         style="font-style:normal;font-variant:normal;font-weight:normal;font-stretch:normal;font-size:4.23333px;font-family:Consolas;-inkscape-font-specification:Consolas;fill:#ffffff;stroke-width:0.264583"
         id="path1654" />
      <path
         d="m 112.52569,82.259443 q 0,0.192236 -0.0785,0.33693 -0.0785,0.144694 -0.21911,0.241845 -0.14056,0.09508 -0.339,0.142627 -0.19637,0.04754 -0.43408,0.04754 -0.10749,0 -0.21498,-0.0083 -0.10542,-0.0083 -0.20463,-0.02067 -0.0972,-0.0124 -0.18397,-0.02894 -0.0868,-0.01654 -0.1571,-0.03514 v -0.355534 q 0.15503,0.05788 0.34727,0.09095 0.1943,0.03307 0.44028,0.03307 0.17777,0 0.30179,-0.02687 0.12609,-0.02894 0.20464,-0.08268 0.0806,-0.05581 0.11575,-0.134359 0.0372,-0.07855 0.0372,-0.179834 0,-0.109554 -0.062,-0.186035 -0.06,-0.07855 -0.15916,-0.138492 -0.0992,-0.06201 -0.22738,-0.111621 -0.12609,-0.05168 -0.25838,-0.10542 -0.13229,-0.05374 -0.26045,-0.115755 -0.12609,-0.06408 -0.22531,-0.148828 -0.0992,-0.08682 -0.16123,-0.202572 -0.0599,-0.115755 -0.0599,-0.274918 0,-0.138493 0.0579,-0.272852 0.0579,-0.134358 0.17984,-0.237711 0.12195,-0.10542 0.31212,-0.169498 0.19224,-0.06408 0.45682,-0.06408 0.0682,0 0.14676,0.0062 0.0806,0.0062 0.16123,0.0186 0.0827,0.01034 0.16123,0.02481 0.0806,0.01447 0.14883,0.03101 v 0.330729 q -0.15916,-0.04547 -0.31833,-0.06821 -0.15916,-0.02481 -0.30799,-0.02481 -0.31626,0 -0.46508,0.10542 -0.14883,0.10542 -0.14883,0.283187 0,0.109554 0.0599,0.188102 0.062,0.07855 0.16123,0.14056 0.0992,0.06201 0.22531,0.113688 0.12816,0.04961 0.26045,0.103352 0.13229,0.05374 0.25838,0.117823 0.12816,0.06408 0.22738,0.152962 0.0992,0.08682 0.15916,0.204638 0.062,0.117822 0.062,0.279053 z"
         style="font-style:normal;font-variant:normal;font-weight:normal;font-stretch:normal;font-size:4.23333px;font-family:Consolas;-inkscape-font-specification:Consolas;fill:#ffffff;stroke-width:0.264583"
         id="path1656" />
      <path
         d="m 114.74364,82.99118 h -1.53582 v -2.701641 h 1.53582 v 0.310058 h -1.16788 v 0.837158 h 1.12241 v 0.310058 h -1.12241 v 0.930175 h 1.16788 z"
         style="font-style:normal;font-variant:normal;font-weight:normal;font-stretch:normal;font-size:4.23333px;font-family:Consolas;-inkscape-font-specification:Consolas;fill:#ffffff;stroke-width:0.264583"
         id="path1658" />
      <path
         d="m 117.15176,82.170559 q 0,0.177767 -0.0723,0.334863 -0.0724,0.15503 -0.21704,0.272852 -0.1447,0.115755 -0.36381,0.183968 -0.2191,0.06614 -0.51056,0.06614 -0.16123,0 -0.28939,-0.01033 -0.12815,-0.01033 -0.23977,-0.02687 v -0.32246 q 0.12815,0.02274 0.27078,0.03514 0.14263,0.0124 0.29145,0.0124 0.20258,0 0.3452,-0.03514 0.1447,-0.03721 0.23565,-0.10542 0.091,-0.06821 0.13229,-0.165364 0.0413,-0.09715 0.0413,-0.219108 0,-0.111621 -0.0496,-0.194303 -0.0496,-0.08268 -0.14056,-0.138493 -0.0889,-0.05581 -0.21497,-0.08268 -0.12403,-0.02894 -0.27285,-0.02894 h -0.308 v -0.295589 h 0.31213 q 0.12196,0 0.22117,-0.03101 0.10129,-0.03307 0.17157,-0.09302 0.0724,-0.05994 0.10955,-0.146761 0.0393,-0.08888 0.0393,-0.200505 0,-0.21704 -0.13229,-0.316259 -0.13229,-0.09922 -0.38861,-0.09922 -0.13643,0 -0.28112,0.02687 -0.14469,0.02687 -0.31006,0.08061 v -0.314192 q 0.0703,-0.02481 0.14883,-0.04341 0.0806,-0.02067 0.15916,-0.03307 0.0806,-0.01447 0.15917,-0.02067 0.0785,-0.0083 0.15089,-0.0083 0.21498,0 0.37827,0.04754 0.1633,0.04547 0.27285,0.132292 0.10956,0.08682 0.16537,0.210839 0.0558,0.124024 0.0558,0.279053 0,0.23151 -0.11989,0.388606 -0.11782,0.157096 -0.32453,0.250114 0.10542,0.01654 0.20671,0.06615 0.10335,0.04961 0.18397,0.128157 0.0827,0.07648 0.13229,0.181901 0.0517,0.10542 0.0517,0.233577 z"
         style="font-style:normal;font-variant:normal;font-weight:normal;font-stretch:normal;font-size:4.23333px;font-family:Consolas;-inkscape-font-specification:Consolas;fill:#ffffff;stroke-width:0.264583"
         id="path1660" />
    </g>
    <g
       aria-label="DEFAULT"
       id="text900-7-1-0"
       style="font-style:normal;font-variant:normal;font-weight:normal;font-stretch:normal;font-size:3.52778px;line-height:1.25;font-family:Consolas;-inkscape-font-specification:Consolas;letter-spacing:0px;word-spacing:0px;display:inline;fill:#000000;fill-opacity:1;stroke:none;stroke-width:0.264583">
      <path
         d="m 106.86849,102.78343 q 0,0.16192 -0.0258,0.31006 -0.0241,0.14814 -0.0792,0.27561 -0.0551,0.12747 -0.14297,0.23255 -0.0879,0.10335 -0.21532,0.17742 -0.12747,0.0741 -0.29628,0.11541 -0.16881,0.0396 -0.38413,0.0396 h -0.48231 v -2.25137 h 0.5805 q 0.5271,0 0.78548,0.27216 0.26011,0.27044 0.26011,0.82854 z m -0.32212,0.0224 q 0,-0.23944 -0.0448,-0.4048 -0.0448,-0.16537 -0.13608,-0.267 -0.0913,-0.10163 -0.2291,-0.14641 -0.1378,-0.0465 -0.32384,-0.0465 h -0.26355 v 1.72771 h 0.2291 q 0.76826,0 0.76826,-0.86299 z"
         style="font-style:normal;font-variant:normal;font-weight:normal;font-stretch:normal;font-size:3.52778px;font-family:Consolas;-inkscape-font-specification:Consolas;fill:#ffffff;stroke-width:0.264583"
         id="path1663" />
      <path
         d="m 108.62032,103.9341 h -1.27986 v -2.25137 h 1.27986 v 0.25838 h -0.97324 v 0.69763 h 0.93534 v 0.25838 h -0.93534 v 0.77515 h 0.97324 z"
         style="font-style:normal;font-variant:normal;font-weight:normal;font-stretch:normal;font-size:3.52778px;font-family:Consolas;-inkscape-font-specification:Consolas;fill:#ffffff;stroke-width:0.264583"
         id="path1665" />
      <path
         d="m 110.55646,101.94455 h -0.95601 v 0.73036 h 0.90606 v 0.25666 h -0.90606 v 1.00253 h -0.31351 v -2.25137 h 1.26952 z"
         style="font-style:normal;font-variant:normal;font-weight:normal;font-stretch:normal;font-size:3.52778px;font-family:Consolas;-inkscape-font-specification:Consolas;fill:#ffffff;stroke-width:0.264583"
         id="path1667" />
      <path
         d="m 112.79578,103.9341 h -0.33418 l -0.15675,-0.49093 h -0.93707 l -0.15847,0.49093 h -0.31867 l 0.74758,-2.25137 h 0.42031 z m -0.57878,-0.76481 -0.38068,-1.20407 -0.38069,1.20407 z"
         style="font-style:normal;font-variant:normal;font-weight:normal;font-stretch:normal;font-size:3.52778px;font-family:Consolas;-inkscape-font-specification:Consolas;fill:#ffffff;stroke-width:0.264583"
         id="path1669" />
      <path
         d="m 114.56656,103.15034 q 0,0.18603 -0.0534,0.33762 -0.0517,0.14986 -0.15331,0.25666 -0.10163,0.10507 -0.24977,0.16364 -0.14642,0.0568 -0.33762,0.0568 -0.21015,0 -0.35657,-0.0551 -0.14641,-0.0551 -0.23943,-0.15503 -0.0913,-0.10163 -0.13436,-0.24288 -0.0413,-0.14125 -0.0413,-0.31522 v -1.51412 h 0.30661 v 1.49 q 0,0.13264 0.0241,0.23254 0.0258,0.0999 0.0827,0.16709 0.0568,0.0672 0.14642,0.10163 0.0913,0.0344 0.22221,0.0344 0.2446,0 0.36001,-0.14125 0.11713,-0.14124 0.11713,-0.3979 v -1.48656 h 0.30662 z"
         style="font-style:normal;font-variant:normal;font-weight:normal;font-stretch:normal;font-size:3.52778px;font-family:Consolas;-inkscape-font-specification:Consolas;fill:#ffffff;stroke-width:0.264583"
         id="path1671" />
      <path
         d="m 116.4493,103.9341 h -1.29535 v -2.25137 h 0.31178 v 1.98954 h 0.98357 z"
         style="font-style:normal;font-variant:normal;font-weight:normal;font-stretch:normal;font-size:3.52778px;font-family:Consolas;-inkscape-font-specification:Consolas;fill:#ffffff;stroke-width:0.264583"
         id="path1673" />
      <path
         d="m 118.48363,101.94455 h -0.66662 v 1.98955 h -0.31006 v -1.98955 h -0.66663 v -0.26182 h 1.64331 z"
         style="font-style:normal;font-variant:normal;font-weight:normal;font-stretch:normal;font-size:3.52778px;font-family:Consolas;-inkscape-font-specification:Consolas;fill:#ffffff;stroke-width:0.264583"
         id="path1675" />
    </g>
    <g
       aria-label="INERNAL"
       id="text924-9"
       style="font-style:normal;font-variant:normal;font-weight:normal;font-stretch:normal;font-size:3.175px;line-height:1.25;font-family:Consolas;-inkscape-font-specification:Consolas;letter-spacing:0px;word-spacing:0px;display:inline;fill:#000000;fill-opacity:1;stroke:none;stroke-width:0.264583">
      <path
         d="m 27.966637,17.283053 h -0.466638 v -0.232544 h 1.212329 v 0.232544 H 28.24569 v 1.558045 h 0.466638 v 0.235644 h -1.212329 v -0.235644 h 0.466638 z"
         style="font-style:normal;font-variant:normal;font-weight:normal;font-stretch:normal;font-size:3.175px;font-family:Consolas;-inkscape-font-specification:Consolas;stroke-width:0.264583"
         id="path1556" />
      <path
         d="m 30.541674,19.076742 h -0.359668 l -0.590662,-1.263489 -0.170532,-0.406176 v 1.021643 0.648022 h -0.257348 v -2.026233 h 0.355017 l 0.562756,1.196826 0.203088,0.463538 v -1.085205 -0.575159 h 0.257349 z"
         style="font-style:normal;font-variant:normal;font-weight:normal;font-stretch:normal;font-size:3.175px;font-family:Consolas;-inkscape-font-specification:Consolas;stroke-width:0.264583"
         id="path1558" />
      <path
         d="m 32.188085,19.076742 h -1.151867 v -2.026233 h 1.151867 v 0.232544 H 31.31217 v 0.627869 h 0.841809 v 0.232544 H 31.31217 v 0.697632 h 0.875915 z"
         style="font-style:normal;font-variant:normal;font-weight:normal;font-stretch:normal;font-size:3.175px;font-family:Consolas;-inkscape-font-specification:Consolas;stroke-width:0.264583"
         id="path1560" />
      <path
         d="M 34.099597,19.076742 H 33.787988 L 33.485681,18.42872 q -0.03411,-0.07441 -0.06976,-0.122473 -0.03566,-0.04961 -0.07751,-0.07751 -0.04031,-0.02946 -0.08992,-0.04186 -0.04806,-0.0124 -0.108521,-0.0124 h -0.130224 v 0.90227 h -0.275953 v -2.026233 h 0.542603 q 0.176733,0 0.303857,0.03876 0.127124,0.03876 0.20774,0.10852 0.08217,0.06976 0.119372,0.168982 0.03876,0.09767 0.03876,0.217041 0,0.09457 -0.02791,0.179834 -0.0279,0.08372 -0.08372,0.153479 -0.05426,0.06821 -0.136425,0.119373 -0.08062,0.04961 -0.186035,0.07441 0.08527,0.02945 0.144177,0.103869 0.06046,0.07286 0.122473,0.195337 z m -0.441834,-1.469678 q 0,-0.16278 -0.102319,-0.243396 -0.100769,-0.08062 -0.285254,-0.08062 h -0.260449 v 0.669727 h 0.223242 q 0.09767,0 0.175183,-0.0217 0.07906,-0.02326 0.133325,-0.06666 0.05581,-0.04496 0.08527,-0.10852 0.03101,-0.06511 0.03101,-0.148829 z"
         style="font-style:normal;font-variant:normal;font-weight:normal;font-stretch:normal;font-size:3.175px;font-family:Consolas;-inkscape-font-specification:Consolas;stroke-width:0.264583"
         id="path1562" />
      <path
         d="m 35.778564,19.076742 h -0.359668 l -0.590662,-1.263489 -0.170532,-0.406176 v 1.021643 0.648022 h -0.257349 v -2.026233 h 0.355017 l 0.562757,1.196826 0.203088,0.463538 v -1.085205 -0.575159 h 0.257349 z"
         style="font-style:normal;font-variant:normal;font-weight:normal;font-stretch:normal;font-size:3.175px;font-family:Consolas;-inkscape-font-specification:Consolas;stroke-width:0.264583"
         id="path1564" />
      <path
         d="m 37.691625,19.076742 h -0.300757 l -0.141076,-0.441833 h -0.84336 l -0.142627,0.441833 h -0.286804 l 0.672827,-2.026233 H 37.0281 Z m -0.520898,-0.68833 -0.342615,-1.083655 -0.342615,1.083655 z"
         style="font-style:normal;font-variant:normal;font-weight:normal;font-stretch:normal;font-size:3.175px;font-family:Consolas;-inkscape-font-specification:Consolas;stroke-width:0.264583"
         id="path1566" />
      <path
         d="m 39.234167,19.076742 h -1.16582 v -2.026233 h 0.280603 v 1.790589 h 0.885217 z"
         style="font-style:normal;font-variant:normal;font-weight:normal;font-stretch:normal;font-size:3.175px;font-family:Consolas;-inkscape-font-specification:Consolas;stroke-width:0.264583"
         id="path1568" />
    </g>
    <g
       aria-label="EXTERNAL"
       id="text924-9-3"
       style="font-style:normal;font-variant:normal;font-weight:normal;font-stretch:normal;font-size:3.175px;line-height:1.25;font-family:Consolas;-inkscape-font-specification:Consolas;letter-spacing:0px;word-spacing:0px;display:inline;fill:#000000;fill-opacity:1;stroke:none;stroke-width:0.264583">
      <path
         d="m 28.696825,23.084568 h -1.151867 v -2.026233 h 1.151867 v 0.232544 H 27.82091 v 0.627869 h 0.841809 v 0.232544 H 27.82091 v 0.697631 h 0.875915 z"
         style="font-style:normal;font-variant:normal;font-weight:normal;font-stretch:normal;font-size:3.175px;font-family:Consolas;-inkscape-font-specification:Consolas;stroke-width:0.264583"
         id="path1571" />
      <path
         d="m 30.687402,23.084568 h -0.348816 l -0.492993,-0.818555 -0.494544,0.818555 h -0.344165 l 0.674377,-1.035596 -0.620117,-0.990637 h 0.327112 l 0.463538,0.762744 0.466638,-0.762744 h 0.31781 l -0.621668,0.978235 z"
         style="font-style:normal;font-variant:normal;font-weight:normal;font-stretch:normal;font-size:3.175px;font-family:Consolas;-inkscape-font-specification:Consolas;stroke-width:0.264583"
         id="path1573" />
      <path
         d="M 32.336913,21.29398 H 31.73695 v 1.790588 H 31.457897 V 21.29398 h -0.599963 v -0.235645 h 1.478979 z"
         style="font-style:normal;font-variant:normal;font-weight:normal;font-stretch:normal;font-size:3.175px;font-family:Consolas;-inkscape-font-specification:Consolas;stroke-width:0.264583"
         id="path1575" />
      <path
         d="m 33.933715,23.084568 h -1.151867 v -2.026233 h 1.151867 v 0.232544 H 33.0578 v 0.627869 h 0.841809 v 0.232544 H 33.0578 v 0.697631 h 0.875915 z"
         style="font-style:normal;font-variant:normal;font-weight:normal;font-stretch:normal;font-size:3.175px;font-family:Consolas;-inkscape-font-specification:Consolas;stroke-width:0.264583"
         id="path1577" />
      <path
         d="M 35.845226,23.084568 H 35.533617 L 35.23131,22.436546 q -0.03411,-0.07441 -0.06976,-0.122474 -0.03566,-0.04961 -0.07751,-0.07751 -0.04031,-0.02946 -0.08992,-0.04186 -0.04806,-0.0124 -0.108521,-0.0124 H 34.75537 v 0.90227 h -0.275952 v -2.026233 h 0.542603 q 0.176733,0 0.303857,0.03876 0.127124,0.03876 0.207739,0.108521 0.08217,0.06976 0.119373,0.168982 0.03876,0.09767 0.03876,0.217041 0,0.09457 -0.0279,0.179834 -0.02791,0.08372 -0.08372,0.153479 -0.05426,0.06821 -0.136426,0.119372 -0.08062,0.04961 -0.186035,0.07441 0.08527,0.02946 0.144178,0.103869 0.06046,0.07286 0.122473,0.195337 z M 35.403393,21.61489 q 0,-0.16278 -0.102319,-0.243396 -0.10077,-0.08061 -0.285254,-0.08061 h -0.26045 v 0.669727 h 0.223243 q 0.09767,0 0.175183,-0.0217 0.07906,-0.02325 0.133325,-0.06666 0.05581,-0.04496 0.08527,-0.108521 0.03101,-0.06511 0.03101,-0.148828 z"
         style="font-style:normal;font-variant:normal;font-weight:normal;font-stretch:normal;font-size:3.175px;font-family:Consolas;-inkscape-font-specification:Consolas;stroke-width:0.264583"
         id="path1579" />
      <path
         d="m 37.524194,23.084568 h -0.359668 l -0.590662,-1.263489 -0.170532,-0.406176 v 1.021643 0.648022 H 36.145983 V 21.058335 H 36.501 l 0.562757,1.196826 0.203088,0.463538 v -1.085205 -0.575159 h 0.257349 z"
         style="font-style:normal;font-variant:normal;font-weight:normal;font-stretch:normal;font-size:3.175px;font-family:Consolas;-inkscape-font-specification:Consolas;stroke-width:0.264583"
         id="path1581" />
      <path
         d="m 39.437255,23.084568 h -0.300756 l -0.141077,-0.441833 h -0.843359 l -0.142627,0.441833 h -0.286805 l 0.672828,-2.026233 h 0.378271 z m -0.520898,-0.68833 -0.342615,-1.083655 -0.342614,1.083655 z"
         style="font-style:normal;font-variant:normal;font-weight:normal;font-stretch:normal;font-size:3.175px;font-family:Consolas;-inkscape-font-specification:Consolas;stroke-width:0.264583"
         id="path1583" />
      <path
         d="m 40.979796,23.084568 h -1.16582 v -2.026233 h 0.280603 v 1.790588 h 0.885217 z"
         style="font-style:normal;font-variant:normal;font-weight:normal;font-stretch:normal;font-size:3.175px;font-family:Consolas;-inkscape-font-specification:Consolas;stroke-width:0.264583"
         id="path1585" />
    </g>
    <g
       aria-label="CV"
       id="text924"
       style="font-style:normal;font-variant:normal;font-weight:normal;font-stretch:normal;font-size:4.23333px;line-height:1.25;font-family:Consolas;-inkscape-font-specification:Consolas;letter-spacing:0px;word-spacing:0px;display:inline;fill:#000000;fill-opacity:1;stroke:none;stroke-width:0.264583">
      <path
         d="m 12.369077,13.691762 q -0.324527,0.134359 -0.680061,0.134359 -0.572574,0 -0.880566,-0.341064 -0.305924,-0.343132 -0.305924,-1.012858 0,-0.324527 0.08475,-0.587043 0.08475,-0.262516 0.241846,-0.444417 0.157096,-0.183968 0.380338,-0.283187 0.223242,-0.09922 0.500228,-0.09922 0.188102,0 0.349332,0.03307 0.16123,0.03101 0.310058,0.09715 v 0.361735 q -0.146761,-0.08062 -0.303857,-0.121957 -0.157096,-0.04341 -0.343131,-0.04341 -0.190169,0 -0.345198,0.07235 -0.152963,0.07028 -0.260449,0.206706 -0.107487,0.134358 -0.165365,0.330729 -0.05788,0.194303 -0.05788,0.444417 0,0.525032 0.212906,0.791682 0.212907,0.26665 0.624251,0.26665 0.173633,0 0.332796,-0.03927 0.159163,-0.04134 0.305924,-0.113688 z"
         style="font-style:normal;font-variant:normal;font-weight:normal;font-stretch:normal;font-size:4.23333px;font-family:Consolas;-inkscape-font-specification:Consolas;stroke-width:0.264583"
         id="path1551" />
      <path
         d="m 14.959098,11.091406 -0.917773,2.701642 H 13.545232 L 12.64813,11.091406 h 0.415478 l 0.58291,1.821076 0.165364,0.533301 0.169499,-0.533301 0.584976,-1.821076 z"
         style="font-style:normal;font-variant:normal;font-weight:normal;font-stretch:normal;font-size:4.23333px;font-family:Consolas;-inkscape-font-specification:Consolas;stroke-width:0.264583"
         id="path1553" />
    </g>
    <g
       aria-label="ENABLE"
       id="text924-9-3-6"
       style="font-style:normal;font-variant:normal;font-weight:normal;font-stretch:normal;font-size:3.175px;line-height:1.25;font-family:Consolas;-inkscape-font-specification:Consolas;letter-spacing:0px;word-spacing:0px;display:inline;fill:#000000;fill-opacity:1;stroke:none;stroke-width:0.264583">
      <path
         d="m 76.22164,110.66087 h -1.151868 v -2.02623 h 1.151868 v 0.23254 h -0.875916 v 0.62787 h 0.84181 v 0.23255 h -0.84181 v 0.69763 h 0.875916 z"
         style="font-style:normal;font-variant:normal;font-weight:normal;font-stretch:normal;font-size:3.175px;font-family:Consolas;-inkscape-font-specification:Consolas;stroke-width:0.264583"
         id="path1678" />
      <path
         d="m 78.066489,110.66087 h -0.359668 l -0.590662,-1.26349 -0.170532,-0.40617 v 1.02164 0.64802 h -0.257349 v -2.02623 h 0.355017 l 0.562757,1.19683 0.203088,0.46353 v -1.0852 -0.57516 h 0.257349 z"
         style="font-style:normal;font-variant:normal;font-weight:normal;font-stretch:normal;font-size:3.175px;font-family:Consolas;-inkscape-font-specification:Consolas;stroke-width:0.264583"
         id="path1680" />
      <path
         d="m 79.97955,110.66087 h -0.300757 l -0.141076,-0.44183 h -0.84336 l -0.142627,0.44183 h -0.286804 l 0.672827,-2.02623 h 0.378272 z m -0.520898,-0.68833 -0.342615,-1.08365 -0.342615,1.08365 z"
         style="font-style:normal;font-variant:normal;font-weight:normal;font-stretch:normal;font-size:3.175px;font-family:Consolas;-inkscape-font-specification:Consolas;stroke-width:0.264583"
         id="path1682" />
      <path
         d="m 81.570151,110.05471 q 0,0.14573 -0.05736,0.2589 -0.05581,0.11162 -0.16123,0.18913 -0.10387,0.0775 -0.252698,0.11783 -0.147278,0.0403 -0.328662,0.0403 H 80.24 v -2.02623 h 0.579809 q 0.677478,0 0.677478,0.49299 0,0.16433 -0.07906,0.28216 -0.07751,0.11782 -0.254248,0.17518 0.08217,0.0155 0.155029,0.0527 0.07442,0.0372 0.130225,0.0961 0.05581,0.0589 0.08837,0.13952 0.03256,0.0806 0.03256,0.18139 z m -0.359668,-0.88987 q 0,-0.062 -0.0186,-0.11627 -0.0186,-0.0558 -0.06511,-0.0946 -0.04651,-0.0403 -0.125574,-0.0636 -0.07906,-0.0233 -0.199987,-0.0233 h -0.285254 v 0.63407 h 0.275952 q 0.09457,0 0.170532,-0.0202 0.07752,-0.0202 0.131775,-0.062 0.05581,-0.0419 0.08527,-0.10387 0.03101,-0.0636 0.03101,-0.15038 z m 0.06666,0.89917 q 0,-0.0775 -0.03256,-0.13953 -0.03256,-0.062 -0.09457,-0.10387 -0.06201,-0.0434 -0.151929,-0.0667 -0.08837,-0.0233 -0.199988,-0.0233 h -0.282153 v 0.69763 h 0.291455 q 0.237195,0 0.353467,-0.0884 0.116272,-0.0884 0.116272,-0.27595 z"
         style="font-style:normal;font-variant:normal;font-weight:normal;font-stretch:normal;font-size:3.175px;font-family:Consolas;-inkscape-font-specification:Consolas;stroke-width:0.264583"
         id="path1684" />
      <path
         d="m 83.267722,110.66087 h -1.165821 v -2.02623 h 0.280603 v 1.79059 h 0.885218 z"
         style="font-style:normal;font-variant:normal;font-weight:normal;font-stretch:normal;font-size:3.175px;font-family:Consolas;-inkscape-font-specification:Consolas;stroke-width:0.264583"
         id="path1686" />
      <path
         d="m 84.949789,110.66087 h -1.151867 v -2.02623 h 1.151867 v 0.23254 h -0.875915 v 0.62787 h 0.841809 v 0.23255 h -0.841809 v 0.69763 h 0.875915 z"
         style="font-style:normal;font-variant:normal;font-weight:normal;font-stretch:normal;font-size:3.175px;font-family:Consolas;-inkscape-font-specification:Consolas;stroke-width:0.264583"
         id="path1688" />
    </g>
    <rect
       style="display:inline;fill:#000000;stroke:none;stroke-width:0.993687;stroke-linejoin:round"
       id="rect1000-6-4-3-7-7"
       width="56.59824"
       height="0.15000001"
       x="12.7"
       y="109.55833" />
    <rect
       style="display:inline;fill:#000000;stroke:none;stroke-width:0.518814;stroke-linejoin:round"
       id="rect1000-6-4-3-7-7-6"
       width="15.428628"
       height="0.15000001"
       x="87.071373"
       y="109.55833" />
    <rect
       style="display:inline;fill:#000000;stroke:none;stroke-width:0.417684;stroke-linejoin:round"
       id="rect1000-6-4-3-7-7-6-8"
       width="10"
       height="0.15000001"
       x="12.7"
       y="90.557999" />
    <rect
       style="display:inline;fill:#000000;stroke:none;stroke-width:0.417684;stroke-linejoin:round"
       id="rect1000-6-4-3-7-7-6-8-1"
       width="10"
       height="0.15000001"
       x="12.7"
       y="72.700996" />
    <rect
       style="display:inline;fill:#000000;stroke:none;stroke-width:0.417684;stroke-linejoin:round"
       id="rect1000-6-4-3-7-7-6-8-9"
       width="10"
       height="0.15000001"
       x="12.7"
       y="55.5" />
    <rect
       style="display:inline;fill:#000000;stroke:none;stroke-width:0.417684;stroke-linejoin:round"
       id="rect1000-6-4-3-7-7-6-8-5"
       width="10"
       height="0.15000001"
       x="12.7"
       y="39.143921" />
    <g
       aria-label="SWITCH STATEMENT"
       id="text1549"
       style="font-style:normal;font-weight:normal;font-size:5.64444px;line-height:1.25;font-family:sans-serif;letter-spacing:0px;word-spacing:0px;fill:#000000;fill-opacity:1;stroke:none;stroke-width:0.264583">
      <path
         d="m 39.776706,5.6761479 q 0,0.256315 -0.104731,0.4492402 -0.10473,0.1929252 -0.292143,0.3224606 -0.187414,0.1267795 -0.451997,0.1901692 -0.261827,0.06339 -0.578775,0.06339 -0.143316,0 -0.286632,-0.011024 -0.14056,-0.011024 -0.272851,-0.027561 -0.129536,-0.016536 -0.245291,-0.038585 -0.115755,-0.022049 -0.209462,-0.046853 V 6.1033395 q 0.206706,0.07717 0.463021,0.1212672 0.259071,0.044097 0.587044,0.044097 0.237022,0 0.402387,-0.035829 0.16812,-0.038585 0.272851,-0.110243 0.107487,-0.074414 0.15434,-0.1791448 0.04961,-0.1047309 0.04961,-0.2397785 0,-0.146072 -0.08268,-0.2480467 Q 39.101468,5.3509312 38.969176,5.271005 38.836885,5.1883228 38.666008,5.122177 38.497888,5.0532752 38.321499,4.9816172 38.14511,4.9099593 37.974234,4.8272771 37.806113,4.7418388 37.673822,4.6288397 37.54153,4.5130846 37.458848,4.3587444 q -0.07993,-0.1543401 -0.07993,-0.3665579 0,-0.1846569 0.07717,-0.3638018 0.07717,-0.1791448 0.239778,-0.3169485 0.162609,-0.1405598 0.416167,-0.2259981 0.256315,-0.085438 0.609093,-0.085438 0.09095,0 0.195681,0.00827 0.107487,0.00827 0.214974,0.024805 0.110243,0.01378 0.214974,0.033073 0.107487,0.019293 0.198437,0.041341 v 0.4409719 q -0.212218,-0.060634 -0.424435,-0.09095 -0.212218,-0.033073 -0.410656,-0.033073 -0.421679,0 -0.620116,0.1405598 -0.198438,0.1405598 -0.198438,0.3775822 0,0.1460719 0.07993,0.2508028 0.08268,0.1047308 0.214973,0.187413 0.132292,0.082682 0.300412,0.1515841 0.170877,0.066146 0.347266,0.1378037 0.176389,0.071658 0.344509,0.1570963 0.170877,0.085438 0.303168,0.2039495 0.132292,0.1157551 0.212218,0.2728513 0.08268,0.1570962 0.08268,0.37207 z"
         style="font-style:normal;font-variant:normal;font-weight:normal;font-stretch:normal;font-size:5.64444px;font-family:Consolas;-inkscape-font-specification:Consolas;stroke-width:0.264583"
         id="path1599" />
      <path
         d="M 43.111556,3.0496091 42.869022,6.6517982 H 42.232368 L 41.785884,5.3702237 41.661861,4.9595686 41.532326,5.4032966 41.118914,6.6517982 H 40.50431 L 40.256263,3.0496091 h 0.463021 l 0.140559,2.4501501 0.04134,0.6724821 0.173632,-0.5705074 0.43546,-1.336696 h 0.338997 L 42.35088,5.6981965 42.519,6.1722413 42.530024,5.6761479 42.67334,3.0496091 Z"
         style="font-style:normal;font-variant:normal;font-weight:normal;font-stretch:normal;font-size:5.64444px;font-family:Consolas;-inkscape-font-specification:Consolas;stroke-width:0.264583"
         id="path1601" />
      <path
         d="M 44.539203,3.4630203 H 43.709624 V 3.0496091 h 2.15525 V 3.4630203 H 45.035296 V 6.232875 h 0.829578 v 0.4189232 h -2.15525 V 6.232875 h 0.829579 z"
         style="font-style:normal;font-variant:normal;font-weight:normal;font-stretch:normal;font-size:5.64444px;font-family:Consolas;-inkscape-font-specification:Consolas;stroke-width:0.264583"
         id="path1603" />
      <path
         d="M 49.205236,3.4685324 H 48.138635 V 6.6517982 H 47.642542 V 3.4685324 H 46.575941 V 3.0496091 h 2.629295 z"
         style="font-style:normal;font-variant:normal;font-weight:normal;font-stretch:normal;font-size:5.64444px;font-family:Consolas;-inkscape-font-specification:Consolas;stroke-width:0.264583"
         id="path1605" />
      <path
         d="m 52.184553,6.5167506 q -0.432704,0.1791448 -0.906749,0.1791448 -0.763432,0 -1.174087,-0.4547522 -0.407899,-0.4575084 -0.407899,-1.3504764 0,-0.4327037 0.112999,-0.7827251 0.112999,-0.3500215 0.32246,-0.592556 0.209462,-0.2452906 0.507118,-0.3775822 0.297656,-0.1322916 0.66697,-0.1322916 0.250803,0 0.465777,0.044097 0.214973,0.041341 0.413411,0.1295355 v 0.482313 Q 51.988871,3.5539707 51.77941,3.4988492 q -0.209462,-0.057878 -0.457508,-0.057878 -0.253559,0 -0.460265,0.096463 -0.203949,0.093706 -0.347265,0.2756074 -0.143316,0.1791448 -0.220486,0.4409719 -0.07717,0.259071 -0.07717,0.592556 0,0.7000429 0.283875,1.0555764 0.283876,0.3555336 0.832335,0.3555336 0.23151,0 0.443728,-0.052365 0.212217,-0.055122 0.407899,-0.1515841 z"
         style="font-style:normal;font-variant:normal;font-weight:normal;font-stretch:normal;font-size:5.64444px;font-family:Consolas;-inkscape-font-specification:Consolas;stroke-width:0.264583"
         id="path1607" />
      <path
         d="M 55.34577,6.6517982 H 54.855189 V 4.9981537 H 53.342104 V 6.6517982 H 52.851523 V 3.0496091 h 0.490581 v 1.5241091 h 1.513085 V 3.0496091 h 0.490581 z"
         style="font-style:normal;font-variant:normal;font-weight:normal;font-stretch:normal;font-size:5.64444px;font-family:Consolas;-inkscape-font-specification:Consolas;stroke-width:0.264583"
         id="path1609" />
      <path
         d="m 61.500083,5.6761479 q 0,0.256315 -0.10473,0.4492402 -0.104731,0.1929252 -0.292144,0.3224606 -0.187413,0.1267795 -0.451996,0.1901692 -0.261827,0.06339 -0.578776,0.06339 -0.143316,0 -0.286632,-0.011024 -0.14056,-0.011024 -0.272851,-0.027561 -0.129536,-0.016536 -0.245291,-0.038585 -0.115755,-0.022049 -0.209461,-0.046853 V 6.1033395 q 0.206705,0.07717 0.46302,0.1212672 0.259071,0.044097 0.587044,0.044097 0.237022,0 0.402387,-0.035829 0.16812,-0.038585 0.272851,-0.110243 0.107487,-0.074414 0.15434,-0.1791448 0.04961,-0.1047309 0.04961,-0.2397785 0,-0.146072 -0.08268,-0.2480467 Q 60.824845,5.3509312 60.692554,5.271005 60.560262,5.1883228 60.389386,5.122177 60.221265,5.0532752 60.044876,4.9816172 59.868487,4.9099593 59.697611,4.8272771 59.52949,4.7418388 59.397199,4.6288397 59.264907,4.5130846 59.182225,4.3587444 q -0.07993,-0.1543401 -0.07993,-0.3665579 0,-0.1846569 0.07717,-0.3638018 0.07717,-0.1791448 0.239778,-0.3169485 0.162609,-0.1405598 0.416168,-0.2259981 0.256314,-0.085438 0.609092,-0.085438 0.09095,0 0.195681,0.00827 0.107487,0.00827 0.214974,0.024805 0.110243,0.01378 0.214974,0.033073 0.107487,0.019293 0.198437,0.041341 v 0.4409719 q -0.212218,-0.060634 -0.424435,-0.09095 -0.212218,-0.033073 -0.410655,-0.033073 -0.42168,0 -0.620117,0.1405598 -0.198437,0.1405598 -0.198437,0.3775822 0,0.1460719 0.07993,0.2508028 0.08268,0.1047308 0.214974,0.187413 0.132291,0.082682 0.300412,0.1515841 0.170876,0.066146 0.347265,0.1378037 0.176389,0.071658 0.344509,0.1570963 0.170877,0.085438 0.303169,0.2039495 0.132291,0.1157551 0.212217,0.2728513 0.08268,0.1570962 0.08268,0.37207 z"
         style="font-style:normal;font-variant:normal;font-weight:normal;font-stretch:normal;font-size:5.64444px;font-family:Consolas;-inkscape-font-specification:Consolas;stroke-width:0.264583"
         id="path1611" />
      <path
         d="M 64.721935,3.4685324 H 63.655334 V 6.6517982 H 63.159241 V 3.4685324 H 62.09264 V 3.0496091 h 2.629295 z"
         style="font-style:normal;font-variant:normal;font-weight:normal;font-stretch:normal;font-size:5.64444px;font-family:Consolas;-inkscape-font-specification:Consolas;stroke-width:0.264583"
         id="path1613" />
      <path
         d="M 68.034737,6.6517982 H 67.500058 L 67.249255,5.8663171 h -1.499304 l -0.253559,0.7854811 h -0.509874 l 1.196137,-3.6021891 h 0.672482 z m -0.926041,-1.2236969 -0.609093,-1.926496 -0.609092,1.926496 z"
         style="font-style:normal;font-variant:normal;font-weight:normal;font-stretch:normal;font-size:5.64444px;font-family:Consolas;-inkscape-font-specification:Consolas;stroke-width:0.264583"
         id="path1615" />
      <path
         d="M 70.928615,3.4685324 H 69.862014 V 6.6517982 H 69.365921 V 3.4685324 H 68.29932 V 3.0496091 h 2.629295 z"
         style="font-style:normal;font-variant:normal;font-weight:normal;font-stretch:normal;font-size:5.64444px;font-family:Consolas;-inkscape-font-specification:Consolas;stroke-width:0.264583"
         id="path1617" />
      <path
         d="M 73.767372,6.6517982 H 71.719609 V 3.0496091 h 2.047763 V 3.4630203 H 72.21019 v 1.1162101 h 1.496548 V 4.9926415 H 72.21019 V 6.232875 h 1.557182 z"
         style="font-style:normal;font-variant:normal;font-weight:normal;font-stretch:normal;font-size:5.64444px;font-family:Consolas;-inkscape-font-specification:Consolas;stroke-width:0.264583"
         id="path1619" />
      <path
         d="M 77.237266,6.6517982 H 76.757709 L 76.686051,4.4055977 76.655735,3.5429464 76.487614,4.044552 75.955692,5.4777106 h -0.338997 l -0.507118,-1.3780372 -0.168121,-0.556727 -0.01102,0.9012363 -0.06339,2.2076155 h -0.46302 l 0.176389,-3.6021891 h 0.581531 l 0.485069,1.3559886 0.157097,0.4575083 0.151584,-0.4575083 0.509874,-1.3559886 h 0.598068 z"
         style="font-style:normal;font-variant:normal;font-weight:normal;font-stretch:normal;font-size:5.64444px;font-family:Consolas;-inkscape-font-specification:Consolas;stroke-width:0.264583"
         id="path1621" />
      <path
         d="M 79.974049,6.6517982 H 77.926285 V 3.0496091 h 2.047764 v 0.4134112 h -1.557182 v 1.1162101 h 1.496548 V 4.9926415 H 78.416867 V 6.232875 h 1.557182 z"
         style="font-style:normal;font-variant:normal;font-weight:normal;font-stretch:normal;font-size:5.64444px;font-family:Consolas;-inkscape-font-specification:Consolas;stroke-width:0.264583"
         id="path1623" />
      <path
         d="m 83.253778,6.6517982 h -0.63941 L 81.564304,4.4055977 81.261136,3.6835062 v 1.816253 1.152039 H 80.803627 V 3.0496091 h 0.631141 l 1.000455,2.1276894 0.361046,0.8240662 V 4.0721127 3.0496091 h 0.457509 z"
         style="font-style:normal;font-variant:normal;font-weight:normal;font-stretch:normal;font-size:5.64444px;font-family:Consolas;-inkscape-font-specification:Consolas;stroke-width:0.264583"
         id="path1625" />
      <path
         d="M 86.445312,3.4685324 H 85.378711 V 6.6517982 H 84.882618 V 3.4685324 H 83.816017 V 3.0496091 h 2.629295 z"
         style="font-style:normal;font-variant:normal;font-weight:normal;font-stretch:normal;font-size:5.64444px;font-family:Consolas;-inkscape-font-specification:Consolas;stroke-width:0.264583"
         id="path1627" />
    </g>
  </g>
  <g
     inkscape:groupmode="layer"
     id="layer2"
     inkscape:label="components"
     style="display:none">
    <circle
       style="display:inline;fill:#ff00ff;fill-opacity:1;stroke:none;stroke-width:0.0770541;stroke-linejoin:round"
       id="path1044-9-8"
       cx="72.587997"
       cy="109.63861"
       r="1.0880001"
       inkscape:label="leddefaultenable" />
    <circle
       style="display:inline;fill:#00ff00;fill-opacity:1;stroke:none;stroke-width:0.162279;stroke-linejoin:round"
       id="cir1-5"
       cx="52.418861"
       cy="19.977194"
       r="3.9188602"
       inkscape:label="in1" />
    <circle
       style="fill:#00ff00;fill-opacity:1;stroke:none;stroke-width:0.162279;stroke-linejoin:round"
       id="cir1"
       cx="12.91886"
       cy="19.977194"
       r="3.9188602"
       inkscape:label="cv1" />
    <circle
       style="fill:#0000ff;fill-opacity:1;stroke:none;stroke-width:0.162279;stroke-linejoin:round"
       id="path842-6"
       cx="112.22823"
       cy="39.120949"
       r="3.9188602"
       inkscape:label="caseout1" />
    <circle
       style="fill:#ff0000;fill-opacity:1;stroke:none;stroke-width:0.207049;stroke-linejoin:round"
       id="cir1-7"
       cx="29.466675"
       cy="39.202091"
       inkscape:label="note1"
       r="5" />
    <circle
       style="fill:#ff0000;fill-opacity:1;stroke:none;stroke-width:0.207049;stroke-linejoin:round"
       id="cir1-7-1"
       cx="46.466675"
       cy="39.202091"
       inkscape:label="octave1"
       r="5" />
    <rect
       style="fill:#ffff00;fill-opacity:1;stroke:none;stroke-width:0.427837;stroke-linejoin:round"
       id="rect939"
       width="29.799999"
       height="8"
       x="71.466675"
       y="35.202091"
       inkscape:label="display1" />
    <circle
       style="display:inline;fill:#ff0000;fill-opacity:1;stroke:none;stroke-width:0.207049;stroke-linejoin:round"
       id="cir1-7-1-2"
       cx="63.466675"
       cy="39.202091"
       inkscape:label="comp1"
       r="5" />
    <circle
       style="fill:#ff00ff;fill-opacity:1;stroke:none;stroke-width:0.0770541;stroke-linejoin:round"
       id="path1044"
       cx="25.087999"
       cy="18.138508"
       r="1.0880001"
       inkscape:label="ledint1" />
    <circle
       style="display:inline;fill:#ff00ff;fill-opacity:1;stroke:none;stroke-width:0.0770541;stroke-linejoin:round"
       id="path1044-9"
       cx="25.087999"
       cy="22.146334"
       r="1.0880001"
       inkscape:label="ledext1" />
    <circle
       style="display:inline;fill:#0000ff;fill-opacity:1;stroke:none;stroke-width:0.162279;stroke-linejoin:round"
       id="path842-6-9"
       cx="112.22855"
       cy="54.955025"
       r="3.9188602"
       inkscape:label="caseout2" />
    <circle
       style="display:inline;fill:#ff0000;fill-opacity:1;stroke:none;stroke-width:0.207049;stroke-linejoin:round"
       id="cir1-7-5"
       cx="29.466999"
       cy="55.036167"
       inkscape:label="note2"
       r="5" />
    <circle
       style="display:inline;fill:#ff0000;fill-opacity:1;stroke:none;stroke-width:0.207049;stroke-linejoin:round"
       id="cir1-7-1-6"
       cx="46.466999"
       cy="55.036167"
       inkscape:label="octave2"
       r="5" />
    <rect
       style="display:inline;fill:#ffff00;fill-opacity:1;stroke:none;stroke-width:0.427837;stroke-linejoin:round"
       id="rect939-2"
       width="29.799999"
       height="8"
       x="71.466995"
       y="51.036167"
       inkscape:label="display2" />
    <circle
       style="display:inline;fill:#ff0000;fill-opacity:1;stroke:none;stroke-width:0.207049;stroke-linejoin:round"
       id="cir1-7-1-2-2"
       cx="63.466991"
       cy="55.036167"
       inkscape:label="comp2"
       r="5" />
    <circle
       style="display:inline;fill:#0000ff;fill-opacity:1;stroke:none;stroke-width:0.162279;stroke-linejoin:round"
       id="path842-6-0"
       cx="112.22855"
       cy="71.59951"
       r="3.9188602"
       inkscape:label="caseout3" />
    <circle
       style="display:inline;fill:#ff0000;fill-opacity:1;stroke:none;stroke-width:0.207049;stroke-linejoin:round"
       id="cir1-7-3"
       cx="29.466999"
       cy="71.680649"
       inkscape:label="note3"
       r="5" />
    <circle
       style="display:inline;fill:#ff0000;fill-opacity:1;stroke:none;stroke-width:0.207049;stroke-linejoin:round"
       id="cir1-7-1-7"
       cx="46.466999"
       cy="71.680649"
       inkscape:label="octave3"
       r="5" />
    <rect
       style="display:inline;fill:#ffff00;fill-opacity:1;stroke:none;stroke-width:0.427837;stroke-linejoin:round"
       id="rect939-5"
       width="29.799999"
       height="8"
       x="71.467003"
       y="67.680649"
       inkscape:label="display3" />
    <circle
       style="display:inline;fill:#ff0000;fill-opacity:1;stroke:none;stroke-width:0.207049;stroke-linejoin:round"
       id="cir1-7-1-2-8"
       cx="63.466999"
       cy="71.680649"
       inkscape:label="comp3"
       r="5" />
    <circle
       style="display:inline;fill:#0000ff;fill-opacity:1;stroke:none;stroke-width:0.162279;stroke-linejoin:round"
       id="path842-6-3"
       cx="112.22853"
       cy="88.29351"
       r="3.9188602"
       inkscape:label="caseout4" />
    <circle
       style="display:inline;fill:#ff0000;fill-opacity:1;stroke:none;stroke-width:0.207049;stroke-linejoin:round"
       id="cir1-7-4"
       cx="29.466999"
       cy="88.374649"
       inkscape:label="note4"
       r="5" />
    <circle
       style="display:inline;fill:#ff0000;fill-opacity:1;stroke:none;stroke-width:0.207049;stroke-linejoin:round"
       id="cir1-7-1-9"
       cx="46.466999"
       cy="88.374649"
       inkscape:label="octave4"
       r="5" />
    <rect
       style="display:inline;fill:#ffff00;fill-opacity:1;stroke:none;stroke-width:0.427837;stroke-linejoin:round"
       id="rect939-4"
       width="29.799999"
       height="8"
       x="71.466995"
       y="84.374649"
       inkscape:label="display4" />
    <circle
       style="display:inline;fill:#ff0000;fill-opacity:1;stroke:none;stroke-width:0.207049;stroke-linejoin:round"
       id="cir1-7-1-2-4"
       cx="63.466999"
       cy="88.374649"
       inkscape:label="comp4"
       r="5" />
    <circle
       style="display:inline;fill:#0000ff;fill-opacity:1;stroke:none;stroke-width:0.162279;stroke-linejoin:round"
       id="path842-6-3-3"
       cx="112.22858"
       cy="109.2533"
       r="3.9188602"
       inkscape:label="casedefaultout" />
    <circle
       style="display:inline;fill:#ff00ff;fill-opacity:1;stroke:none;stroke-width:0.0770541;stroke-linejoin:round"
       id="path1044-9-8-3"
       cx="106.088"
       cy="36.290333"
       r="1.0880001"
       inkscape:label="ledcase1" />
    <circle
       style="display:inline;fill:#ff00ff;fill-opacity:1;stroke:none;stroke-width:0.0770541;stroke-linejoin:round"
       id="path1044-9-8-3-5"
       cx="106.088"
       cy="52.124336"
       r="1.0880001"
       inkscape:label="ledcase2" />
    <circle
       style="display:inline;fill:#ff00ff;fill-opacity:1;stroke:none;stroke-width:0.0770541;stroke-linejoin:round"
       id="path1044-9-8-3-3"
       cx="106.088"
       cy="68.768333"
       r="1.0880001"
       inkscape:label="ledcase3" />
    <circle
       style="display:inline;fill:#ff00ff;fill-opacity:1;stroke:none;stroke-width:0.0770541;stroke-linejoin:round"
       id="path1044-9-8-3-3-3"
       cx="106.088"
       cy="85.462334"
       r="1.0880001"
       inkscape:label="ledcase4" />
    <circle
       style="display:inline;fill:#ff00ff;fill-opacity:1;stroke:none;stroke-width:0.0770541;stroke-linejoin:round"
       id="path1044-9-8-3-3-8"
       cx="106.088"
       cy="106.42234"
       r="1.0880001"
       inkscape:label="ledcasedefault" />
  </g>
</svg>
